<svg width="94" height="122" viewBox="0 0 94 122" fill="none" xmlns="http://www.w3.org/2000/svg">
<path d="M8.09998 89.9L47.6 110L85.6 89.9V11.3H8.09998V89.9Z" fill="white"/>
<path d="M86.4 11.6001L7.30005 91.3001L48.3 111.6L86.4 92.1001V11.6001Z" fill="#F2F3F2"/>
<path d="M5.5 37.5V91.6L6.9 92.3L46.4 112.4L47.6 113L48.8 112.4L86.9 92.3L88.3 91.6V8.69995H5.5V37.5ZM8.1 90.1V11.3H85.7V90.1L47.6 110.2L8.1 90.1Z" fill="#DCDEDC"/>
<path d="M46.9 12.6C47.3 12.6 47.7 12.6 48.1 12.7L46.9 15C45.1 14.9 43.5 16.3 43.4 18.1C43.3 19.9 44.7 21.5 46.5 21.6H46.9C47.7 21.6 48.5 21.3 49.1 20.8L50.4 23C49.4 23.7 48.2 24.1 46.9 24.1C43.7 24.2 41 21.8 40.9 18.6C40.8 15.4 43.2 12.7 46.4 12.6H46.9ZM51 17.5L52.5 20L51 22.4L49.6 20H46.7L48.2 17.5H51ZM48.6 16.6C48.6 16.2 48.7 15.8 48.9 15.5C49.1 15.2 49.5 14.9 49.8 14.7L50 14.6C50.4 14.4 50.5 14.3 50.5 14.1C50.5 13.9 50.2 13.7 50 13.7C49.6 13.7 49.3 13.9 49.1 14.3L48.6 13.8C48.7 13.6 48.9 13.4 49.1 13.2C49.4 13 49.7 13 50 13C50.3 13 50.7 13.1 50.9 13.3C51.1 13.5 51.3 13.8 51.3 14.1C51.3 14.6 51 15 50.4 15.2L50.1 15.4C49.8 15.6 49.6 15.7 49.5 16H51.3V16.7L48.6 16.6ZM46.9 29.1L56.4 23.7V8.69995H37.3V23.6L46.9 29.1ZM90.2 64.5H3.60002L0.400024 71.5L3.60002 78.5H90.2L93.3 71.5L90.2 64.5Z" fill="#FF492C"/>
<path d="M25.3 60C25.2533 60 25.2133 59.9833 25.18 59.95C25.1467 59.9166 25.13 59.8766 25.13 59.83V50.3699C25.13 50.3233 25.1467 50.2833 25.18 50.25C25.2133 50.2166 25.2533 50.2 25.3 50.2H26.94C26.9867 50.2 27.0267 50.2166 27.06 50.25C27.0933 50.2833 27.11 50.3233 27.11 50.3699V58.24C27.11 58.2866 27.1333 58.31 27.18 58.31H31.76C31.8067 58.31 31.8433 58.3233 31.87 58.3499C31.9033 58.3833 31.92 58.4233 31.92 58.47V59.83C31.92 59.8766 31.9033 59.9166 31.87 59.95C31.8433 59.9833 31.8067 60 31.76 60H25.3ZM39.39 55.66C39.4433 56.0133 39.46 56.4099 39.44 56.8499C39.4333 56.9633 39.3733 57.02 39.26 57.02H34.93C34.8767 57.02 34.86 57.0433 34.88 57.09C34.9067 57.2766 34.9567 57.4633 35.03 57.65C35.2767 58.17 35.7733 58.43 36.52 58.43C37.1133 58.4233 37.5833 58.18 37.93 57.7C37.97 57.6466 38.0133 57.6199 38.06 57.6199C38.0867 57.6199 38.1167 57.6399 38.15 57.68L39.16 58.6699C39.2067 58.7166 39.23 58.7599 39.23 58.7999C39.23 58.8133 39.2133 58.85 39.18 58.91C38.8667 59.2899 38.47 59.5866 37.99 59.7999C37.5033 60.0066 36.97 60.11 36.39 60.11C35.59 60.11 34.91 59.93 34.35 59.57C33.7967 59.2033 33.4 58.6933 33.16 58.04C32.96 57.5733 32.86 56.9633 32.86 56.2099C32.86 55.6966 32.93 55.2433 33.07 54.8499C33.2833 54.1833 33.66 53.6566 34.2 53.27C34.7333 52.8766 35.37 52.68 36.11 52.68C37.0433 52.68 37.7933 52.95 38.36 53.49C38.92 54.03 39.2633 54.7533 39.39 55.66ZM36.12 54.3899C35.5333 54.3899 35.1467 54.6633 34.96 55.2099C34.9267 55.33 34.8933 55.4799 34.86 55.66C34.86 55.7066 34.8833 55.7299 34.93 55.7299H37.36C37.4133 55.7299 37.43 55.7066 37.41 55.66C37.3633 55.3866 37.34 55.2566 37.34 55.27C37.26 54.99 37.1133 54.7733 36.9 54.6199C36.6933 54.4666 36.4333 54.3899 36.12 54.3899ZM43.46 52.6899C44.0667 52.6899 44.6067 52.7966 45.08 53.0099C45.56 53.2166 45.9333 53.5033 46.2 53.8699C46.4667 54.2299 46.6 54.6366 46.6 55.09V59.83C46.6 59.8766 46.5833 59.9166 46.55 59.95C46.5167 59.9833 46.4767 60 46.43 60H44.79C44.7433 60 44.7033 59.9833 44.67 59.95C44.6367 59.9166 44.62 59.8766 44.62 59.83V59.3699C44.62 59.3433 44.61 59.3233 44.59 59.31C44.5767 59.3033 44.56 59.3133 44.54 59.34C44.1467 59.8533 43.5167 60.11 42.65 60.11C41.9233 60.11 41.3333 59.9333 40.88 59.58C40.4333 59.2266 40.21 58.7033 40.21 58.0099C40.21 57.2899 40.4633 56.7333 40.97 56.34C41.47 55.94 42.1867 55.74 43.12 55.74H44.55C44.5967 55.74 44.62 55.7166 44.62 55.6699V55.3699C44.62 55.0566 44.5267 54.8133 44.34 54.6399C44.1533 54.4733 43.8733 54.3899 43.5 54.3899C43.2133 54.3899 42.9733 54.44 42.78 54.54C42.5867 54.64 42.4633 54.7833 42.41 54.97C42.3833 55.0766 42.3233 55.1233 42.23 55.11L40.53 54.8899C40.4233 54.8699 40.3733 54.8266 40.38 54.7599C40.42 54.3733 40.5767 54.02 40.85 53.7C41.1233 53.38 41.4867 53.1333 41.94 52.9599C42.3933 52.7799 42.9 52.6899 43.46 52.6899ZM43.18 58.6399C43.58 58.6399 43.92 58.5333 44.2 58.32C44.48 58.1066 44.62 57.83 44.62 57.49V56.99C44.62 56.9433 44.5967 56.9199 44.55 56.9199H43.54C43.12 56.9199 42.7933 57 42.56 57.16C42.32 57.32 42.2 57.5433 42.2 57.83C42.2 58.0833 42.29 58.2833 42.47 58.43C42.6433 58.57 42.88 58.6399 43.18 58.6399ZM52.45 50.3699C52.45 50.3233 52.4667 50.2833 52.5 50.25C52.5333 50.2166 52.5733 50.2 52.62 50.2H54.25C54.2967 50.2 54.3367 50.2166 54.37 50.25C54.4033 50.2833 54.42 50.3233 54.42 50.3699V59.83C54.42 59.8766 54.4033 59.9166 54.37 59.95C54.3367 59.9833 54.2967 60 54.25 60H52.62C52.5733 60 52.5333 59.9833 52.5 59.95C52.4667 59.9166 52.45 59.8766 52.45 59.83V59.3699C52.45 59.3433 52.44 59.3266 52.42 59.32C52.4 59.3133 52.38 59.32 52.36 59.34C51.9733 59.8533 51.4367 60.11 50.75 60.11C50.0967 60.11 49.5367 59.93 49.07 59.57C48.5967 59.2033 48.2567 58.7033 48.05 58.07C47.89 57.5833 47.81 57.0166 47.81 56.3699C47.81 55.7099 47.8967 55.1333 48.07 54.6399C48.2833 54.0399 48.62 53.5666 49.08 53.22C49.54 52.8666 50.1133 52.6899 50.8 52.6899C51.4667 52.6899 51.9867 52.9233 52.36 53.3899C52.38 53.4166 52.4 53.4266 52.42 53.4199C52.44 53.4133 52.45 53.3933 52.45 53.36V50.3699ZM52.15 57.82C52.3367 57.4733 52.43 57 52.43 56.4C52.43 55.7733 52.33 55.2833 52.13 54.93C51.91 54.57 51.5967 54.3899 51.19 54.3899C50.75 54.3899 50.4167 54.57 50.19 54.93C49.9567 55.2966 49.84 55.7933 49.84 56.4199C49.84 56.9799 49.94 57.4466 50.14 57.82C50.3733 58.2199 50.7167 58.4199 51.17 58.4199C51.59 58.4199 51.9167 58.2199 52.15 57.82ZM62.28 55.66C62.3333 56.0133 62.35 56.4099 62.33 56.8499C62.3233 56.9633 62.2633 57.02 62.15 57.02H57.82C57.7667 57.02 57.75 57.0433 57.77 57.09C57.7967 57.2766 57.8467 57.4633 57.92 57.65C58.1667 58.17 58.6633 58.43 59.41 58.43C60.0033 58.4233 60.4733 58.18 60.82 57.7C60.86 57.6466 60.9033 57.6199 60.95 57.6199C60.9767 57.6199 61.0067 57.6399 61.04 57.68L62.05 58.6699C62.0967 58.7166 62.12 58.7599 62.12 58.7999C62.12 58.8133 62.1033 58.85 62.07 58.91C61.7567 59.2899 61.36 59.5866 60.88 59.7999C60.3933 60.0066 59.86 60.11 59.28 60.11C58.48 60.11 57.8 59.93 57.24 59.57C56.6867 59.2033 56.29 58.6933 56.05 58.04C55.85 57.5733 55.75 56.9633 55.75 56.2099C55.75 55.6966 55.82 55.2433 55.96 54.8499C56.1733 54.1833 56.55 53.6566 57.09 53.27C57.6233 52.8766 58.26 52.68 59 52.68C59.9333 52.68 60.6833 52.95 61.25 53.49C61.81 54.03 62.1533 54.7533 62.28 55.66ZM59.01 54.3899C58.4233 54.3899 58.0367 54.6633 57.85 55.2099C57.8167 55.33 57.7833 55.4799 57.75 55.66C57.75 55.7066 57.7733 55.7299 57.82 55.7299H60.25C60.3033 55.7299 60.32 55.7066 60.3 55.66C60.2533 55.3866 60.23 55.2566 60.23 55.27C60.15 54.99 60.0033 54.7733 59.79 54.6199C59.5833 54.4666 59.3233 54.3899 59.01 54.3899ZM67.13 52.7099C67.47 52.7099 67.7367 52.7733 67.93 52.9C68.0033 52.94 68.0333 53.01 68.02 53.11L67.72 54.7099C67.7133 54.8233 67.65 54.8566 67.53 54.81C67.39 54.7633 67.2267 54.74 67.04 54.74C66.96 54.74 66.8567 54.7466 66.73 54.7599C66.39 54.7933 66.1033 54.9166 65.87 55.13C65.6367 55.35 65.52 55.6433 65.52 56.0099V59.83C65.52 59.8766 65.5067 59.9166 65.48 59.95C65.4467 59.9833 65.4067 60 65.36 60H63.72C63.6733 60 63.6333 59.9833 63.6 59.95C63.5667 59.9166 63.55 59.8766 63.55 59.83V52.97C63.55 52.9233 63.5667 52.8833 63.6 52.8499C63.6333 52.8166 63.6733 52.7999 63.72 52.7999H65.36C65.4067 52.7999 65.4467 52.8166 65.48 52.8499C65.5067 52.8833 65.52 52.9233 65.52 52.97V53.5C65.52 53.5333 65.53 53.5533 65.55 53.56C65.57 53.5666 65.5833 53.5633 65.59 53.5499C65.9767 52.99 66.49 52.7099 67.13 52.7099ZM18.93 36.31C18.9767 36.2366 19.0433 36.2 19.13 36.2H20.77C20.8167 36.2 20.8567 36.2166 20.89 36.25C20.9233 36.2833 20.94 36.3233 20.94 36.3699V45.83C20.94 45.8766 20.9233 45.9166 20.89 45.95C20.8567 45.9833 20.8167 46 20.77 46H19.13C19.0833 46 19.0433 45.9833 19.01 45.95C18.9767 45.9166 18.96 45.8766 18.96 45.83V39.66C18.96 39.62 18.95 39.5999 18.93 39.5999C18.9167 39.5999 18.9 39.6133 18.88 39.6399L17.39 41.97C17.3433 42.0433 17.28 42.08 17.2 42.08H16.37C16.29 42.08 16.2267 42.0433 16.18 41.97L14.69 39.6399C14.67 39.6133 14.6533 39.6033 14.64 39.61C14.62 39.6166 14.61 39.6366 14.61 39.6699V45.83C14.61 45.8766 14.5933 45.9166 14.56 45.95C14.5267 45.9833 14.4867 46 14.44 46H12.8C12.7533 46 12.7133 45.9833 12.68 45.95C12.6467 45.9166 12.63 45.8766 12.63 45.83V36.3699C12.63 36.3233 12.6467 36.2833 12.68 36.25C12.7133 36.2166 12.7533 36.2 12.8 36.2H14.44C14.5267 36.2 14.5933 36.2366 14.64 36.31L16.74 39.57C16.7667 39.63 16.7933 39.63 16.82 39.57L18.93 36.31ZM25.7 46.11C24.9133 46.11 24.24 45.9066 23.68 45.5C23.12 45.0866 22.7367 44.5266 22.53 43.82C22.4033 43.38 22.34 42.9033 22.34 42.3899C22.34 41.8366 22.4033 41.34 22.53 40.9C22.7433 40.2133 23.13 39.6733 23.69 39.2799C24.25 38.8866 24.9233 38.6899 25.71 38.6899C26.4767 38.6899 27.13 38.8833 27.67 39.27C28.21 39.6566 28.5933 40.1966 28.82 40.8899C28.9667 41.3566 29.04 41.8466 29.04 42.36C29.04 42.8666 28.9767 43.3366 28.85 43.77C28.6433 44.5033 28.2633 45.0766 27.71 45.49C27.15 45.9033 26.48 46.11 25.7 46.11ZM25.7 44.4199C26.0067 44.4199 26.2667 44.3266 26.48 44.1399C26.6933 43.9533 26.8467 43.6966 26.94 43.3699C27.0133 43.0699 27.05 42.7433 27.05 42.3899C27.05 41.9966 27.0133 41.6633 26.94 41.3899C26.84 41.0766 26.6833 40.83 26.47 40.65C26.25 40.4766 25.9867 40.3899 25.68 40.3899C25.3667 40.3899 25.1033 40.4766 24.89 40.65C24.6833 40.83 24.5333 41.0766 24.44 41.3899C24.36 41.6166 24.32 41.9499 24.32 42.3899C24.32 42.8099 24.3533 43.1366 24.42 43.3699C24.5133 43.6966 24.67 43.9533 24.89 44.1399C25.11 44.3266 25.38 44.4199 25.7 44.4199ZM38.3 38.6899C39.0267 38.6899 39.5933 38.9099 40 39.3499C40.4133 39.7899 40.62 40.4066 40.62 41.2V45.83C40.62 45.8766 40.6033 45.9166 40.57 45.95C40.5367 45.9833 40.4967 46 40.45 46H38.81C38.7633 46 38.7233 45.9833 38.69 45.95C38.6633 45.9166 38.65 45.8766 38.65 45.83V41.63C38.65 41.25 38.55 40.9466 38.35 40.72C38.1567 40.5 37.8967 40.3899 37.57 40.3899C37.2433 40.3899 36.9767 40.5 36.77 40.72C36.5633 40.9466 36.46 41.2466 36.46 41.6199V45.83C36.46 45.8766 36.4433 45.9166 36.41 45.95C36.3767 45.9833 36.3367 46 36.29 46H34.67C34.6233 46 34.5833 45.9833 34.55 45.95C34.5167 45.9166 34.5 45.8766 34.5 45.83V41.63C34.5 41.2566 34.3967 40.9566 34.19 40.7299C33.99 40.5033 33.7267 40.3899 33.4 40.3899C33.1 40.3899 32.85 40.4766 32.65 40.65C32.45 40.83 32.33 41.0766 32.29 41.3899V45.83C32.29 45.8766 32.2733 45.9166 32.24 45.95C32.2067 45.9833 32.1667 46 32.12 46H30.48C30.4333 46 30.3967 45.9833 30.37 45.95C30.3367 45.9166 30.32 45.8766 30.32 45.83V38.97C30.32 38.9233 30.3367 38.8833 30.37 38.8499C30.3967 38.8166 30.4333 38.7999 30.48 38.7999H32.12C32.1667 38.7999 32.2067 38.8166 32.24 38.8499C32.2733 38.8833 32.29 38.9233 32.29 38.97V39.52C32.29 39.5466 32.3 39.5633 32.32 39.57C32.34 39.5833 32.3567 39.5766 32.37 39.5499C32.7567 38.9766 33.35 38.6899 34.15 38.6899C34.6167 38.6899 35.0267 38.79 35.38 38.99C35.7267 39.1833 35.9933 39.4633 36.18 39.83C36.2067 39.8833 36.24 39.8833 36.28 39.83C36.4867 39.4433 36.7633 39.1566 37.11 38.97C37.4633 38.7833 37.86 38.6899 38.3 38.6899ZM48.33 41.66C48.39 42.0133 48.41 42.4099 48.39 42.8499C48.3833 42.9633 48.3233 43.02 48.21 43.02H43.88C43.8267 43.02 43.81 43.0433 43.83 43.09C43.8567 43.2766 43.9067 43.4633 43.98 43.65C44.22 44.17 44.7133 44.43 45.46 44.43C46.06 44.4233 46.5333 44.18 46.88 43.7C46.9133 43.6466 46.9533 43.6199 47 43.6199C47.0333 43.6199 47.0667 43.64 47.1 43.68L48.11 44.6699C48.1567 44.7166 48.18 44.7599 48.18 44.7999C48.18 44.8133 48.16 44.8499 48.12 44.91C47.8133 45.29 47.4167 45.5866 46.93 45.7999C46.45 46.0066 45.92 46.11 45.34 46.11C44.5333 46.11 43.8533 45.9299 43.3 45.57C42.7467 45.2033 42.3467 44.6933 42.1 44.04C41.9067 43.5733 41.81 42.9633 41.81 42.2099C41.81 41.6966 41.88 41.2433 42.02 40.8499C42.2333 40.1833 42.61 39.6566 43.15 39.27C43.6833 38.8766 44.32 38.68 45.06 38.68C45.9933 38.68 46.74 38.95 47.3 39.49C47.8667 40.03 48.21 40.7533 48.33 41.66ZM45.07 40.3899C44.4833 40.3899 44.0967 40.6633 43.91 41.2099C43.87 41.3299 43.8367 41.48 43.81 41.66C43.81 41.7066 43.8333 41.7299 43.88 41.7299H46.3C46.36 41.7299 46.38 41.7066 46.36 41.66C46.3133 41.3866 46.29 41.2566 46.29 41.27C46.2033 40.99 46.0567 40.7733 45.85 40.6199C45.6367 40.4666 45.3767 40.3899 45.07 40.3899ZM53.36 38.6899C54.1067 38.6899 54.71 38.92 55.17 39.38C55.6233 39.8333 55.85 40.4533 55.85 41.24V45.83C55.85 45.8766 55.8333 45.9166 55.8 45.95C55.7667 45.9833 55.7267 46 55.68 46H54.05C54.0033 46 53.9633 45.9833 53.93 45.95C53.8967 45.9166 53.88 45.8766 53.88 45.83V41.65C53.88 41.2766 53.7733 40.9733 53.56 40.74C53.3533 40.5066 53.0767 40.3899 52.73 40.3899C52.3833 40.3899 52.1067 40.5066 51.9 40.74C51.6867 40.9733 51.58 41.2766 51.58 41.65V45.83C51.58 45.8766 51.5633 45.9166 51.53 45.95C51.4967 45.9833 51.4567 46 51.41 46H49.78C49.7333 46 49.6933 45.9833 49.66 45.95C49.6267 45.9166 49.61 45.8766 49.61 45.83V38.97C49.61 38.9233 49.6267 38.8833 49.66 38.8499C49.6933 38.8166 49.7333 38.7999 49.78 38.7999H51.41C51.4567 38.7999 51.4967 38.8166 51.53 38.8499C51.5633 38.8833 51.58 38.9233 51.58 38.97V39.4599C51.58 39.4866 51.59 39.5066 51.61 39.52C51.63 39.5266 51.6433 39.52 51.65 39.5C52.0367 38.96 52.6067 38.6899 53.36 38.6899ZM61.4 40.22C61.4 40.2666 61.3833 40.3066 61.35 40.34C61.3167 40.3733 61.2767 40.3899 61.23 40.3899H59.88C59.8333 40.3899 59.81 40.4133 59.81 40.4599V43.4199C59.81 43.7333 59.8733 43.9633 60 44.11C60.1267 44.2566 60.33 44.33 60.61 44.33H61.07C61.1167 44.33 61.1567 44.3466 61.19 44.38C61.2233 44.4133 61.24 44.4533 61.24 44.5V45.83C61.24 45.9366 61.1833 45.9966 61.07 46.0099C60.6833 46.0299 60.4033 46.04 60.23 46.04C59.4567 46.04 58.88 45.9133 58.5 45.66C58.1133 45.4 57.9167 44.9166 57.91 44.2099V40.4599C57.91 40.4133 57.8867 40.3899 57.84 40.3899H57.04C56.9933 40.3899 56.9533 40.3733 56.92 40.34C56.8867 40.3066 56.87 40.2666 56.87 40.22V38.97C56.87 38.9233 56.8867 38.8833 56.92 38.8499C56.9533 38.8166 56.9933 38.7999 57.04 38.7999H57.84C57.8867 38.7999 57.91 38.7766 57.91 38.7299V37.07C57.91 37.0233 57.9267 36.9833 57.96 36.95C57.9933 36.9166 58.0333 36.9 58.08 36.9H59.65C59.6967 36.9 59.7333 36.9166 59.76 36.95C59.7933 36.9833 59.81 37.0233 59.81 37.07V38.7299C59.81 38.7766 59.8333 38.7999 59.88 38.7999H61.23C61.2767 38.7999 61.3167 38.8166 61.35 38.8499C61.3833 38.8833 61.4 38.9233 61.4 38.97V40.22ZM66.79 38.97C66.79 38.9233 66.8033 38.8833 66.83 38.8499C66.8633 38.8166 66.9033 38.7999 66.95 38.7999H68.59C68.6367 38.7999 68.6767 38.8166 68.71 38.8499C68.7433 38.8833 68.76 38.9233 68.76 38.97V45.83C68.76 45.8766 68.7433 45.9166 68.71 45.95C68.6767 45.9833 68.6367 46 68.59 46H66.95C66.9033 46 66.8633 45.9833 66.83 45.95C66.8033 45.9166 66.79 45.8766 66.79 45.83V45.36C66.79 45.3266 66.78 45.31 66.76 45.31C66.74 45.3033 66.72 45.3133 66.7 45.34C66.3267 45.8466 65.75 46.0999 64.97 46.0999C64.2567 46.0999 63.6733 45.8833 63.22 45.45C62.76 45.0233 62.53 44.4233 62.53 43.65V38.97C62.53 38.9233 62.5467 38.8833 62.58 38.8499C62.6133 38.8166 62.6533 38.7999 62.7 38.7999H64.32C64.3667 38.7999 64.4067 38.8166 64.44 38.8499C64.4733 38.8833 64.49 38.9233 64.49 38.97V43.16C64.49 43.5333 64.59 43.8366 64.79 44.07C64.99 44.3033 65.2667 44.4199 65.62 44.4199C65.94 44.4199 66.2033 44.3233 66.41 44.13C66.6167 43.9366 66.7433 43.6866 66.79 43.38V38.97ZM78.2 38.6899C78.9267 38.6899 79.4933 38.9099 79.9 39.3499C80.3133 39.7899 80.52 40.4066 80.52 41.2V45.83C80.52 45.8766 80.5033 45.9166 80.47 45.95C80.4367 45.9833 80.3967 46 80.35 46H78.71C78.6633 46 78.6233 45.9833 78.59 45.95C78.5633 45.9166 78.55 45.8766 78.55 45.83V41.63C78.55 41.25 78.45 40.9466 78.25 40.72C78.0567 40.5 77.7967 40.3899 77.47 40.3899C77.1433 40.3899 76.8767 40.5 76.67 40.72C76.4633 40.9466 76.36 41.2466 76.36 41.6199V45.83C76.36 45.8766 76.3433 45.9166 76.31 45.95C76.2767 45.9833 76.2367 46 76.19 46H74.57C74.5233 46 74.4833 45.9833 74.45 45.95C74.4167 45.9166 74.4 45.8766 74.4 45.83V41.63C74.4 41.2566 74.2967 40.9566 74.09 40.7299C73.89 40.5033 73.6267 40.3899 73.3 40.3899C73 40.3899 72.75 40.4766 72.55 40.65C72.35 40.83 72.23 41.0766 72.19 41.3899V45.83C72.19 45.8766 72.1733 45.9166 72.14 45.95C72.1067 45.9833 72.0667 46 72.02 46H70.38C70.3333 46 70.2933 45.9833 70.26 45.95C70.2333 45.9166 70.22 45.8766 70.22 45.83V38.97C70.22 38.9233 70.2333 38.8833 70.26 38.8499C70.2933 38.8166 70.3333 38.7999 70.38 38.7999H72.02C72.0667 38.7999 72.1067 38.8166 72.14 38.8499C72.1733 38.8833 72.19 38.9233 72.19 38.97V39.52C72.19 39.5466 72.2 39.5633 72.22 39.57C72.24 39.5833 72.2567 39.5766 72.27 39.5499C72.6567 38.9766 73.25 38.6899 74.05 38.6899C74.5167 38.6899 74.9267 38.79 75.28 38.99C75.6267 39.1833 75.8933 39.4633 76.08 39.83C76.1067 39.8833 76.14 39.8833 76.18 39.83C76.3867 39.4433 76.6633 39.1566 77.01 38.97C77.3633 38.7833 77.76 38.6899 78.2 38.6899Z" fill="#252530"/>
<path d="M31.2 75.4C31.1266 75.4 31.08 75.3667 31.06 75.3L29.24 68.53L29.23 68.49C29.23 68.43 29.2666 68.4 29.34 68.4H30.32C30.3933 68.4 30.44 68.4334 30.46 68.5L31.6 73.06C31.6066 73.08 31.6166 73.09 31.63 73.09C31.6433 73.09 31.6533 73.08 31.66 73.06L32.75 68.5C32.77 68.4334 32.8133 68.4 32.88 68.4H33.84C33.9133 68.4 33.96 68.4334 33.98 68.5L35.14 73.07C35.1466 73.09 35.1566 73.1 35.17 73.1C35.1833 73.1 35.1933 73.09 35.2 73.07L36.32 68.5C36.34 68.4334 36.3866 68.4 36.46 68.4H37.39C37.4833 68.4 37.52 68.4434 37.5 68.53L35.77 75.3C35.75 75.3667 35.7033 75.4 35.63 75.4H34.7C34.6266 75.4 34.58 75.3667 34.56 75.3L33.39 70.53C33.3833 70.51 33.3733 70.4967 33.36 70.49C33.3466 70.49 33.3366 70.5034 33.33 70.53L32.21 75.3C32.19 75.3667 32.1466 75.4 32.08 75.4H31.2ZM38.61 75.4C38.5766 75.4 38.5466 75.3867 38.52 75.36C38.5 75.34 38.49 75.3134 38.49 75.28V68.52C38.49 68.4867 38.5 68.46 38.52 68.44C38.5466 68.4134 38.5766 68.4 38.61 68.4H39.53C39.5633 68.4 39.59 68.4134 39.61 68.44C39.6366 68.46 39.65 68.4867 39.65 68.52V75.28C39.65 75.3134 39.6366 75.34 39.61 75.36C39.59 75.3867 39.5633 75.4 39.53 75.4H38.61ZM45.18 68.52C45.18 68.4867 45.19 68.46 45.21 68.44C45.2366 68.4134 45.2666 68.4 45.3 68.4H46.22C46.2533 68.4 46.28 68.4134 46.3 68.44C46.3266 68.46 46.34 68.4867 46.34 68.52V75.28C46.34 75.3134 46.3266 75.34 46.3 75.36C46.28 75.3867 46.2533 75.4 46.22 75.4H45.33C45.2633 75.4 45.2166 75.3734 45.19 75.32L42.31 70.6C42.2966 70.58 42.2833 70.57 42.27 70.57C42.2566 70.5767 42.25 70.5934 42.25 70.62L42.27 75.28C42.27 75.3134 42.2566 75.34 42.23 75.36C42.21 75.3867 42.1833 75.4 42.15 75.4H41.23C41.1966 75.4 41.1666 75.3867 41.14 75.36C41.12 75.34 41.11 75.3134 41.11 75.28V68.52C41.11 68.4867 41.12 68.46 41.14 68.44C41.1666 68.4134 41.1966 68.4 41.23 68.4H42.12C42.1866 68.4 42.2333 68.4267 42.26 68.48L45.13 73.2C45.1433 73.22 45.1566 73.2267 45.17 73.22C45.1833 73.22 45.19 73.2067 45.19 73.18L45.18 68.52ZM52.4 68.4C52.4333 68.4 52.46 68.4134 52.48 68.44C52.5066 68.46 52.52 68.4867 52.52 68.52V69.29C52.52 69.3234 52.5066 69.35 52.48 69.37C52.46 69.3967 52.4333 69.41 52.4 69.41H50.56C50.5266 69.41 50.51 69.4267 50.51 69.46V75.28C50.51 75.3134 50.5 75.34 50.48 75.36C50.4533 75.3867 50.4233 75.4 50.39 75.4H49.47C49.4366 75.4 49.41 75.3867 49.39 75.36C49.3633 75.34 49.35 75.3134 49.35 75.28V69.46C49.35 69.4267 49.3333 69.41 49.3 69.41H47.53C47.4966 69.41 47.4666 69.3967 47.44 69.37C47.42 69.35 47.41 69.3234 47.41 69.29V68.52C47.41 68.4867 47.42 68.46 47.44 68.44C47.4666 68.4134 47.4966 68.4 47.53 68.4H52.4ZM58.33 69.28C58.33 69.3134 58.3166 69.34 58.29 69.36C58.27 69.3867 58.2433 69.4 58.21 69.4H54.8C54.7666 69.4 54.75 69.4167 54.75 69.45V71.32C54.75 71.3534 54.7666 71.37 54.8 71.37H57.09C57.1233 71.37 57.1533 71.38 57.18 71.4C57.2 71.4267 57.21 71.4567 57.21 71.49V72.25C57.21 72.2834 57.2 72.3134 57.18 72.34C57.1533 72.36 57.1233 72.37 57.09 72.37H54.8C54.7666 72.37 54.75 72.3867 54.75 72.42V74.35C54.75 74.3834 54.7666 74.4 54.8 74.4H58.21C58.2433 74.4 58.27 74.4134 58.29 74.44C58.3166 74.46 58.33 74.4867 58.33 74.52V75.28C58.33 75.3134 58.3166 75.34 58.29 75.36C58.27 75.3867 58.2433 75.4 58.21 75.4H53.71C53.6766 75.4 53.6466 75.3867 53.62 75.36C53.6 75.34 53.59 75.3134 53.59 75.28V68.52C53.59 68.4867 53.6 68.46 53.62 68.44C53.6466 68.4134 53.6766 68.4 53.71 68.4H58.21C58.2433 68.4 58.27 68.4134 58.29 68.44C58.3166 68.46 58.33 68.4867 58.33 68.52V69.28ZM63.44 75.4C63.3733 75.4 63.3266 75.37 63.3 75.31L61.98 72.43C61.9666 72.4034 61.9466 72.39 61.92 72.39H60.72C60.6866 72.39 60.67 72.4067 60.67 72.44V75.28C60.67 75.3134 60.6566 75.34 60.63 75.36C60.61 75.3867 60.5833 75.4 60.55 75.4H59.63C59.5966 75.4 59.5666 75.3867 59.54 75.36C59.52 75.34 59.51 75.3134 59.51 75.28V68.52C59.51 68.4867 59.52 68.46 59.54 68.44C59.5666 68.4134 59.5966 68.4 59.63 68.4H62.38C62.7866 68.4 63.1466 68.4834 63.46 68.65C63.7733 68.8234 64.0167 69.0634 64.19 69.37C64.3633 69.6834 64.45 70.04 64.45 70.44C64.45 70.9 64.33 71.29 64.09 71.61C63.8566 71.9367 63.53 72.1634 63.11 72.29C63.0966 72.29 63.0867 72.2967 63.08 72.31C63.0733 72.3234 63.0733 72.3367 63.08 72.35L64.49 75.26C64.5033 75.2867 64.51 75.3067 64.51 75.32C64.51 75.3734 64.4733 75.4 64.4 75.4H63.44ZM60.72 69.4C60.6866 69.4 60.67 69.4167 60.67 69.45V71.44C60.67 71.4734 60.6866 71.49 60.72 71.49H62.22C62.54 71.49 62.8 71.3934 63 71.2C63.1933 71.0134 63.29 70.7634 63.29 70.45C63.29 70.1367 63.1933 69.8834 63 69.69C62.8 69.4967 62.54 69.4 62.22 69.4H60.72Z" fill="white"/>
<path d="M33.49 93.46C33.47 93.48 33.4633 93.5 33.47 93.52C33.4833 93.54 33.5033 93.55 33.5299 93.55H37.4599C37.5066 93.55 37.5466 93.5667 37.58 93.6C37.62 93.6334 37.6399 93.6734 37.6399 93.72V95.13C37.6399 95.1767 37.62 95.2167 37.58 95.25C37.5466 95.2834 37.5066 95.3 37.4599 95.3H30.94C30.8866 95.3 30.8433 95.2834 30.8099 95.25C30.7766 95.2167 30.76 95.1767 30.76 95.13V93.79C30.76 93.7034 30.79 93.63 30.85 93.57C31.3233 93.11 31.8066 92.6067 32.2999 92.06C32.7933 91.5134 33.1033 91.1734 33.2299 91.04C33.4966 90.72 33.7699 90.4134 34.0499 90.12C34.9299 89.1467 35.3699 88.4234 35.3699 87.95C35.3699 87.61 35.2499 87.33 35.0099 87.11C34.7699 86.8967 34.4566 86.79 34.07 86.79C33.6833 86.79 33.37 86.8967 33.13 87.11C32.8833 87.33 32.7599 87.62 32.7599 87.98V88.34C32.7599 88.3867 32.7433 88.4267 32.7099 88.46C32.6766 88.4934 32.6366 88.51 32.59 88.51H30.8799C30.8333 88.51 30.7933 88.4934 30.76 88.46C30.72 88.4267 30.7 88.3867 30.7 88.34V87.66C30.7333 87.14 30.9 86.6767 31.2 86.27C31.5 85.87 31.8966 85.5634 32.3899 85.35C32.8899 85.1367 33.45 85.03 34.07 85.03C34.7566 85.03 35.3533 85.16 35.86 85.42C36.3666 85.6734 36.7566 86.0167 37.0299 86.45C37.3099 86.89 37.45 87.3734 37.45 87.9C37.45 88.3067 37.3466 88.7234 37.1399 89.15C36.9399 89.5767 36.6366 90.0367 36.2299 90.53C35.9299 90.9034 35.6066 91.2767 35.2599 91.65C34.9133 92.0167 34.3966 92.5467 33.7099 93.24L33.49 93.46ZM42.3499 95.46C41.2833 95.46 40.4433 95.1634 39.83 94.57C39.21 93.9767 38.9 93.1667 38.9 92.14V88.31C38.9 87.3034 39.21 86.5067 39.83 85.92C40.4433 85.3267 41.2833 85.03 42.3499 85.03C43.4099 85.03 44.2533 85.3267 44.88 85.92C45.5 86.5067 45.81 87.3034 45.81 88.31V92.14C45.81 93.1667 45.5 93.9767 44.88 94.57C44.2533 95.1634 43.4099 95.46 42.3499 95.46ZM42.3499 93.71C42.7833 93.71 43.1266 93.5767 43.38 93.31C43.64 93.0434 43.77 92.6867 43.77 92.24V88.25C43.77 87.81 43.64 87.4567 43.38 87.19C43.1266 86.9234 42.7833 86.79 42.3499 86.79C41.9233 86.79 41.5833 86.9234 41.33 87.19C41.07 87.4567 40.9399 87.81 40.9399 88.25V92.24C40.9399 92.6867 41.07 93.0434 41.33 93.31C41.5833 93.5767 41.9233 93.71 42.3499 93.71ZM49.8699 93.46C49.8499 93.48 49.8466 93.5 49.86 93.52C49.8666 93.54 49.8866 93.55 49.9199 93.55H53.8499C53.8966 93.55 53.9366 93.5667 53.97 93.6C54.0033 93.6334 54.02 93.6734 54.02 93.72V95.13C54.02 95.1767 54.0033 95.2167 53.97 95.25C53.9366 95.2834 53.8966 95.3 53.8499 95.3H47.32C47.2733 95.3 47.2333 95.2834 47.2 95.25C47.1666 95.2167 47.15 95.1767 47.15 95.13V93.79C47.15 93.7034 47.1766 93.63 47.2299 93.57C47.7099 93.11 48.1933 92.6067 48.68 92.06C49.1733 91.5134 49.4833 91.1734 49.61 91.04C49.8833 90.72 50.1599 90.4134 50.4399 90.12C51.3199 89.1467 51.7599 88.4234 51.7599 87.95C51.7599 87.61 51.64 87.33 51.4 87.11C51.1533 86.8967 50.8366 86.79 50.45 86.79C50.0633 86.79 49.7499 86.8967 49.5099 87.11C49.2699 87.33 49.15 87.62 49.15 87.98V88.34C49.15 88.3867 49.1333 88.4267 49.0999 88.46C49.0666 88.4934 49.0233 88.51 48.97 88.51H47.2599C47.2133 88.51 47.1733 88.4934 47.1399 88.46C47.1066 88.4267 47.09 88.3867 47.09 88.34V87.66C47.1166 87.14 47.28 86.6767 47.58 86.27C47.88 85.87 48.2799 85.5634 48.7799 85.35C49.2799 85.1367 49.8366 85.03 50.45 85.03C51.1366 85.03 51.7333 85.16 52.24 85.42C52.7533 85.6734 53.1466 86.0167 53.4199 86.45C53.6933 86.89 53.83 87.3734 53.83 87.9C53.83 88.3067 53.7299 88.7234 53.5299 89.15C53.3233 89.5767 53.0166 90.0367 52.61 90.53C52.31 90.9034 51.9866 91.2767 51.6399 91.65C51.2933 92.0167 50.7766 92.5467 50.09 93.24L49.8699 93.46ZM62.5299 90.88C62.5766 90.88 62.6199 90.8967 62.66 90.93C62.6933 90.9634 62.7099 91.0034 62.7099 91.05V92.52C62.7099 92.5667 62.6933 92.6067 62.66 92.64C62.6199 92.6734 62.5766 92.69 62.5299 92.69H61.91C61.8633 92.69 61.84 92.7134 61.84 92.76V95.13C61.84 95.1767 61.8233 95.2167 61.79 95.25C61.75 95.2834 61.7066 95.3 61.66 95.3H59.97C59.9166 95.3 59.8733 95.2834 59.84 95.25C59.8066 95.2167 59.79 95.1767 59.79 95.13V92.76C59.79 92.7134 59.7666 92.69 59.72 92.69H55.27C55.2233 92.69 55.18 92.6734 55.1399 92.64C55.1066 92.6067 55.09 92.5667 55.09 92.52V91.36C55.09 91.3 55.1066 91.2267 55.1399 91.14L57.75 85.28C57.79 85.1934 57.8566 85.15 57.95 85.15H59.7599C59.8266 85.15 59.8733 85.1667 59.9 85.2C59.9266 85.2334 59.9233 85.2834 59.8899 85.35L57.47 90.79C57.4633 90.81 57.4633 90.83 57.47 90.85C57.4833 90.87 57.5 90.88 57.52 90.88H59.72C59.7666 90.88 59.79 90.8534 59.79 90.8V89.01C59.79 88.9567 59.8066 88.9134 59.84 88.88C59.8733 88.8467 59.9166 88.83 59.97 88.83H61.66C61.7066 88.83 61.75 88.8467 61.79 88.88C61.8233 88.9134 61.84 88.9567 61.84 89.01V90.8C61.84 90.8534 61.8633 90.88 61.91 90.88H62.5299Z" fill="#252530"/>
</svg>
