<svg width="94" height="122" viewBox="0 0 94 122" fill="none" xmlns="http://www.w3.org/2000/svg">
<path d="M8.09998 89.9L47.6 110L85.6 89.9V11.3H8.09998V89.9Z" fill="white"/>
<path d="M86.4 11.6001L7.30005 91.3001L48.3 111.6L86.4 92.1001V11.6001Z" fill="#F2F3F2"/>
<path d="M5.5 37.5V91.6L6.9 92.3L46.4 112.4L47.6 113L48.8 112.4L86.9 92.3L88.3 91.6V8.69995H5.5V37.5ZM8.1 90.1V11.3H85.7V90.1L47.6 110.2L8.1 90.1Z" fill="#DCDEDC"/>
<path d="M46.9001 12.6C47.3001 12.6 47.7 12.6 48.1 12.7L46.9001 15C45.1001 14.9 43.5001 16.3 43.4001 18.1C43.3001 19.9 44.7 21.5 46.5 21.6H46.9001C47.7001 21.6 48.5 21.3 49.1 20.8L50.4001 23C49.4001 23.7 48.2001 24.1 46.9001 24.1C43.7001 24.2 41.0001 21.8 40.9001 18.6C40.8001 15.4 43.2001 12.7 46.4001 12.6H46.9001ZM51 17.5L52.5 20L51 22.4L49.6 20H46.7001L48.2001 17.5H51ZM48.6 16.6C48.6 16.2 48.7001 15.8 48.9001 15.5C49.1001 15.2 49.5 14.9 49.8 14.7L50 14.6C50.4 14.4 50.5 14.3 50.5 14.1C50.5 13.9 50.2 13.7 50 13.7C49.6 13.7 49.3 13.9 49.1 14.3L48.6 13.8C48.7 13.6 48.9 13.4 49.1 13.2C49.4 13 49.7 13 50 13C50.3 13 50.7001 13.1 50.9001 13.3C51.1001 13.5 51.3 13.8 51.3 14.1C51.3 14.6 51.0001 15 50.4001 15.2L50.1 15.4C49.8 15.6 49.6 15.7 49.5 16H51.3V16.7L48.6 16.6ZM46.9001 29.1L56.4001 23.7V8.69995H37.3V23.6L46.9001 29.1Z" fill="#FF492C"/>
<path d="M90.2 64.5H3.60002L0.400024 71.5L3.60002 78.5H90.2L93.3 71.5L90.2 64.5Z" fill="#FFD200"/>
<path d="M22.04 60.12C21.2734 60.12 20.5967 59.97 20.01 59.67C19.4234 59.37 18.97 58.9467 18.65 58.4C18.3234 57.8533 18.16 57.2267 18.16 56.52V49.68C18.16 49.6333 18.1767 49.59 18.21 49.55C18.2434 49.5167 18.2867 49.5 18.34 49.5H20.09C20.1434 49.5 20.1867 49.5167 20.22 49.55C20.26 49.59 20.28 49.6333 20.28 49.68V56.54C20.28 57.0667 20.44 57.4933 20.76 57.82C21.0867 58.1467 21.5134 58.31 22.04 58.31C22.5734 58.31 23.0034 58.1467 23.33 57.82C23.6567 57.4933 23.82 57.0667 23.82 56.54V49.68C23.82 49.6333 23.8367 49.59 23.87 49.55C23.9034 49.5167 23.9434 49.5 23.99 49.5H25.75C25.7967 49.5 25.84 49.5167 25.88 49.55C25.9134 49.59 25.93 49.6333 25.93 49.68V56.52C25.93 57.2267 25.7667 57.8533 25.44 58.4C25.1134 58.9467 24.66 59.37 24.08 59.67C23.4934 59.97 22.8134 60.12 22.04 60.12ZM30.61 60.1C29.9434 60.1 29.36 60.0067 28.86 59.82C28.36 59.6333 27.97 59.37 27.69 59.03C27.4167 58.69 27.28 58.3033 27.28 57.87V57.72C27.28 57.6733 27.2967 57.63 27.33 57.59C27.37 57.5567 27.4134 57.54 27.46 57.54H29.12C29.1734 57.54 29.2167 57.5567 29.25 57.59C29.2834 57.63 29.3 57.6733 29.3 57.72V57.73C29.3 57.9567 29.4234 58.1467 29.67 58.3C29.9167 58.4533 30.2267 58.53 30.6 58.53C30.94 58.53 31.2134 58.4633 31.42 58.33C31.6267 58.19 31.73 58.0233 31.73 57.83C31.73 57.65 31.64 57.5133 31.46 57.42C31.2867 57.3333 30.9934 57.24 30.58 57.14C30.1067 57.02 29.7367 56.9033 29.47 56.79C28.83 56.57 28.32 56.3 27.94 55.98C27.56 55.66 27.37 55.2 27.37 54.6C27.37 53.86 27.6567 53.2733 28.23 52.84C28.81 52.4067 29.5734 52.19 30.52 52.19C31.16 52.19 31.72 52.29 32.2 52.49C32.68 52.6967 33.0534 52.9867 33.32 53.36C33.58 53.7267 33.71 54.1467 33.71 54.62C33.71 54.6667 33.6934 54.7067 33.66 54.74C33.6267 54.7733 33.5834 54.79 33.53 54.79H31.93C31.8834 54.79 31.84 54.7733 31.8 54.74C31.7667 54.7067 31.75 54.6667 31.75 54.62C31.75 54.4 31.6367 54.2133 31.41 54.06C31.19 53.9067 30.8934 53.83 30.52 53.83C30.1934 53.83 29.9234 53.8933 29.71 54.02C29.4967 54.14 29.39 54.3033 29.39 54.51C29.39 54.71 29.4934 54.86 29.7 54.96C29.9067 55.06 30.25 55.1667 30.73 55.28C30.8367 55.3067 30.9634 55.3367 31.11 55.37C31.25 55.4033 31.3967 55.4467 31.55 55.5C32.2634 55.7133 32.8234 55.9833 33.23 56.31C33.6434 56.6433 33.85 57.1233 33.85 57.75C33.85 58.49 33.5567 59.0667 32.97 59.48C32.39 59.8933 31.6034 60.1 30.61 60.1ZM38.14 52.17C38.7934 52.17 39.3734 52.2833 39.88 52.51C40.3867 52.7367 40.7834 53.0433 41.07 53.43C41.3567 53.8233 41.5 54.26 41.5 54.74V59.82C41.5 59.8733 41.4834 59.9167 41.45 59.95C41.41 59.9833 41.3667 60 41.32 60H39.56C39.5134 60 39.4734 59.9833 39.44 59.95C39.4 59.9167 39.38 59.8733 39.38 59.82V59.33C39.38 59.2967 39.3734 59.2767 39.36 59.27C39.3334 59.2567 39.3134 59.2667 39.3 59.3C38.8734 59.8467 38.1967 60.12 37.27 60.12C36.49 60.12 35.86 59.93 35.38 59.55C34.9 59.17 34.66 58.61 34.66 57.87C34.66 57.1033 34.93 56.5067 35.47 56.08C36.01 55.6533 36.78 55.44 37.78 55.44H39.31C39.3567 55.44 39.38 55.4167 39.38 55.37V55.04C39.38 54.7067 39.2834 54.4467 39.09 54.26C38.8834 54.08 38.58 53.99 38.18 53.99C37.8734 53.99 37.6167 54.0433 37.41 54.15C37.21 54.2633 37.08 54.42 37.02 54.62C36.9867 54.7267 36.92 54.7767 36.82 54.77L35 54.53C34.88 54.51 34.8267 54.4633 34.84 54.39C34.88 53.97 35.0467 53.59 35.34 53.25C35.6334 52.91 36.0234 52.6467 36.51 52.46C36.9967 52.2667 37.54 52.17 38.14 52.17ZM37.84 58.55C38.2667 58.55 38.63 58.4333 38.93 58.2C39.23 57.9667 39.38 57.67 39.38 57.31V56.77C39.38 56.7233 39.3567 56.7 39.31 56.7H38.23C37.7767 56.7 37.4234 56.7867 37.17 56.96C36.9167 57.1267 36.79 57.3667 36.79 57.68C36.79 57.9467 36.8834 58.1567 37.07 58.31C37.2634 58.47 37.52 58.55 37.84 58.55ZM49.81 54.25C49.9967 54.7767 50.09 55.4 50.09 56.12C50.09 56.8067 50.0067 57.41 49.84 57.93C49.6067 58.61 49.24 59.1467 48.74 59.54C48.2334 59.9267 47.6367 60.12 46.95 60.12C46.2167 60.12 45.64 59.8467 45.22 59.3C45.2 59.28 45.18 59.27 45.16 59.27C45.14 59.2767 45.13 59.2967 45.13 59.33V59.82C45.13 59.8733 45.1134 59.9167 45.08 59.95C45.04 59.9833 44.9967 60 44.95 60H43.19C43.1434 60 43.1034 59.9833 43.07 59.95C43.03 59.9167 43.01 59.8733 43.01 59.82V49.68C43.01 49.6333 43.03 49.59 43.07 49.55C43.1034 49.5167 43.1434 49.5 43.19 49.5H44.95C44.9967 49.5 45.04 49.5167 45.08 49.55C45.1134 49.59 45.13 49.6333 45.13 49.68V52.89C45.13 52.9233 45.14 52.9433 45.16 52.95C45.18 52.9567 45.2 52.9467 45.22 52.92C45.6067 52.42 46.16 52.17 46.88 52.17C47.6134 52.17 48.2267 52.3567 48.72 52.73C49.2134 53.1033 49.5767 53.61 49.81 54.25ZM47.59 57.66C47.7967 57.28 47.9 56.78 47.9 56.16C47.9 55.4667 47.78 54.9367 47.54 54.57C47.3 54.1833 46.9467 53.99 46.48 53.99C46.04 53.99 45.7034 54.1833 45.47 54.57C45.25 54.95 45.14 55.4767 45.14 56.15C45.14 56.8167 45.24 57.32 45.44 57.66C45.68 58.0933 46.03 58.31 46.49 58.31C46.9834 58.31 47.35 58.0933 47.59 57.66ZM52.62 51.42C52.2734 51.42 51.99 51.3067 51.77 51.08C51.5434 50.86 51.43 50.58 51.43 50.24C51.43 49.8867 51.54 49.6 51.76 49.38C51.98 49.16 52.2667 49.05 52.62 49.05C52.9667 49.05 53.25 49.16 53.47 49.38C53.69 49.6 53.8 49.8867 53.8 50.24C53.8 50.58 53.6867 50.86 53.46 51.08C53.2334 51.3067 52.9534 51.42 52.62 51.42ZM51.72 60C51.6667 60 51.6234 59.9833 51.59 59.95C51.5567 59.9167 51.54 59.8733 51.54 59.82V52.46C51.54 52.4067 51.5567 52.3633 51.59 52.33C51.6234 52.2967 51.6667 52.28 51.72 52.28H53.47C53.5234 52.28 53.5667 52.2967 53.6 52.33C53.6334 52.3633 53.65 52.4067 53.65 52.46V59.82C53.65 59.8733 53.6334 59.9167 53.6 59.95C53.5667 59.9833 53.5234 60 53.47 60H51.72ZM55.48 60C55.4334 60 55.39 59.9833 55.35 59.95C55.3167 59.9167 55.3 59.8733 55.3 59.82V49.68C55.3 49.6333 55.3167 49.59 55.35 49.55C55.39 49.5167 55.4334 49.5 55.48 49.5H57.24C57.2867 49.5 57.3267 49.5167 57.36 49.55C57.4 49.59 57.42 49.6333 57.42 49.68V59.82C57.42 59.8733 57.4 59.9167 57.36 59.95C57.3267 59.9833 57.2867 60 57.24 60H55.48ZM60.1 51.42C59.76 51.42 59.4767 51.3067 59.25 51.08C59.0234 50.86 58.91 50.58 58.91 50.24C58.91 49.8867 59.02 49.6 59.24 49.38C59.4667 49.16 59.7534 49.05 60.1 49.05C60.4467 49.05 60.73 49.16 60.95 49.38C61.17 49.6 61.28 49.8867 61.28 50.24C61.28 50.58 61.17 50.86 60.95 51.08C60.7234 51.3067 60.44 51.42 60.1 51.42ZM59.2 60C59.1467 60 59.1034 59.9833 59.07 59.95C59.0367 59.9167 59.02 59.8733 59.02 59.82V52.46C59.02 52.4067 59.0367 52.3633 59.07 52.33C59.1034 52.2967 59.1467 52.28 59.2 52.28H60.95C61.0034 52.28 61.0467 52.2967 61.08 52.33C61.1134 52.3633 61.13 52.4067 61.13 52.46V59.82C61.13 59.8733 61.1134 59.9167 61.08 59.95C61.0467 59.9833 61.0034 60 60.95 60H59.2ZM67.21 53.81C67.21 53.8567 67.1934 53.8967 67.16 53.93C67.1267 53.97 67.0834 53.99 67.03 53.99H65.59C65.5434 53.99 65.52 54.0133 65.52 54.06V57.24C65.52 57.5667 65.5867 57.8133 65.72 57.98C65.8534 58.14 66.07 58.22 66.37 58.22H66.87C66.9167 58.22 66.9567 58.2367 66.99 58.27C67.03 58.3033 67.05 58.3467 67.05 58.4V59.82C67.05 59.9333 66.99 59.9967 66.87 60.01C66.4434 60.03 66.1434 60.04 65.97 60.04C65.1367 60.04 64.5167 59.9033 64.11 59.63C63.6967 59.3567 63.4867 58.84 63.48 58.08V54.06C63.48 54.0133 63.4534 53.99 63.4 53.99H62.55C62.4967 53.99 62.4534 53.97 62.42 53.93C62.3867 53.8967 62.37 53.8567 62.37 53.81V52.47C62.37 52.4233 62.3867 52.38 62.42 52.34C62.4534 52.3067 62.4967 52.29 62.55 52.29H63.4C63.4534 52.29 63.48 52.2633 63.48 52.21V50.43C63.48 50.3833 63.4967 50.34 63.53 50.3C63.5634 50.2667 63.6067 50.25 63.66 50.25H65.34C65.3867 50.25 65.4267 50.2667 65.46 50.3C65.5 50.34 65.52 50.3833 65.52 50.43V52.21C65.52 52.2633 65.5434 52.29 65.59 52.29H67.03C67.0834 52.29 67.1267 52.3067 67.16 52.34C67.1934 52.38 67.21 52.4233 67.21 52.47V53.81ZM68.44 62.98C68.4134 62.98 68.39 62.9633 68.37 62.93C68.35 62.8967 68.34 62.8533 68.34 62.8V61.43C68.34 61.3767 68.3567 61.3333 68.39 61.3C68.4234 61.26 68.4667 61.24 68.52 61.24C68.94 61.2333 69.27 61.2 69.51 61.14C69.7567 61.08 69.9534 60.9633 70.1 60.79C70.2467 60.6233 70.36 60.3733 70.44 60.04C70.4467 60.02 70.4467 59.9933 70.44 59.96L67.98 52.49C67.9667 52.47 67.96 52.4433 67.96 52.41C67.96 52.3233 68.0167 52.28 68.13 52.28H70C70.1134 52.28 70.1834 52.33 70.21 52.43L71.47 57.29C71.4834 57.3167 71.5 57.33 71.52 57.33C71.54 57.33 71.5534 57.3167 71.56 57.29L72.82 52.43C72.8534 52.33 72.9234 52.28 73.03 52.28H74.86C74.92 52.28 74.9634 52.2967 74.99 52.33C75.0167 52.3633 75.02 52.4167 75 52.49L72.4 60.28C72.1534 61.0133 71.9 61.5633 71.64 61.93C71.38 62.2967 71.0134 62.5633 70.54 62.73C70.0734 62.8967 69.41 62.98 68.55 62.98H68.44ZM38.17 39.53C38.11 39.5567 38.11 39.5867 38.17 39.62C39.1167 40.1067 39.59 40.92 39.59 42.06C39.59 43.0333 39.26 43.7667 38.6 44.26C37.94 44.7533 37.0767 45 36.01 45H32.12C32.0734 45 32.0334 44.9833 32 44.95C31.96 44.9167 31.94 44.8733 31.94 44.82V34.68C31.94 34.6333 31.96 34.59 32 34.55C32.0334 34.5167 32.0734 34.5 32.12 34.5H35.89C38.2567 34.5 39.44 35.46 39.44 37.38C39.44 38.38 39.0167 39.0967 38.17 39.53ZM34.13 36.31C34.0834 36.31 34.06 36.3367 34.06 36.39V38.73C34.06 38.7833 34.0834 38.81 34.13 38.81H35.89C36.3567 38.81 36.7234 38.7 36.99 38.48C37.2434 38.26 37.37 37.96 37.37 37.58C37.37 37.1867 37.2434 36.8767 36.99 36.65C36.7234 36.4233 36.3567 36.31 35.89 36.31H34.13ZM36.01 43.17C36.47 43.17 36.83 43.0533 37.09 42.82C37.35 42.5867 37.48 42.2633 37.48 41.85C37.48 41.4433 37.35 41.12 37.09 40.88C36.83 40.6467 36.4634 40.53 35.99 40.53H34.13C34.0834 40.53 34.06 40.5567 34.06 40.61V43.09C34.06 43.1433 34.0834 43.17 34.13 43.17H36.01ZM47.93 40.35C47.99 40.73 48.01 41.1533 47.99 41.62C47.9834 41.7467 47.92 41.81 47.8 41.81H43.16C43.1 41.81 43.08 41.8333 43.1 41.88C43.1334 42.08 43.19 42.28 43.27 42.48C43.53 43.04 44.06 43.32 44.86 43.32C45.5 43.3133 46.0034 43.0533 46.37 42.54C46.41 42.48 46.4567 42.45 46.51 42.45C46.5367 42.45 46.57 42.47 46.61 42.51L47.69 43.57C47.7434 43.6233 47.77 43.67 47.77 43.71C47.77 43.73 47.75 43.77 47.71 43.83C47.3767 44.2433 46.95 44.56 46.43 44.78C45.9167 45.0067 45.3467 45.12 44.72 45.12C43.86 45.12 43.1334 44.9267 42.54 44.54C41.9467 44.1467 41.52 43.6 41.26 42.9C41.0467 42.4 40.94 41.7467 40.94 40.94C40.94 40.3867 41.0167 39.9 41.17 39.48C41.3967 38.7733 41.8 38.21 42.38 37.79C42.9534 37.37 43.6334 37.16 44.42 37.16C45.42 37.16 46.2234 37.45 46.83 38.03C47.4367 38.61 47.8034 39.3833 47.93 40.35ZM44.44 38.99C43.8067 38.99 43.39 39.2833 43.19 39.87C43.15 40.0033 43.1167 40.1633 43.09 40.35C43.09 40.3967 43.1134 40.42 43.16 40.42H45.76C45.82 40.42 45.84 40.3967 45.82 40.35C45.7667 40.0633 45.74 39.9233 45.74 39.93C45.6534 39.63 45.4967 39.3967 45.27 39.23C45.0434 39.07 44.7667 38.99 44.44 38.99ZM52.27 45.1C51.5967 45.1 51.01 45.0067 50.51 44.82C50.01 44.6333 49.6234 44.37 49.35 44.03C49.0767 43.69 48.94 43.3033 48.94 42.87V42.72C48.94 42.6733 48.9567 42.63 48.99 42.59C49.0234 42.5567 49.0667 42.54 49.12 42.54H50.78C50.8334 42.54 50.8767 42.5567 50.91 42.59C50.9434 42.63 50.96 42.6733 50.96 42.72V42.73C50.96 42.9567 51.0834 43.1467 51.33 43.3C51.5767 43.4533 51.8834 43.53 52.25 43.53C52.59 43.53 52.8667 43.4633 53.08 43.33C53.2867 43.19 53.39 43.0233 53.39 42.83C53.39 42.65 53.3 42.5133 53.12 42.42C52.94 42.3333 52.6467 42.24 52.24 42.14C51.7667 42.02 51.3967 41.9033 51.13 41.79C50.49 41.57 49.98 41.3 49.6 40.98C49.22 40.66 49.03 40.2 49.03 39.6C49.03 38.86 49.3167 38.2733 49.89 37.84C50.4634 37.4067 51.2267 37.19 52.18 37.19C52.82 37.19 53.38 37.29 53.86 37.49C54.34 37.6967 54.7134 37.9867 54.98 38.36C55.24 38.7267 55.37 39.1467 55.37 39.62C55.37 39.6667 55.3534 39.7067 55.32 39.74C55.2867 39.7733 55.2434 39.79 55.19 39.79H53.59C53.5367 39.79 53.4934 39.7733 53.46 39.74C53.4267 39.7067 53.41 39.6667 53.41 39.62C53.41 39.4 53.2967 39.2133 53.07 39.06C52.8434 38.9067 52.5467 38.83 52.18 38.83C51.8467 38.83 51.5767 38.8933 51.37 39.02C51.1567 39.14 51.05 39.3033 51.05 39.51C51.05 39.71 51.1534 39.86 51.36 39.96C51.5667 40.06 51.91 40.1667 52.39 40.28C52.4967 40.3067 52.62 40.3367 52.76 40.37C52.9 40.4033 53.05 40.4467 53.21 40.5C53.9234 40.7133 54.4834 40.9833 54.89 41.31C55.3034 41.6433 55.51 42.1233 55.51 42.75C55.51 43.49 55.2167 44.0667 54.63 44.48C54.0434 44.8933 53.2567 45.1 52.27 45.1ZM61.13 38.81C61.13 38.8567 61.1134 38.8967 61.08 38.93C61.0467 38.97 61.0034 38.99 60.95 38.99H59.51C59.4634 38.99 59.44 39.0133 59.44 39.06V42.24C59.44 42.5667 59.5067 42.8133 59.64 42.98C59.7734 43.14 59.9934 43.22 60.3 43.22H60.79C60.8367 43.22 60.88 43.2367 60.92 43.27C60.9534 43.3033 60.97 43.3467 60.97 43.4V44.82C60.97 44.9333 60.91 44.9967 60.79 45.01C60.37 45.03 60.07 45.04 59.89 45.04C59.0567 45.04 58.4367 44.9033 58.03 44.63C57.6167 44.3567 57.4067 43.84 57.4 43.08V39.06C57.4 39.0133 57.3734 38.99 57.32 38.99H56.47C56.4167 38.99 56.3734 38.97 56.34 38.93C56.3067 38.8967 56.29 38.8567 56.29 38.81V37.47C56.29 37.4233 56.3067 37.38 56.34 37.34C56.3734 37.3067 56.4167 37.29 56.47 37.29H57.32C57.3734 37.29 57.4 37.2633 57.4 37.21V35.43C57.4 35.3833 57.4167 35.34 57.45 35.3C57.4834 35.2667 57.5267 35.25 57.58 35.25H59.26C59.3067 35.25 59.35 35.2667 59.39 35.3C59.4234 35.34 59.44 35.3833 59.44 35.43V37.21C59.44 37.2633 59.4634 37.29 59.51 37.29H60.95C61.0034 37.29 61.0467 37.3067 61.08 37.34C61.1134 37.38 61.13 37.4233 61.13 37.47V38.81Z" fill="#252530"/>
<path d="M16.9 75.48C16.38 75.48 15.9266 75.3967 15.54 75.23C15.1533 75.0634 14.8533 74.83 14.64 74.53C14.4333 74.23 14.33 73.8767 14.33 73.47V73.22C14.33 73.1867 14.3433 73.1567 14.37 73.13C14.39 73.11 14.4166 73.1 14.45 73.1H15.34C15.3733 73.1 15.4033 73.11 15.43 73.13C15.45 73.1567 15.46 73.1867 15.46 73.22V73.41C15.46 73.7167 15.5966 73.97 15.87 74.17C16.1433 74.3767 16.5166 74.48 16.99 74.48C17.3966 74.48 17.7033 74.3934 17.91 74.22C18.1166 74.0467 18.22 73.8234 18.22 73.55C18.22 73.3634 18.1633 73.2034 18.05 73.07C17.9366 72.9434 17.7766 72.8267 17.57 72.72C17.3566 72.6134 17.04 72.48 16.62 72.32C16.1466 72.1467 15.7633 71.9834 15.47 71.83C15.1766 71.6767 14.9333 71.4667 14.74 71.2C14.54 70.94 14.44 70.6134 14.44 70.22C14.44 69.6334 14.6533 69.17 15.08 68.83C15.5066 68.49 16.0766 68.32 16.79 68.32C17.29 68.32 17.7333 68.4067 18.12 68.58C18.5 68.7534 18.7966 68.9967 19.01 69.31C19.2233 69.6167 19.33 69.9734 19.33 70.38V70.55C19.33 70.5834 19.3166 70.6134 19.29 70.64C19.27 70.66 19.2433 70.67 19.21 70.67H18.31C18.2766 70.67 18.25 70.66 18.23 70.64C18.2033 70.6134 18.19 70.5834 18.19 70.55V70.44C18.19 70.1267 18.0633 69.8634 17.81 69.65C17.55 69.43 17.1933 69.32 16.74 69.32C16.3733 69.32 16.09 69.3967 15.89 69.55C15.6833 69.7034 15.58 69.92 15.58 70.2C15.58 70.4 15.6333 70.5634 15.74 70.69C15.8466 70.8167 16.0066 70.93 16.22 71.03C16.4333 71.1367 16.7633 71.27 17.21 71.43C17.6833 71.61 18.0633 71.7734 18.35 71.92C18.63 72.0667 18.8733 72.27 19.08 72.53C19.28 72.7967 19.38 73.1267 19.38 73.52C19.38 74.12 19.1566 74.5967 18.71 74.95C18.27 75.3034 17.6666 75.48 16.9 75.48ZM25.91 70.21C26.4233 70.21 26.8266 70.3634 27.12 70.67C27.4066 70.9834 27.55 71.4167 27.55 71.97V75.28C27.55 75.3134 27.54 75.34 27.52 75.36C27.4933 75.3867 27.4633 75.4 27.43 75.4H26.52C26.4866 75.4 26.46 75.3867 26.44 75.36C26.4133 75.34 26.4 75.3134 26.4 75.28V72.21C26.4 71.9034 26.32 71.66 26.16 71.48C25.9933 71.3 25.7733 71.21 25.5 71.21C25.2266 71.21 25.0033 71.3 24.83 71.48C24.6566 71.66 24.57 71.9 24.57 72.2V75.28C24.57 75.3134 24.56 75.34 24.54 75.36C24.5133 75.3867 24.4833 75.4 24.45 75.4H23.54C23.5066 75.4 23.4766 75.3867 23.45 75.36C23.43 75.34 23.42 75.3134 23.42 75.28V72.21C23.42 71.9034 23.3366 71.66 23.17 71.48C23.0033 71.3 22.7833 71.21 22.51 71.21C22.2566 71.21 22.0466 71.2834 21.88 71.43C21.72 71.5767 21.6266 71.7767 21.6 72.03V75.28C21.6 75.3134 21.59 75.34 21.57 75.36C21.5433 75.3867 21.5133 75.4 21.48 75.4H20.56C20.5266 75.4 20.5 75.3867 20.48 75.36C20.4533 75.34 20.44 75.3134 20.44 75.28V70.41C20.44 70.3767 20.4533 70.3467 20.48 70.32C20.5 70.3 20.5266 70.29 20.56 70.29H21.48C21.5133 70.29 21.5433 70.3 21.57 70.32C21.59 70.3467 21.6 70.3767 21.6 70.41V70.74C21.6 70.76 21.6066 70.7734 21.62 70.78C21.6333 70.7867 21.6466 70.78 21.66 70.76C21.8066 70.5734 21.9866 70.4367 22.2 70.35C22.42 70.2567 22.6633 70.21 22.93 70.21C23.2566 70.21 23.5433 70.2767 23.79 70.41C24.0366 70.5434 24.2266 70.7367 24.36 70.99C24.38 71.0167 24.4033 71.0167 24.43 70.99C24.5766 70.7234 24.78 70.5267 25.04 70.4C25.3 70.2734 25.59 70.21 25.91 70.21ZM30.68 70.21C31.1 70.21 31.47 70.2834 31.79 70.43C32.11 70.5767 32.3566 70.7767 32.53 71.03C32.7033 71.29 32.79 71.5834 32.79 71.91V75.28C32.79 75.3134 32.78 75.34 32.76 75.36C32.7333 75.3867 32.7033 75.4 32.67 75.4H31.75C31.7166 75.4 31.69 75.3867 31.67 75.36C31.6433 75.34 31.63 75.3134 31.63 75.28V74.96C31.63 74.94 31.6233 74.9267 31.61 74.92C31.5966 74.92 31.5833 74.9267 31.57 74.94C31.2433 75.3 30.77 75.48 30.15 75.48C29.65 75.48 29.24 75.3534 28.92 75.1C28.5933 74.8467 28.43 74.47 28.43 73.97C28.43 73.45 28.6133 73.0434 28.98 72.75C29.34 72.4634 29.85 72.32 30.51 72.32H31.58C31.6133 72.32 31.63 72.3034 31.63 72.27V72.03C31.63 71.77 31.5533 71.5667 31.4 71.42C31.2466 71.28 31.0166 71.21 30.71 71.21C30.4566 71.21 30.2533 71.2567 30.1 71.35C29.94 71.4367 29.84 71.56 29.8 71.72C29.78 71.8 29.7333 71.8334 29.66 71.82L28.69 71.7C28.6566 71.6934 28.63 71.6834 28.61 71.67C28.5833 71.65 28.5733 71.6267 28.58 71.6C28.6333 71.1934 28.8533 70.86 29.24 70.6C29.62 70.34 30.1 70.21 30.68 70.21ZM30.44 74.56C30.7666 74.56 31.0466 74.4734 31.28 74.3C31.5133 74.1267 31.63 73.9067 31.63 73.64V73.17C31.63 73.1367 31.6133 73.12 31.58 73.12H30.74C30.3866 73.12 30.11 73.1867 29.91 73.32C29.7033 73.4534 29.6 73.6434 29.6 73.89C29.6 74.1034 29.68 74.2667 29.84 74.38C29.9933 74.5 30.1933 74.56 30.44 74.56ZM34.07 75.4C34.0366 75.4 34.01 75.3867 33.99 75.36C33.9633 75.34 33.95 75.3134 33.95 75.28V68.52C33.95 68.4867 33.9633 68.46 33.99 68.44C34.01 68.4134 34.0366 68.4 34.07 68.4H34.99C35.0233 68.4 35.0533 68.4134 35.08 68.44C35.1 68.46 35.11 68.4867 35.11 68.52V75.28C35.11 75.3134 35.1 75.34 35.08 75.36C35.0533 75.3867 35.0233 75.4 34.99 75.4H34.07ZM36.46 75.4C36.4266 75.4 36.4 75.3867 36.38 75.36C36.3533 75.34 36.34 75.3134 36.34 75.28V68.52C36.34 68.4867 36.3533 68.46 36.38 68.44C36.4 68.4134 36.4266 68.4 36.46 68.4H37.38C37.4133 68.4 37.4433 68.4134 37.47 68.44C37.49 68.46 37.5 68.4867 37.5 68.52V75.28C37.5 75.3134 37.49 75.34 37.47 75.36C37.4433 75.3867 37.4133 75.4 37.38 75.4H36.46ZM44.75 71.75C44.71 71.77 44.71 71.79 44.75 71.81C45.43 72.13 45.77 72.68 45.77 73.46C45.77 74.0934 45.56 74.5767 45.14 74.91C44.7133 75.2367 44.16 75.4 43.48 75.4H40.96C40.9266 75.4 40.9 75.3867 40.88 75.36C40.8533 75.34 40.84 75.3134 40.84 75.28V68.52C40.84 68.4867 40.8533 68.46 40.88 68.44C40.9 68.4134 40.9266 68.4 40.96 68.4H43.4C44.1266 68.4 44.6866 68.5567 45.08 68.87C45.4733 69.1834 45.67 69.6567 45.67 70.29C45.67 70.99 45.3633 71.4767 44.75 71.75ZM42.05 69.4C42.0166 69.4 42 69.4167 42 69.45V71.3C42 71.3334 42.0166 71.35 42.05 71.35H43.4C43.7533 71.35 44.0333 71.2667 44.24 71.1C44.44 70.9267 44.54 70.69 44.54 70.39C44.54 70.0834 44.44 69.84 44.24 69.66C44.0333 69.4867 43.7533 69.4 43.4 69.4H42.05ZM43.48 74.39C43.8266 74.39 44.1033 74.2967 44.31 74.11C44.51 73.9234 44.61 73.67 44.61 73.35C44.61 73.0234 44.5066 72.77 44.3 72.59C44.0933 72.4034 43.8133 72.31 43.46 72.31H42.05C42.0166 72.31 42 72.3267 42 72.36V74.34C42 74.3734 42.0166 74.39 42.05 74.39H43.48ZM49.88 70.41C49.88 70.3767 49.89 70.3467 49.91 70.32C49.9366 70.3 49.9666 70.29 50 70.29H50.91C50.9433 70.29 50.9733 70.3 51 70.32C51.02 70.3467 51.03 70.3767 51.03 70.41V75.28C51.03 75.3134 51.02 75.34 51 75.36C50.9733 75.3867 50.9433 75.4 50.91 75.4H50C49.9666 75.4 49.9366 75.3867 49.91 75.36C49.89 75.34 49.88 75.3134 49.88 75.28V74.96C49.88 74.94 49.8733 74.9267 49.86 74.92C49.8466 74.9134 49.8333 74.92 49.82 74.94C49.5466 75.2934 49.1366 75.47 48.59 75.47C48.0833 75.47 47.66 75.3234 47.32 75.03C46.9733 74.7367 46.8 74.32 46.8 73.78V70.41C46.8 70.3767 46.81 70.3467 46.83 70.32C46.8566 70.3 46.8866 70.29 46.92 70.29H47.84C47.8733 70.29 47.9033 70.3 47.93 70.32C47.95 70.3467 47.96 70.3767 47.96 70.41V73.45C47.96 73.7634 48.0433 74.0134 48.21 74.2C48.37 74.3867 48.5966 74.48 48.89 74.48C49.19 74.48 49.43 74.3867 49.61 74.2C49.79 74.0134 49.88 73.7634 49.88 73.45V70.41ZM54.17 75.46C53.75 75.46 53.38 75.3967 53.06 75.27C52.7466 75.15 52.5033 74.98 52.33 74.76C52.1566 74.5467 52.07 74.3067 52.07 74.04V73.95C52.07 73.9167 52.08 73.8867 52.1 73.86C52.1266 73.84 52.1566 73.83 52.19 73.83H53.07C53.1033 73.83 53.13 73.84 53.15 73.86C53.1766 73.8867 53.19 73.9167 53.19 73.95V73.97C53.19 74.1367 53.28 74.2834 53.46 74.41C53.6466 74.53 53.88 74.59 54.16 74.59C54.4266 74.59 54.6433 74.5367 54.81 74.43C54.9766 74.3167 55.06 74.1767 55.06 74.01C55.06 73.8567 54.99 73.74 54.85 73.66C54.7166 73.5867 54.4966 73.5067 54.19 73.42L53.81 73.3C53.47 73.2 53.1833 73.0934 52.95 72.98C52.7166 72.8667 52.52 72.71 52.36 72.51C52.2 72.3167 52.12 72.0667 52.12 71.76C52.12 71.2934 52.3033 70.9234 52.67 70.65C53.0366 70.37 53.52 70.23 54.12 70.23C54.5266 70.23 54.8833 70.2934 55.19 70.42C55.4966 70.5534 55.7333 70.7334 55.9 70.96C56.0666 71.1934 56.15 71.4567 56.15 71.75C56.15 71.7834 56.1366 71.8134 56.11 71.84C56.09 71.86 56.0633 71.87 56.03 71.87H55.18C55.1466 71.87 55.1166 71.86 55.09 71.84C55.07 71.8134 55.06 71.7834 55.06 71.75C55.06 71.5767 54.9733 71.4334 54.8 71.32C54.6333 71.2 54.4033 71.14 54.11 71.14C53.85 71.14 53.6366 71.1867 53.47 71.28C53.31 71.38 53.23 71.5167 53.23 71.69C53.23 71.85 53.3066 71.97 53.46 72.05C53.62 72.1367 53.8833 72.23 54.25 72.33L54.47 72.39C54.8233 72.4967 55.12 72.6034 55.36 72.71C55.6 72.8234 55.8033 72.9767 55.97 73.17C56.1366 73.37 56.22 73.6267 56.22 73.94C56.22 74.4134 56.0333 74.7834 55.66 75.05C55.2866 75.3234 54.79 75.46 54.17 75.46ZM57.86 69.59C57.6533 69.59 57.4833 69.5234 57.35 69.39C57.2166 69.2567 57.15 69.0867 57.15 68.88C57.15 68.6734 57.2166 68.5034 57.35 68.37C57.4833 68.2367 57.6533 68.17 57.86 68.17C58.0666 68.17 58.2366 68.2367 58.37 68.37C58.5033 68.5034 58.57 68.6734 58.57 68.88C58.57 69.0867 58.5033 69.2567 58.37 69.39C58.2366 69.5234 58.0666 69.59 57.86 69.59ZM57.38 75.4C57.3466 75.4 57.3166 75.3867 57.29 75.36C57.27 75.34 57.26 75.3134 57.26 75.28V70.4C57.26 70.3667 57.27 70.34 57.29 70.32C57.3166 70.2934 57.3466 70.28 57.38 70.28H58.3C58.3333 70.28 58.36 70.2934 58.38 70.32C58.4066 70.34 58.42 70.3667 58.42 70.4V75.28C58.42 75.3134 58.4066 75.34 58.38 75.36C58.36 75.3867 58.3333 75.4 58.3 75.4H57.38ZM62.2 70.21C62.74 70.21 63.17 70.37 63.49 70.69C63.8166 71.01 63.98 71.4467 63.98 72V75.28C63.98 75.3134 63.9666 75.34 63.94 75.36C63.92 75.3867 63.8933 75.4 63.86 75.4H62.94C62.9066 75.4 62.8766 75.3867 62.85 75.36C62.83 75.34 62.82 75.3134 62.82 75.28V72.24C62.82 71.9334 62.7333 71.6834 62.56 71.49C62.3866 71.3034 62.1566 71.21 61.87 71.21C61.5833 71.21 61.35 71.3034 61.17 71.49C60.9966 71.6767 60.91 71.9234 60.91 72.23V75.28C60.91 75.3134 60.8966 75.34 60.87 75.36C60.85 75.3867 60.8233 75.4 60.79 75.4H59.87C59.8366 75.4 59.8066 75.3867 59.78 75.36C59.76 75.34 59.75 75.3134 59.75 75.28V70.41C59.75 70.3767 59.76 70.3467 59.78 70.32C59.8066 70.3 59.8366 70.29 59.87 70.29H60.79C60.8233 70.29 60.85 70.3 60.87 70.32C60.8966 70.3467 60.91 70.3767 60.91 70.41V70.73C60.91 70.75 60.9166 70.7634 60.93 70.77C60.9433 70.7767 60.9533 70.77 60.96 70.75C61.2333 70.39 61.6466 70.21 62.2 70.21ZM69.46 72.27C69.4866 72.4367 69.5 72.6234 69.5 72.83L69.49 73.14C69.49 73.22 69.45 73.26 69.37 73.26H66.24C66.2066 73.26 66.19 73.2767 66.19 73.31C66.21 73.53 66.24 73.68 66.28 73.76C66.44 74.24 66.83 74.4834 67.45 74.49C67.9033 74.49 68.2633 74.3034 68.53 73.93C68.5566 73.89 68.59 73.87 68.63 73.87C68.6566 73.87 68.68 73.88 68.7 73.9L69.32 74.41C69.38 74.4567 69.39 74.51 69.35 74.57C69.1433 74.8634 68.8666 75.09 68.52 75.25C68.18 75.41 67.7999 75.49 67.38 75.49C66.86 75.49 66.4166 75.3734 66.05 75.14C65.69 74.9067 65.4266 74.58 65.26 74.16C65.1066 73.8 65.03 73.3 65.03 72.66C65.03 72.2734 65.07 71.96 65.15 71.72C65.2833 71.2534 65.5333 70.8834 65.9 70.61C66.2733 70.3434 66.72 70.21 67.24 70.21C68.5533 70.21 69.2933 70.8967 69.46 72.27ZM67.24 71.21C66.9933 71.21 66.7866 71.2734 66.62 71.4C66.46 71.52 66.3466 71.69 66.28 71.91C66.24 72.0234 66.2133 72.17 66.2 72.35C66.1866 72.3834 66.2 72.4 66.24 72.4H68.27C68.3033 72.4 68.32 72.3834 68.32 72.35C68.3066 72.1834 68.2866 72.0567 68.26 71.97C68.2 71.73 68.08 71.5434 67.9 71.41C67.7266 71.2767 67.5066 71.21 67.24 71.21ZM72.38 75.46C71.96 75.46 71.59 75.3967 71.27 75.27C70.9566 75.15 70.7133 74.98 70.54 74.76C70.3666 74.5467 70.28 74.3067 70.28 74.04V73.95C70.28 73.9167 70.29 73.8867 70.31 73.86C70.3366 73.84 70.3666 73.83 70.4 73.83H71.28C71.3133 73.83 71.34 73.84 71.36 73.86C71.3866 73.8867 71.4 73.9167 71.4 73.95V73.97C71.4 74.1367 71.49 74.2834 71.67 74.41C71.8566 74.53 72.09 74.59 72.37 74.59C72.6366 74.59 72.8533 74.5367 73.02 74.43C73.1866 74.3167 73.27 74.1767 73.27 74.01C73.27 73.8567 73.2 73.74 73.06 73.66C72.9266 73.5867 72.7066 73.5067 72.4 73.42L72.02 73.3C71.68 73.2 71.3933 73.0934 71.16 72.98C70.9266 72.8667 70.73 72.71 70.57 72.51C70.41 72.3167 70.33 72.0667 70.33 71.76C70.33 71.2934 70.5133 70.9234 70.88 70.65C71.2466 70.37 71.73 70.23 72.33 70.23C72.7366 70.23 73.0933 70.2934 73.4 70.42C73.7066 70.5534 73.9433 70.7334 74.11 70.96C74.2766 71.1934 74.36 71.4567 74.36 71.75C74.36 71.7834 74.3466 71.8134 74.32 71.84C74.3 71.86 74.2733 71.87 74.24 71.87H73.39C73.3566 71.87 73.3266 71.86 73.3 71.84C73.28 71.8134 73.27 71.7834 73.27 71.75C73.27 71.5767 73.1833 71.4334 73.01 71.32C72.8433 71.2 72.6133 71.14 72.32 71.14C72.06 71.14 71.8466 71.1867 71.68 71.28C71.52 71.38 71.44 71.5167 71.44 71.69C71.44 71.85 71.5166 71.97 71.67 72.05C71.83 72.1367 72.0933 72.23 72.46 72.33L72.68 72.39C73.0333 72.4967 73.33 72.6034 73.57 72.71C73.81 72.8234 74.0133 72.9767 74.18 73.17C74.3466 73.37 74.43 73.6267 74.43 73.94C74.43 74.4134 74.2433 74.7834 73.87 75.05C73.4966 75.3234 73 75.46 72.38 75.46ZM77.21 75.46C76.79 75.46 76.42 75.3967 76.1 75.27C75.7866 75.15 75.5433 74.98 75.37 74.76C75.1966 74.5467 75.11 74.3067 75.11 74.04V73.95C75.11 73.9167 75.12 73.8867 75.14 73.86C75.1666 73.84 75.1966 73.83 75.23 73.83H76.11C76.1433 73.83 76.17 73.84 76.19 73.86C76.2166 73.8867 76.23 73.9167 76.23 73.95V73.97C76.23 74.1367 76.32 74.2834 76.5 74.41C76.6866 74.53 76.92 74.59 77.2 74.59C77.4666 74.59 77.6833 74.5367 77.85 74.43C78.0166 74.3167 78.1 74.1767 78.1 74.01C78.1 73.8567 78.03 73.74 77.89 73.66C77.7566 73.5867 77.5366 73.5067 77.23 73.42L76.85 73.3C76.51 73.2 76.2233 73.0934 75.99 72.98C75.7566 72.8667 75.56 72.71 75.4 72.51C75.24 72.3167 75.16 72.0667 75.16 71.76C75.16 71.2934 75.3433 70.9234 75.71 70.65C76.0766 70.37 76.56 70.23 77.16 70.23C77.5666 70.23 77.9233 70.2934 78.23 70.42C78.5366 70.5534 78.7733 70.7334 78.94 70.96C79.1066 71.1934 79.19 71.4567 79.19 71.75C79.19 71.7834 79.1766 71.8134 79.15 71.84C79.13 71.86 79.1033 71.87 79.07 71.87H78.22C78.1866 71.87 78.1566 71.86 78.13 71.84C78.11 71.8134 78.1 71.7834 78.1 71.75C78.1 71.5767 78.0133 71.4334 77.84 71.32C77.6733 71.2 77.4433 71.14 77.15 71.14C76.89 71.14 76.6766 71.1867 76.51 71.28C76.35 71.38 76.27 71.5167 76.27 71.69C76.27 71.85 76.3466 71.97 76.5 72.05C76.66 72.1367 76.9233 72.23 77.29 72.33L77.51 72.39C77.8633 72.4967 78.16 72.6034 78.4 72.71C78.64 72.8234 78.8433 72.9767 79.01 73.17C79.1766 73.37 79.26 73.6267 79.26 73.94C79.26 74.4134 79.0733 74.7834 78.7 75.05C78.3266 75.3234 77.83 75.46 77.21 75.46Z" fill="#242530"/>
<path d="M31.16 89.5C31.0867 89.5 31.04 89.4667 31.02 89.4L29.25 82.63L29.24 82.59C29.24 82.53 29.2767 82.5 29.35 82.5H30.59C30.6567 82.5 30.7 82.5333 30.72 82.6L31.67 86.67C31.6767 86.6967 31.6867 86.71 31.7 86.71C31.7133 86.71 31.7233 86.6967 31.73 86.67L32.65 82.61C32.67 82.5367 32.7133 82.5 32.78 82.5H33.99C34.0633 82.5 34.11 82.5333 34.13 82.6L35.13 86.67C35.1367 86.69 35.1467 86.7033 35.16 86.71C35.1733 86.71 35.1833 86.6967 35.19 86.67L36.11 82.61C36.13 82.5367 36.1733 82.5 36.24 82.5H37.42C37.5133 82.5 37.55 82.5433 37.53 82.63L35.89 89.4C35.87 89.4667 35.8233 89.5 35.75 89.5H34.56C34.4933 89.5 34.45 89.4667 34.43 89.4L33.41 85.07C33.4033 85.0433 33.3933 85.03 33.38 85.03C33.3667 85.03 33.3567 85.0433 33.35 85.07L32.4 89.39C32.3867 89.4633 32.3433 89.5 32.27 89.5H31.16ZM38.5 89.5C38.4667 89.5 38.4367 89.4867 38.41 89.46C38.39 89.44 38.38 89.4133 38.38 89.38V82.62C38.38 82.5867 38.39 82.56 38.41 82.54C38.4367 82.5133 38.4667 82.5 38.5 82.5H39.67C39.7033 82.5 39.73 82.5133 39.75 82.54C39.7767 82.56 39.79 82.5867 39.79 82.62V89.38C39.79 89.4133 39.7767 89.44 39.75 89.46C39.73 89.4867 39.7033 89.5 39.67 89.5H38.5ZM45.03 82.62C45.03 82.5867 45.04 82.56 45.06 82.54C45.0867 82.5133 45.1167 82.5 45.15 82.5H46.32C46.3533 82.5 46.38 82.5133 46.4 82.54C46.4267 82.56 46.44 82.5867 46.44 82.62V89.38C46.44 89.4133 46.4267 89.44 46.4 89.46C46.38 89.4867 46.3533 89.5 46.32 89.5H45.19C45.1233 89.5 45.0767 89.4733 45.05 89.42L42.46 85.14C42.4467 85.12 42.4333 85.1133 42.42 85.12C42.4067 85.12 42.4 85.1333 42.4 85.16L42.42 89.38C42.42 89.4133 42.4067 89.44 42.38 89.46C42.36 89.4867 42.3333 89.5 42.3 89.5H41.13C41.0967 89.5 41.0667 89.4867 41.04 89.46C41.02 89.44 41.01 89.4133 41.01 89.38V82.62C41.01 82.5867 41.02 82.56 41.04 82.54C41.0667 82.5133 41.0967 82.5 41.13 82.5H42.26C42.3267 82.5 42.3733 82.5267 42.4 82.58L44.98 86.84C44.9933 86.86 45.0067 86.8667 45.02 86.86C45.0333 86.86 45.04 86.8467 45.04 86.82L45.03 82.62ZM52.49 82.5C52.5233 82.5 52.55 82.5133 52.57 82.54C52.5967 82.56 52.61 82.5867 52.61 82.62V83.6C52.61 83.6333 52.5967 83.66 52.57 83.68C52.55 83.7067 52.5233 83.72 52.49 83.72H50.7C50.6667 83.72 50.65 83.7367 50.65 83.77V89.38C50.65 89.4133 50.6367 89.44 50.61 89.46C50.59 89.4867 50.5633 89.5 50.53 89.5H49.36C49.3267 89.5 49.2967 89.4867 49.27 89.46C49.25 89.44 49.24 89.4133 49.24 89.38V83.77C49.24 83.7367 49.2233 83.72 49.19 83.72H47.45C47.4167 83.72 47.3867 83.7067 47.36 83.68C47.34 83.66 47.33 83.6333 47.33 83.6V82.62C47.33 82.5867 47.34 82.56 47.36 82.54C47.3867 82.5133 47.4167 82.5 47.45 82.5H52.49ZM58.37 83.59C58.37 83.6233 58.36 83.65 58.34 83.67C58.3133 83.6967 58.2833 83.71 58.25 83.71H54.97C54.9367 83.71 54.92 83.7267 54.92 83.76V85.31C54.92 85.3433 54.9367 85.36 54.97 85.36H57.12C57.1533 85.36 57.18 85.37 57.2 85.39C57.2267 85.4167 57.24 85.4467 57.24 85.48V86.45C57.24 86.4833 57.2267 86.5133 57.2 86.54C57.18 86.56 57.1533 86.57 57.12 86.57H54.97C54.9367 86.57 54.92 86.5867 54.92 86.62V88.24C54.92 88.2733 54.9367 88.29 54.97 88.29H58.25C58.2833 88.29 58.3133 88.3 58.34 88.32C58.36 88.3467 58.37 88.3767 58.37 88.41V89.38C58.37 89.4133 58.36 89.44 58.34 89.46C58.3133 89.4867 58.2833 89.5 58.25 89.5H53.63C53.5967 89.5 53.5667 89.4867 53.54 89.46C53.52 89.44 53.51 89.4133 53.51 89.38V82.62C53.51 82.5867 53.52 82.56 53.54 82.54C53.5667 82.5133 53.5967 82.5 53.63 82.5H58.25C58.2833 82.5 58.3133 82.5133 58.34 82.54C58.36 82.56 58.37 82.5867 58.37 82.62V83.59ZM63.19 89.5C63.1233 89.5 63.0767 89.47 63.05 89.41L61.8 86.64C61.7867 86.6133 61.7667 86.6 61.74 86.6H60.81C60.7767 86.6 60.76 86.6167 60.76 86.65V89.38C60.76 89.4133 60.7467 89.44 60.72 89.46C60.7 89.4867 60.6733 89.5 60.64 89.5H59.47C59.4367 89.5 59.4067 89.4867 59.38 89.46C59.36 89.44 59.35 89.4133 59.35 89.38V82.62C59.35 82.5867 59.36 82.56 59.38 82.54C59.4067 82.5133 59.4367 82.5 59.47 82.5H62.33C62.7567 82.5 63.13 82.5867 63.45 82.76C63.7767 82.9333 64.0267 83.18 64.2 83.5C64.38 83.82 64.47 84.19 64.47 84.61C64.47 85.0633 64.3567 85.45 64.13 85.77C63.9033 86.0967 63.5867 86.3267 63.18 86.46C63.1467 86.4733 63.1367 86.4967 63.15 86.53L64.51 89.36C64.5233 89.3867 64.53 89.4067 64.53 89.42C64.53 89.4733 64.4933 89.5 64.42 89.5H63.19ZM60.81 83.71C60.7767 83.71 60.76 83.7267 60.76 83.76V85.47C60.76 85.5033 60.7767 85.52 60.81 85.52H62.12C62.4 85.52 62.6267 85.4367 62.8 85.27C62.98 85.1033 63.07 84.8867 63.07 84.62C63.07 84.3533 62.98 84.1333 62.8 83.96C62.6267 83.7933 62.4 83.71 62.12 83.71H60.81ZM37.68 97.63C37.6667 97.6433 37.6633 97.6567 37.67 97.67C37.6767 97.6833 37.69 97.69 37.71 97.69H40.42C40.4533 97.69 40.4833 97.7 40.51 97.72C40.53 97.7467 40.54 97.7767 40.54 97.81V98.78C40.54 98.8133 40.53 98.84 40.51 98.86C40.4833 98.8867 40.4533 98.9 40.42 98.9H35.92C35.8867 98.9 35.8567 98.8867 35.83 98.86C35.81 98.84 35.8 98.8133 35.8 98.78V97.86C35.8 97.8 35.82 97.75 35.86 97.71C36.1867 97.39 36.52 97.0433 36.86 96.67C37.2 96.29 37.4133 96.0533 37.5 95.96C37.6867 95.74 37.8767 95.53 38.07 95.33C38.6767 94.6567 38.98 94.1567 38.98 93.83C38.98 93.5967 38.8967 93.4033 38.73 93.25C38.5633 93.1033 38.3467 93.03 38.08 93.03C37.8133 93.03 37.5967 93.1033 37.43 93.25C37.2633 93.4033 37.18 93.6033 37.18 93.85V94.1C37.18 94.1333 37.1667 94.1633 37.14 94.19C37.12 94.21 37.0933 94.22 37.06 94.22H35.88C35.8467 94.22 35.82 94.21 35.8 94.19C35.7733 94.1633 35.76 94.1333 35.76 94.1V93.63C35.78 93.27 35.8933 92.95 36.1 92.67C36.3067 92.3967 36.58 92.1867 36.92 92.04C37.2667 91.8933 37.6533 91.82 38.08 91.82C38.5533 91.82 38.9667 91.9067 39.32 92.08C39.6667 92.26 39.9367 92.5 40.13 92.8C40.3167 93.1 40.41 93.4333 40.41 93.8C40.41 94.08 40.34 94.3667 40.2 94.66C40.06 94.9533 39.85 95.27 39.57 95.61C39.3633 95.87 39.14 96.1267 38.9 96.38C38.66 96.6333 38.3033 97 37.83 97.48L37.68 97.63ZM43.79 99.01C43.0567 99.01 42.4767 98.8033 42.05 98.39C41.6233 97.9833 41.41 97.4267 41.41 96.72V94.08C41.41 93.3867 41.6233 92.8367 42.05 92.43C42.4767 92.0233 43.0567 91.82 43.79 91.82C44.5233 91.82 45.1067 92.0233 45.54 92.43C45.9667 92.8367 46.18 93.3867 46.18 94.08V96.72C46.18 97.4267 45.9667 97.9833 45.54 98.39C45.1067 98.8033 44.5233 99.01 43.79 99.01ZM43.79 97.8C44.09 97.8 44.33 97.7067 44.51 97.52C44.6833 97.34 44.77 97.0967 44.77 96.79V94.04C44.77 93.7333 44.6833 93.49 44.51 93.31C44.33 93.1233 44.09 93.03 43.79 93.03C43.4967 93.03 43.2633 93.1233 43.09 93.31C42.91 93.49 42.82 93.7333 42.82 94.04V96.79C42.82 97.0967 42.91 97.34 43.09 97.52C43.2633 97.7067 43.4967 97.8 43.79 97.8ZM48.98 97.63C48.9667 97.6433 48.9633 97.6567 48.97 97.67C48.9767 97.6833 48.99 97.69 49.01 97.69H51.72C51.7533 97.69 51.7833 97.7 51.81 97.72C51.83 97.7467 51.84 97.7767 51.84 97.81V98.78C51.84 98.8133 51.83 98.84 51.81 98.86C51.7833 98.8867 51.7533 98.9 51.72 98.9H47.22C47.1867 98.9 47.16 98.8867 47.14 98.86C47.1133 98.84 47.1 98.8133 47.1 98.78V97.86C47.1 97.8 47.12 97.75 47.16 97.71C47.4867 97.39 47.82 97.0433 48.16 96.67C48.5 96.29 48.7133 96.0533 48.8 95.96C48.9867 95.74 49.1767 95.53 49.37 95.33C49.9767 94.6567 50.28 94.1567 50.28 93.83C50.28 93.5967 50.1967 93.4033 50.03 93.25C49.8633 93.1033 49.6467 93.03 49.38 93.03C49.1133 93.03 48.8967 93.1033 48.73 93.25C48.5633 93.4033 48.48 93.6033 48.48 93.85V94.1C48.48 94.1333 48.47 94.1633 48.45 94.19C48.4233 94.21 48.3933 94.22 48.36 94.22H47.18C47.1467 94.22 47.12 94.21 47.1 94.19C47.0733 94.1633 47.06 94.1333 47.06 94.1V93.63C47.08 93.27 47.1933 92.95 47.4 92.67C47.6067 92.3967 47.8833 92.1867 48.23 92.04C48.57 91.8933 48.9533 91.82 49.38 91.82C49.8533 91.82 50.2667 91.9067 50.62 92.08C50.9667 92.26 51.2367 92.5 51.43 92.8C51.6167 93.1 51.71 93.4333 51.71 93.8C51.71 94.08 51.64 94.3667 51.5 94.66C51.36 94.9533 51.15 95.27 50.87 95.61C50.6633 95.87 50.44 96.1267 50.2 96.38C49.96 96.6333 49.6033 97 49.13 97.48L48.98 97.63ZM57.71 95.85C57.7433 95.85 57.7733 95.86 57.8 95.88C57.82 95.9067 57.83 95.9367 57.83 95.97V96.98C57.83 97.0133 57.82 97.0433 57.8 97.07C57.7733 97.09 57.7433 97.1 57.71 97.1H57.28C57.2467 97.1 57.23 97.1167 57.23 97.15V98.78C57.23 98.8133 57.22 98.84 57.2 98.86C57.1733 98.8867 57.1433 98.9 57.11 98.9H55.94C55.9067 98.9 55.88 98.8867 55.86 98.86C55.8333 98.84 55.82 98.8133 55.82 98.78V97.15C55.82 97.1167 55.8033 97.1 55.77 97.1H52.7C52.6667 97.1 52.64 97.09 52.62 97.07C52.5933 97.0433 52.58 97.0133 52.58 96.98V96.18C52.58 96.14 52.59 96.09 52.61 96.03L54.41 91.99C54.4367 91.93 54.4833 91.9 54.55 91.9H55.8C55.8467 91.9 55.88 91.9133 55.9 91.94C55.9133 91.96 55.91 91.9933 55.89 92.04L54.22 95.79C54.2133 95.8033 54.2133 95.8167 54.22 95.83C54.2267 95.8433 54.2367 95.85 54.25 95.85H55.77C55.8033 95.85 55.82 95.8333 55.82 95.8V94.56C55.82 94.5267 55.8333 94.5 55.86 94.48C55.88 94.4533 55.9067 94.44 55.94 94.44H57.11C57.1433 94.44 57.1733 94.4533 57.2 94.48C57.22 94.5 57.23 94.5267 57.23 94.56V95.8C57.23 95.8333 57.2467 95.85 57.28 95.85H57.71Z" fill="#252530"/>
</svg>
