<svg xmlns="http://www.w3.org/2000/svg" width="235" height="93" fill="none"><g clip-path="url(#a)"><path fill="#fff" d="M6.704 68.53 36.96 83.852 66.066 68.53V8.614H6.704V68.53Z"/><path fill="#F2F3F2" d="M66.678 8.842 6.091 69.597l31.404 15.475 29.183-14.865V8.842Z"/><path fill="#DCDEDC" d="M4.713 28.586v41.24l1.072.534 30.256 15.322.919.458.919-.458L67.062 70.36l1.072-.533V6.632H4.713v21.954Zm1.991 40.097V8.614h59.439v60.07L36.96 84.004 6.704 68.683Z"/><path fill="#FF492C" d="M36.423 9.605c.307 0 .613 0 .92.076l-.92 1.754c-1.378-.076-2.604.99-2.68 2.363-.077 1.372.995 2.592 2.374 2.668h.306c.613 0 1.226-.229 1.686-.61l.995 1.677a4.658 4.658 0 0 1-2.68.839c-2.452.076-4.52-1.754-4.596-4.193-.077-2.44 1.762-4.497 4.213-4.574h.383Zm3.14 3.736 1.15 1.905-1.15 1.83-1.071-1.83H36.27l1.15-1.905h2.144Zm-1.837-.686c0-.305.076-.61.23-.84.153-.228.459-.456.689-.609l.153-.076c.306-.153.383-.229.383-.381 0-.153-.23-.305-.383-.305-.306 0-.536.152-.69.457l-.382-.381c.076-.152.23-.305.383-.457.23-.153.46-.153.689-.153.23 0 .536.076.69.229.153.152.306.381.306.61 0 .38-.23.686-.69.838l-.23.153c-.23.152-.382.228-.459.457h1.379v.534l-2.068-.076Zm-1.303 9.528 7.277-4.116V6.632H29.07v11.359l7.353 4.192Z"/><path fill="#FFD200" d="M69.589 49.168H3.257L.806 54.504l2.45 5.336H69.59l2.374-5.336-2.374-5.336Z"/><path fill="#252530" d="M17.382 45.83c-.587 0-1.106-.115-1.555-.344a2.487 2.487 0 0 1-1.041-.968 2.73 2.73 0 0 1-.376-1.433v-5.214a.15.15 0 0 1 .038-.1.135.135 0 0 1 .1-.037h1.34c.041 0 .075.012.1.038.03.03.046.063.046.099v5.23c0 .4.123.726.368.975.25.25.577.374.98.374.409 0 .738-.125.988-.374s.375-.574.375-.976v-5.229a.15.15 0 0 1 .039-.1.125.125 0 0 1 .092-.037h1.348c.035 0 .069.012.1.038a.15.15 0 0 1 .038.099v5.214a2.73 2.73 0 0 1-.376 1.433c-.25.417-.597.74-1.041.968-.45.229-.97.343-1.563.343Zm6.564-.016c-.51 0-.957-.071-1.34-.213-.383-.143-.682-.343-.896-.603a1.37 1.37 0 0 1-.314-.884V44c0-.036.012-.069.038-.1a.153.153 0 0 1 .1-.037h1.271c.04 0 .074.012.1.038.025.03.038.063.038.099v.007c0 .173.094.318.283.435.19.117.427.175.713.175.26 0 .47-.05.628-.152.158-.107.237-.234.237-.381 0-.138-.069-.242-.207-.313-.132-.066-.357-.137-.674-.213a6.133 6.133 0 0 1-.85-.267c-.49-.168-.88-.374-1.172-.618-.29-.244-.436-.594-.436-1.052 0-.564.22-1.01.658-1.341.445-.33 1.03-.496 1.754-.496.49 0 .92.077 1.287.229.368.157.654.379.858.663.2.28.299.6.299.96a.125.125 0 0 1-.039.092.135.135 0 0 1-.1.038h-1.225a.153.153 0 0 1-.1-.038.125.125 0 0 1-.037-.091c0-.168-.087-.31-.26-.427-.17-.117-.397-.175-.683-.175-.25 0-.457.048-.62.144-.163.092-.245.216-.245.374 0 .152.079.267.237.343.159.076.422.157.79.244.08.02.178.043.29.068.107.026.22.059.337.1.547.162.976.368 1.287.617.317.254.475.62.475 1.098 0 .564-.225 1.003-.674 1.318-.444.316-1.047.473-1.808.473Zm5.768-6.045c.5 0 .945.087 1.333.26.388.172.692.406.911.7.22.3.33.633.33 1V45.6c0 .04-.013.073-.039.099a.153.153 0 0 1-.1.038h-1.347a.126.126 0 0 1-.092-.038.123.123 0 0 1-.046-.1v-.373c0-.025-.005-.04-.016-.046-.02-.01-.035-.002-.046.023-.326.417-.845.625-1.554.625-.598 0-1.08-.145-1.448-.434-.368-.29-.552-.717-.552-1.28 0-.585.207-1.04.62-1.365.415-.326 1.004-.488 1.77-.488h1.172c.036 0 .054-.018.054-.054v-.251c0-.254-.074-.452-.222-.595-.159-.137-.391-.206-.697-.206-.235 0-.432.041-.59.122a.605.605 0 0 0-.299.359c-.025.081-.077.12-.153.114l-1.394-.183c-.092-.015-.133-.05-.123-.107.031-.32.159-.61.383-.869.225-.259.524-.46.896-.602a3.371 3.371 0 0 1 1.249-.22Zm-.23 4.864c.327 0 .605-.09.835-.267a.823.823 0 0 0 .345-.679v-.411c0-.036-.018-.054-.054-.054h-.827c-.347 0-.618.066-.812.198a.617.617 0 0 0-.291.55c0 .203.071.363.214.48.149.121.345.182.59.182Zm9.169-3.278c.143.401.214.876.214 1.425 0 .524-.064.983-.191 1.38-.179.518-.46.927-.843 1.227-.388.295-.845.442-1.37.442-.563 0-1.004-.208-1.326-.625-.015-.015-.03-.023-.046-.023-.015.005-.023.02-.023.046v.374c0 .04-.013.073-.038.099a.153.153 0 0 1-.1.038h-1.348a.126.126 0 0 1-.092-.038.122.122 0 0 1-.046-.1v-7.729c0-.036.015-.069.046-.1a.125.125 0 0 1 .092-.037h1.348c.036 0 .07.012.1.038a.15.15 0 0 1 .038.099v2.447c0 .025.008.04.023.046.015.005.03-.003.046-.023.296-.381.72-.572 1.271-.572.562 0 1.032.142 1.41.427.378.285.656.67.835 1.159Zm-1.7 2.6c.158-.29.237-.672.237-1.144 0-.529-.092-.933-.276-1.212-.184-.295-.455-.443-.812-.443a.854.854 0 0 0-.773.443c-.17.29-.253.69-.253 1.204 0 .508.076.892.23 1.151.183.33.451.496.804.496a.903.903 0 0 0 .842-.496Zm3.852-4.758a.87.87 0 0 1-.651-.259.852.852 0 0 1-.26-.64c0-.27.084-.488.252-.656.169-.167.388-.251.659-.251.266 0 .483.084.651.251a.884.884 0 0 1 .253.656c0 .259-.087.472-.26.64a.876.876 0 0 1-.644.26Zm-.69 6.54a.135.135 0 0 1-.099-.037.134.134 0 0 1-.038-.1v-5.61c0-.04.013-.074.038-.099a.135.135 0 0 1 .1-.038h1.34c.041 0 .074.013.1.038a.134.134 0 0 1 .038.1v5.61c0 .04-.013.073-.038.099a.135.135 0 0 1-.1.038h-1.34Zm2.88 0a.153.153 0 0 1-.099-.037.134.134 0 0 1-.038-.1v-7.729c0-.036.013-.069.038-.1a.152.152 0 0 1 .1-.037h1.348c.035 0 .066.012.092.038.03.03.046.063.046.099v7.73c0 .04-.016.073-.046.099a.126.126 0 0 1-.092.038h-1.348Zm3.54-6.54a.886.886 0 0 1-.652-.259.852.852 0 0 1-.26-.64c0-.27.084-.488.253-.656a.91.91 0 0 1 .658-.251c.266 0 .483.084.651.251a.884.884 0 0 1 .253.656c0 .259-.084.472-.253.64a.886.886 0 0 1-.65.26Zm-.69 6.54a.135.135 0 0 1-.1-.037.133.133 0 0 1-.038-.1v-5.61c0-.04.013-.074.038-.099a.135.135 0 0 1 .1-.038h1.34c.041 0 .075.013.1.038a.134.134 0 0 1 .038.1v5.61c0 .04-.012.073-.038.099a.135.135 0 0 1-.1.038h-1.34Zm6.135-4.718a.125.125 0 0 1-.038.092.124.124 0 0 1-.1.045H50.74c-.036 0-.054.018-.054.054v2.424c0 .249.051.437.153.564.102.122.268.183.498.183h.383c.036 0 .066.013.092.038.03.026.046.059.046.1V45.6c0 .086-.046.134-.138.145-.327.015-.557.022-.69.022-.638 0-1.113-.104-1.424-.312-.317-.209-.477-.602-.483-1.182V41.21c0-.036-.02-.054-.06-.054h-.652a.124.124 0 0 1-.1-.045.125.125 0 0 1-.038-.092v-1.021c0-.036.013-.069.038-.1a.135.135 0 0 1 .1-.038h.651c.04 0 .061-.02.061-.06v-1.357c0-.036.013-.069.039-.1a.135.135 0 0 1 .1-.038h1.286c.036 0 .066.013.092.039.03.03.046.063.046.099V39.8c0 .04.018.06.053.06h1.104c.04 0 .073.013.1.039.025.03.037.063.037.099v1.021Zm.943 6.99c-.02 0-.039-.012-.054-.038a.19.19 0 0 1-.023-.099v-1.044c0-.04.013-.074.038-.1a.124.124 0 0 1 .1-.045c.322-.005.574-.03.758-.076a.831.831 0 0 0 .452-.267c.112-.127.2-.318.26-.572a.122.122 0 0 0 0-.06l-1.884-5.695a.107.107 0 0 1-.015-.061c0-.066.043-.1.13-.1h1.432c.087 0 .14.039.161.115l.965 3.705c.01.02.023.03.039.03.015 0 .025-.01.03-.03l.965-3.705c.026-.076.08-.114.161-.114h1.402c.046 0 .08.013.1.038.02.025.023.066.007.122l-1.991 5.938c-.19.56-.383.979-.582 1.258-.2.28-.48.483-.843.61-.357.127-.865.19-1.524.19h-.084ZM29.736 30.135c-.046.02-.046.043 0 .068.725.371 1.088.991 1.088 1.86 0 .742-.253 1.301-.759 1.677-.505.376-1.166.564-1.983.564h-2.98a.126.126 0 0 1-.092-.038.123.123 0 0 1-.046-.099v-7.73c0-.035.015-.068.046-.099a.126.126 0 0 1 .092-.038h2.888c1.812 0 2.719.732 2.719 2.196 0 .762-.325 1.308-.973 1.639Zm-3.095-2.455c-.035 0-.053.02-.053.061v1.784c0 .04.018.06.053.06h1.349c.357 0 .638-.083.842-.25.194-.168.291-.397.291-.687 0-.3-.097-.536-.29-.709-.205-.172-.486-.259-.843-.259h-1.349Zm1.44 5.23c.353 0 .629-.09.828-.267.199-.178.299-.425.299-.74 0-.31-.1-.556-.3-.74-.198-.177-.48-.266-.842-.266h-1.425c-.035 0-.053.02-.053.06v1.891c0 .041.018.061.053.061h1.44Zm9.13-2.15c.047.29.062.612.047.968-.005.096-.054.145-.146.145H33.56c-.046 0-.061.018-.046.053.026.152.07.305.13.457.2.427.605.64 1.218.64.49-.004.876-.203 1.157-.594.03-.046.066-.068.107-.068.02 0 .046.015.077.045l.827.808c.04.041.061.077.061.107 0 .015-.015.046-.046.091a2.47 2.47 0 0 1-.98.725c-.393.172-.83.259-1.31.259-.659 0-1.215-.148-1.67-.442a2.502 2.502 0 0 1-.98-1.25c-.164-.382-.245-.88-.245-1.495 0-.421.058-.792.176-1.112.174-.54.482-.969.927-1.289.439-.32.96-.48 1.562-.48.766 0 1.382.221 1.846.663.465.442.746 1.032.843 1.769Zm-2.673-1.037c-.485 0-.804.224-.957.67a2.52 2.52 0 0 0-.077.367c0 .035.018.053.054.053h1.992c.045 0 .06-.018.045-.053-.04-.219-.06-.326-.06-.32a.974.974 0 0 0-.36-.534 1.078 1.078 0 0 0-.637-.183Zm5.998 4.658c-.516 0-.965-.072-1.348-.214-.383-.142-.68-.343-.889-.602a1.369 1.369 0 0 1-.314-.884v-.115c0-.035.013-.068.039-.099a.135.135 0 0 1 .1-.038h1.27c.041 0 .075.013.1.038.026.03.039.064.039.1v.007c0 .173.094.318.283.434.189.117.424.176.705.176.26 0 .472-.051.635-.153.159-.106.238-.233.238-.38 0-.138-.07-.242-.207-.313a3.776 3.776 0 0 0-.674-.214 6.122 6.122 0 0 1-.85-.267c-.49-.167-.881-.373-1.172-.617-.291-.244-.437-.595-.437-1.052 0-.564.22-1.011.659-1.342.44-.33 1.024-.495 1.754-.495.49 0 .92.076 1.287.229.367.157.653.378.858.663.199.28.298.6.298.96a.124.124 0 0 1-.038.092.135.135 0 0 1-.1.038h-1.225a.135.135 0 0 1-.1-.038.124.124 0 0 1-.038-.092c0-.167-.087-.31-.26-.427-.174-.116-.401-.175-.682-.175-.255 0-.462.048-.62.145-.164.091-.245.216-.245.373 0 .153.079.267.237.343.158.077.421.158.789.244.082.02.176.044.283.069a4.1 4.1 0 0 1 .345.1c.546.162.975.367 1.287.617.316.254.475.62.475 1.097 0 .564-.225 1.004-.674 1.319-.45.315-1.052.473-1.808.473Zm6.786-4.795a.124.124 0 0 1-.038.091.124.124 0 0 1-.1.046h-1.102c-.036 0-.054.018-.054.053V32.2c0 .248.05.436.153.564.102.121.27.182.506.182h.375c.036 0 .069.013.1.039a.134.134 0 0 1 .038.099v1.082c0 .087-.046.135-.138.145a16.57 16.57 0 0 1-.69.023c-.638 0-1.113-.104-1.424-.313-.317-.208-.478-.602-.483-1.181v-3.065c0-.035-.02-.053-.061-.053h-.651a.124.124 0 0 1-.1-.046.125.125 0 0 1-.038-.091v-1.022c0-.035.013-.068.038-.099a.135.135 0 0 1 .1-.038h.651c.04 0 .061-.02.061-.06v-1.358c0-.035.013-.068.039-.099a.135.135 0 0 1 .1-.038h1.286c.036 0 .069.013.1.038.025.03.038.064.038.1v1.356c0 .04.018.061.053.061h1.103c.041 0 .075.013.1.038.026.03.038.064.038.1v1.02Z"/><path fill="#242530" d="M13.444 57.538c-.398 0-.745-.063-1.042-.19a1.595 1.595 0 0 1-.689-.534 1.384 1.384 0 0 1-.237-.808v-.19c0-.026.01-.049.03-.07a.083.083 0 0 1 .062-.022h.681c.026 0 .049.008.07.023a.11.11 0 0 1 .022.068v.145c0 .234.105.427.314.58.21.157.495.236.858.236.312 0 .546-.066.705-.198a.635.635 0 0 0 .237-.511.544.544 0 0 0-.13-.366 1.267 1.267 0 0 0-.368-.267 8.57 8.57 0 0 0-.727-.305 7.59 7.59 0 0 1-.881-.373 1.59 1.59 0 0 1-.56-.48c-.153-.199-.23-.448-.23-.748 0-.447.164-.8.491-1.06.327-.258.763-.388 1.31-.388.383 0 .722.066 1.019.198.29.133.518.318.681.557.164.234.245.505.245.816v.13c0 .025-.01.047-.03.068a.083.083 0 0 1-.062.023h-.689a.083.083 0 0 1-.061-.023.095.095 0 0 1-.03-.069v-.084a.756.756 0 0 0-.292-.602c-.199-.168-.472-.252-.82-.252-.28 0-.497.059-.65.176a.58.58 0 0 0-.238.495c0 .153.04.277.123.374.081.096.204.183.367.259.164.081.416.183.758.305.363.137.654.262.874.373.214.112.4.267.559.465.153.204.23.455.23.755 0 .458-.171.82-.513 1.09-.338.27-.8.404-1.387.404Zm6.901-4.017c.394 0 .703.117.927.35.22.24.33.57.33.991v2.524a.082.082 0 0 1-.023.06.095.095 0 0 1-.07.031h-.696a.073.073 0 0 1-.062-.03.072.072 0 0 1-.03-.061v-2.34c0-.234-.062-.42-.184-.557a.658.658 0 0 0-.506-.206c-.209 0-.38.069-.513.206-.133.137-.199.32-.199.549v2.348a.082.082 0 0 1-.023.06.095.095 0 0 1-.069.031h-.697a.095.095 0 0 1-.069-.03.082.082 0 0 1-.023-.061v-2.34c0-.234-.064-.42-.191-.557a.658.658 0 0 0-.506-.206.706.706 0 0 0-.482.168.692.692 0 0 0-.215.457v2.478a.082.082 0 0 1-.023.06.095.095 0 0 1-.069.031h-.705a.073.073 0 0 1-.06-.03.072.072 0 0 1-.031-.061v-3.713c0-.025.01-.048.03-.068a.083.083 0 0 1 .061-.023h.705c.026 0 .049.008.07.023.014.02.022.043.022.068v.252c0 .015.005.025.015.03.01.006.02 0 .031-.015a.995.995 0 0 1 .414-.312c.168-.072.355-.107.559-.107.25 0 .47.05.659.152.188.102.334.25.436.442.015.02.033.02.054 0 .112-.203.268-.353.467-.45.2-.096.421-.144.666-.144Zm3.654 0c.322 0 .605.056.85.168.245.111.434.264.567.457.133.198.2.422.2.67v2.57a.082.082 0 0 1-.024.06.095.095 0 0 1-.069.031h-.704a.073.073 0 0 1-.062-.03.072.072 0 0 1-.03-.061v-.244c0-.015-.006-.026-.016-.03-.01 0-.02.004-.03.015-.25.274-.613.411-1.088.411-.383 0-.697-.096-.942-.29-.25-.193-.375-.48-.375-.86 0-.397.14-.707.42-.93.277-.22.667-.329 1.173-.329h.82c.025 0 .038-.012.038-.038v-.183c0-.198-.06-.353-.177-.465-.117-.106-.293-.16-.528-.16a.896.896 0 0 0-.467.107.434.434 0 0 0-.23.282c-.015.061-.051.086-.107.076l-.743-.091a.173.173 0 0 1-.062-.023c-.02-.015-.028-.033-.023-.053.041-.31.21-.565.506-.763.291-.198.659-.297 1.103-.297Zm-.184 3.316c.25 0 .465-.066.644-.198a.602.602 0 0 0 .268-.503v-.359c0-.025-.013-.038-.039-.038h-.643c-.27 0-.483.051-.636.153a.487.487 0 0 0-.237.434c0 .163.061.287.184.374.117.091.27.137.46.137Zm2.78.64a.073.073 0 0 1-.06-.03.072.072 0 0 1-.031-.061v-5.153c0-.026.01-.046.03-.061a.073.073 0 0 1 .062-.03h.704c.026 0 .049.01.07.03a.082.082 0 0 1 .022.06v5.154a.082.082 0 0 1-.023.06.095.095 0 0 1-.069.031h-.704Zm1.831 0a.073.073 0 0 1-.061-.03.072.072 0 0 1-.03-.061v-5.153c0-.026.01-.046.03-.061a.073.073 0 0 1 .061-.03h.705c.025 0 .048.01.069.03a.082.082 0 0 1 .023.06v5.154a.082.082 0 0 1-.023.06.095.095 0 0 1-.07.031h-.704Zm6.35-2.782c-.03.015-.03.03 0 .046.52.243.781.663.781 1.257 0 .483-.16.852-.482 1.106-.327.249-.75.373-1.272.373h-1.93a.073.073 0 0 1-.061-.03.072.072 0 0 1-.03-.061v-5.153c0-.026.01-.046.03-.061a.073.073 0 0 1 .061-.03h1.869c.557 0 .986.119 1.287.357.301.24.452.6.452 1.083 0 .533-.235.904-.705 1.113Zm-2.068-1.792c-.026 0-.038.013-.038.039v1.41c0 .025.012.038.038.038h1.034c.27 0 .485-.064.643-.19a.677.677 0 0 0 .23-.542.71.71 0 0 0-.23-.556c-.158-.133-.372-.199-.643-.199h-1.034Zm1.095 3.804c.266 0 .478-.07.636-.213.153-.142.23-.336.23-.58 0-.248-.08-.442-.238-.579-.158-.142-.372-.213-.643-.213h-1.08c-.026 0-.038.012-.038.038v1.51c0 .025.012.037.038.037h1.095Zm4.902-3.034a.11.11 0 0 1 .023-.068.112.112 0 0 1 .07-.023h.696c.026 0 .049.008.07.023a.11.11 0 0 1 .022.068v3.713a.082.082 0 0 1-.023.06.095.095 0 0 1-.069.031h-.697a.095.095 0 0 1-.069-.03.082.082 0 0 1-.023-.061v-.244c0-.015-.005-.026-.015-.03-.01-.006-.02 0-.03.015-.21.269-.524.404-.943.404-.388 0-.712-.112-.972-.336-.266-.223-.399-.541-.399-.953v-2.569c0-.025.008-.048.023-.068a.112.112 0 0 1 .07-.023h.704c.025 0 .048.008.069.023.015.02.023.043.023.068v2.318c0 .239.064.43.191.572.123.142.296.213.521.213.23 0 .414-.071.552-.214.137-.142.206-.332.206-.571v-2.318Zm3.286 3.85c-.321 0-.605-.048-.85-.145a1.268 1.268 0 0 1-.559-.389.845.845 0 0 1-.2-.548v-.07c0-.025.009-.047.024-.068a.112.112 0 0 1 .069-.023h.674c.025 0 .046.008.061.023.02.02.03.044.03.069v.015c0 .127.07.239.207.335a.976.976 0 0 0 .537.138c.204 0 .37-.04.497-.122.128-.087.192-.193.192-.32a.29.29 0 0 0-.16-.267 2.621 2.621 0 0 0-.506-.183l-.291-.092a4.316 4.316 0 0 1-.66-.243 1.296 1.296 0 0 1-.451-.359c-.123-.147-.184-.338-.184-.572 0-.355.14-.637.421-.846.281-.213.651-.32 1.111-.32.311 0 .585.048.82.145.234.102.416.239.543.412.128.177.192.378.192.602 0 .025-.01.048-.03.068a.083.083 0 0 1-.062.023h-.651a.112.112 0 0 1-.069-.023.111.111 0 0 1-.023-.068c0-.132-.066-.242-.2-.328-.127-.091-.303-.137-.528-.137-.199 0-.362.035-.49.107a.352.352 0 0 0-.184.312c0 .122.06.213.176.274.123.067.325.138.606.214l.168.046c.27.081.498.162.682.244.184.086.34.203.467.35a.884.884 0 0 1 .192.587.98.98 0 0 1-.43.846c-.285.209-.666.313-1.14.313Zm2.827-4.475a.525.525 0 0 1-.544-.541.525.525 0 0 1 .544-.541.53.53 0 0 1 .39.152.525.525 0 0 1 .154.389.525.525 0 0 1-.154.389.53.53 0 0 1-.39.152Zm-.368 4.43a.095.095 0 0 1-.069-.031.082.082 0 0 1-.023-.061v-3.72c0-.026.008-.046.023-.061.02-.02.044-.03.07-.03h.704c.025 0 .046.01.061.03.02.015.03.035.03.06v3.72c0 .026-.01.047-.03.062a.073.073 0 0 1-.061.03h-.705Zm3.692-3.957c.414 0 .743.122.988.366.25.244.375.577.375.998v2.5c0 .026-.01.047-.03.062a.073.073 0 0 1-.062.03h-.704a.095.095 0 0 1-.07-.03.082.082 0 0 1-.022-.061v-2.318a.822.822 0 0 0-.2-.571.689.689 0 0 0-.528-.214.713.713 0 0 0-.536.214c-.133.142-.2.33-.2.564v2.325c0 .025-.01.045-.03.06a.073.073 0 0 1-.061.031h-.705a.096.096 0 0 1-.069-.03.082.082 0 0 1-.023-.061v-3.713c0-.025.008-.048.023-.068a.112.112 0 0 1 .07-.023h.704c.026 0 .046.008.061.023.02.02.03.043.03.068v.244c0 .015.006.026.016.03.01.006.018 0 .023-.015.21-.274.526-.411.95-.411Zm5.56 1.57c.021.127.032.27.032.427l-.008.236c0 .061-.03.092-.092.092h-2.398c-.025 0-.038.013-.038.038.016.168.038.282.07.343.122.366.42.551.895.556a.967.967 0 0 0 .828-.426c.02-.03.045-.046.076-.046.02 0 .038.008.054.023l.475.388c.046.036.053.077.023.122-.159.224-.37.397-.636.519-.26.122-.552.183-.873.183-.399 0-.738-.09-1.02-.267a1.544 1.544 0 0 1-.604-.747c-.118-.274-.176-.656-.176-1.143 0-.295.03-.534.091-.717.103-.356.294-.638.575-.846.286-.203.628-.305 1.026-.305 1.006 0 1.573.523 1.7 1.57Zm-1.7-.808a.765.765 0 0 0-.474.145.734.734 0 0 0-.26.389c-.032.086-.052.198-.062.335-.01.026 0 .038.03.038h1.555c.026 0 .039-.012.039-.038a1.434 1.434 0 0 0-.046-.29.732.732 0 0 0-.276-.426.807.807 0 0 0-.506-.153Zm3.937 3.24c-.321 0-.605-.048-.85-.145a1.268 1.268 0 0 1-.559-.389.845.845 0 0 1-.2-.548v-.07c0-.025.009-.047.024-.068a.112.112 0 0 1 .069-.023h.674c.025 0 .046.008.061.023.02.02.03.044.03.069v.015c0 .127.07.239.208.335a.976.976 0 0 0 .536.138c.204 0 .37-.04.498-.122.127-.087.191-.193.191-.32a.29.29 0 0 0-.16-.267 2.624 2.624 0 0 0-.506-.183l-.291-.092a4.318 4.318 0 0 1-.66-.243 1.297 1.297 0 0 1-.451-.359c-.122-.147-.184-.338-.184-.572 0-.355.14-.637.422-.846.28-.213.65-.32 1.11-.32.312 0 .585.048.82.145.235.102.416.239.544.412.127.177.191.378.191.602 0 .025-.01.048-.03.068a.083.083 0 0 1-.062.023h-.651a.112.112 0 0 1-.069-.023.111.111 0 0 1-.023-.068c0-.132-.066-.242-.199-.328-.128-.091-.304-.137-.528-.137a1 1 0 0 0-.49.107.352.352 0 0 0-.185.312c0 .122.06.213.177.274.122.067.324.138.605.214l.168.046c.27.081.498.162.682.244.184.086.34.203.467.35a.883.883 0 0 1 .192.587.98.98 0 0 1-.43.846c-.285.209-.666.313-1.14.313Zm3.7 0c-.322 0-.605-.048-.85-.145a1.269 1.269 0 0 1-.56-.389.845.845 0 0 1-.198-.548v-.07a.11.11 0 0 1 .023-.068.112.112 0 0 1 .068-.023h.674c.026 0 .046.008.062.023.02.02.03.044.03.069v.015c0 .127.07.239.207.335a.976.976 0 0 0 .536.138c.205 0 .37-.04.498-.122.128-.087.192-.193.192-.32a.29.29 0 0 0-.161-.267 2.62 2.62 0 0 0-.506-.183l-.29-.092a4.316 4.316 0 0 1-.66-.243 1.297 1.297 0 0 1-.451-.359c-.123-.147-.184-.338-.184-.572 0-.355.14-.637.421-.846.28-.213.651-.32 1.11-.32.312 0 .585.048.82.145.235.102.416.239.544.412.128.177.192.378.192.602 0 .025-.01.048-.031.068a.083.083 0 0 1-.061.023h-.651a.112.112 0 0 1-.07-.023.11.11 0 0 1-.022-.068c0-.132-.067-.242-.2-.328-.127-.091-.303-.137-.528-.137a1 1 0 0 0-.49.107.352.352 0 0 0-.184.312c0 .122.059.213.176.274.123.067.324.138.605.214l.169.046c.27.081.498.162.681.244.184.086.34.203.468.35a.883.883 0 0 1 .191.587.98.98 0 0 1-.429.846c-.286.209-.666.313-1.141.313Z"/><path fill="#252530" d="M24.367 68.225c-.056 0-.092-.025-.107-.076l-1.356-5.16-.008-.031c0-.046.029-.069.085-.069h.95c.05 0 .084.026.1.076l.727 3.103c.005.02.012.03.023.03.01 0 .018-.01.023-.03l.704-3.095c.016-.056.049-.084.1-.084h.927c.056 0 .092.026.107.076l.766 3.103c.005.015.013.025.023.03.01 0 .018-.01.023-.03l.705-3.095c.015-.056.048-.084.1-.084h.903c.072 0 .1.033.084.1l-1.256 5.16c-.015.05-.051.076-.107.076h-.912c-.05 0-.084-.025-.1-.076l-.78-3.3c-.006-.021-.013-.031-.024-.031-.01 0-.017.01-.022.03l-.728 3.293c-.01.056-.044.084-.1.084h-.85Zm5.622 0a.095.095 0 0 1-.069-.03.082.082 0 0 1-.023-.061V62.98c0-.026.008-.046.023-.061.02-.02.044-.03.07-.03h.895c.026 0 .046.01.062.03.02.015.03.035.03.06v5.154c0 .025-.01.046-.03.06a.073.073 0 0 1-.062.031h-.896Zm5.002-5.244c0-.026.008-.046.023-.061.02-.02.043-.03.069-.03h.896c.026 0 .046.01.061.03.02.015.031.035.031.06v5.154c0 .025-.01.046-.03.06a.073.073 0 0 1-.062.031h-.865c-.052 0-.087-.02-.108-.06l-1.984-3.263c-.01-.016-.02-.02-.03-.016-.01 0-.015.01-.015.03l.015 3.218c0 .025-.01.046-.03.06a.073.073 0 0 1-.062.031h-.896a.095.095 0 0 1-.07-.03.082.082 0 0 1-.022-.061V62.98c0-.026.008-.046.023-.061.02-.02.043-.03.069-.03h.865c.051 0 .087.02.108.06l1.976 3.248c.01.015.02.02.03.015.01 0 .016-.01.016-.03l-.008-3.202Zm5.714-.092c.026 0 .046.01.061.03.02.016.03.036.03.062v.747c0 .025-.01.045-.03.06a.073.073 0 0 1-.061.031h-1.371c-.026 0-.038.013-.038.038v4.277c0 .025-.01.046-.031.06a.073.073 0 0 1-.061.031h-.897a.095.095 0 0 1-.068-.03.082.082 0 0 1-.023-.061v-4.277c0-.025-.013-.038-.039-.038h-1.332a.096.096 0 0 1-.07-.03.082.082 0 0 1-.022-.061v-.747c0-.026.007-.046.023-.061.02-.02.043-.03.069-.03h3.86Zm4.504.831a.082.082 0 0 1-.023.061.095.095 0 0 1-.07.03h-2.511c-.026 0-.039.013-.039.039v1.181c0 .026.013.038.039.038h1.646c.026 0 .046.008.062.023.02.02.03.043.03.069v.74c0 .025-.01.047-.03.068a.083.083 0 0 1-.062.023h-1.646c-.026 0-.039.012-.039.038v1.235c0 .025.013.038.039.038h2.512c.025 0 .048.008.069.023a.11.11 0 0 1 .023.068v.74a.082.082 0 0 1-.023.06.095.095 0 0 1-.07.031h-3.538a.095.095 0 0 1-.069-.03.082.082 0 0 1-.023-.061V62.98c0-.026.008-.046.023-.061.02-.02.044-.03.07-.03h3.538c.025 0 .048.01.069.03a.082.082 0 0 1 .023.06v.74Zm3.692 4.505a.108.108 0 0 1-.108-.068l-.957-2.112c-.01-.02-.026-.03-.046-.03h-.712c-.026 0-.039.012-.039.038v2.08c0 .026-.01.047-.03.062a.073.073 0 0 1-.062.03h-.896a.095.095 0 0 1-.069-.03.082.082 0 0 1-.023-.061V62.98c0-.026.008-.046.023-.061.02-.02.044-.03.07-.03h2.19c.327 0 .613.065.858.197.25.132.442.32.574.564.138.244.207.526.207.847 0 .345-.087.64-.26.884a1.379 1.379 0 0 1-.728.526c-.026.01-.033.028-.023.053l1.042 2.157c.01.02.015.036.015.046 0 .04-.028.061-.084.061H48.9Zm-1.823-4.413c-.026 0-.039.012-.039.038v1.303c0 .026.013.038.039.038h1.003a.722.722 0 0 0 .521-.19.642.642 0 0 0 .207-.496.667.667 0 0 0-.207-.503.722.722 0 0 0-.52-.19h-1.004ZM29.36 74.422c-.01.01-.013.021-.008.031.006.01.016.015.031.015h2.076c.025 0 .048.008.069.023.015.02.023.043.023.069v.74a.082.082 0 0 1-.023.06.096.096 0 0 1-.07.03h-3.446a.096.096 0 0 1-.069-.03.082.082 0 0 1-.023-.06v-.702c0-.046.015-.084.046-.114.25-.244.506-.508.766-.793.26-.29.424-.47.49-.541.143-.168.289-.328.437-.48.465-.514.697-.895.697-1.144a.574.574 0 0 0-.192-.442.728.728 0 0 0-.497-.168.728.728 0 0 0-.498.168.591.591 0 0 0-.192.457v.19c0 .026-.01.05-.03.07a.083.083 0 0 1-.062.022h-.904a.083.083 0 0 1-.06-.023.094.094 0 0 1-.032-.068v-.358c.016-.275.103-.519.261-.732.158-.209.368-.369.628-.48.266-.112.562-.168.889-.168.362 0 .679.066.95.198.265.137.472.32.62.549.143.228.214.483.214.762 0 .213-.053.432-.16.656a3.623 3.623 0 0 1-.483.724c-.159.198-.33.394-.513.587-.184.193-.457.472-.82.838l-.115.115Zm4.68 1.053c-.561 0-1.006-.158-1.333-.473-.326-.31-.49-.734-.49-1.273v-2.013c0-.528.164-.947.49-1.257.327-.31.772-.465 1.333-.465.562 0 1.009.155 1.34.465.327.31.49.729.49 1.257v2.013c0 .539-.163.963-.49 1.273-.331.315-.778.473-1.34.473Zm0-.923c.23 0 .414-.07.552-.213.132-.137.199-.323.199-.557v-2.096c0-.234-.067-.42-.2-.556a.733.733 0 0 0-.55-.214.698.698 0 0 0-.537.214c-.138.137-.207.322-.207.556v2.096c0 .234.07.42.207.557a.698.698 0 0 0 .536.213Zm3.976-.13c-.01.01-.013.021-.008.031.005.01.015.015.03.015h2.076c.026 0 .049.008.07.023a.11.11 0 0 1 .022.069v.74a.082.082 0 0 1-.023.06.096.096 0 0 1-.069.03h-3.447a.073.073 0 0 1-.06-.03.072.072 0 0 1-.031-.06v-.702c0-.046.015-.084.045-.114.25-.244.506-.508.766-.793.26-.29.424-.47.49-.541.144-.168.29-.328.437-.48.465-.514.697-.895.697-1.144a.574.574 0 0 0-.191-.442.728.728 0 0 0-.498-.168.728.728 0 0 0-.498.168.591.591 0 0 0-.192.457v.19a.111.111 0 0 1-.023.07.113.113 0 0 1-.068.022h-.904a.083.083 0 0 1-.061-.023.095.095 0 0 1-.031-.068v-.358c.015-.275.102-.519.26-.732.159-.209.37-.369.636-.48.26-.112.554-.168.88-.168.363 0 .68.066.95.198.266.137.473.32.621.549.143.228.215.483.215.762 0 .213-.054.432-.161.656a3.618 3.618 0 0 1-.483.724c-.158.198-.33.394-.513.587-.184.193-.457.472-.82.838l-.114.115Zm6.686-1.356c.026 0 .049.007.07.023.014.02.022.043.022.068v.77a.111.111 0 0 1-.023.069.113.113 0 0 1-.069.023h-.33c-.025 0-.037.012-.037.038v1.242a.082.082 0 0 1-.023.061.096.096 0 0 1-.07.03h-.896a.073.073 0 0 1-.06-.03.072.072 0 0 1-.031-.06v-1.243c0-.026-.013-.038-.039-.038h-2.351a.083.083 0 0 1-.061-.023.094.094 0 0 1-.031-.069v-.61c0-.03.008-.068.023-.114l1.379-3.08a.109.109 0 0 1 .107-.068h.957c.036 0 .062.01.077.03.01.016.008.04-.008.077L42.03 73.02a.032.032 0 0 0 0 .03c.005.01.013.016.023.016h1.164c.026 0 .039-.013.039-.038v-.946c0-.025.01-.045.03-.06a.073.073 0 0 1 .061-.031h.897c.025 0 .048.01.069.03a.082.082 0 0 1 .023.061v.946c0 .025.012.038.038.038h.33Z"/></g><g clip-path="url(#b)"><path fill="#fff" d="m88.718 68.643 30.32 15.347 29.168-15.347V8.628H88.718v60.015Z"/><path fill="#F2F3F2" d="M148.82 8.857 88.104 69.712l31.471 15.5 29.245-14.89V8.858Z"/><path fill="#DCDEDC" d="M86.722 28.633V69.94l1.074.534 30.32 15.347.921.459.921-.459 29.246-15.347 1.074-.534V6.643H86.722v21.99Zm1.995 40.162V8.628h59.565v60.167l-29.245 15.348-30.32-15.348Z"/><path fill="#FF492C" d="M118.5 9.62c.307 0 .614 0 .921.077l-.921 1.756c-1.382-.076-2.61.992-2.687 2.367-.077 1.374.998 2.596 2.38 2.672h.307c.614 0 1.228-.229 1.688-.61l.998 1.68a4.666 4.666 0 0 1-2.686.84c-2.457.076-4.529-1.757-4.606-4.2-.077-2.444 1.766-4.505 4.222-4.582h.384Zm3.147 3.742 1.151 1.909-1.151 1.832-1.075-1.832h-2.226l1.152-1.91h2.149Zm-1.842-.687c0-.306.076-.611.23-.84.153-.23.46-.458.691-.611l.153-.076c.307-.153.384-.23.384-.382 0-.153-.23-.306-.384-.306-.307 0-.537.153-.691.458l-.383-.381c.076-.153.23-.306.383-.459.231-.152.461-.152.691-.152.231 0 .538.076.691.229.154.153.307.382.307.61 0 .383-.23.688-.691.84l-.23.153c-.23.153-.384.23-.461.459h1.382v.534l-2.072-.076Zm-1.305 9.544 7.292-4.123V6.643h-14.661v11.376l7.369 4.2Z"/><path fill="#252530" d="M100.384 37.49v-6.72c0-.075.077-.152.154-.152h1.765c.077 0 .154.077.154.153v6.72c0 .992.69 1.755 1.765 1.755s1.766-.687 1.766-1.756v-6.72c0-.075.076-.152.153-.152h1.765c.077 0 .154.077.154.153v6.72c0 2.137-1.535 3.511-3.838 3.511s-3.838-1.45-3.838-3.512Zm8.981 1.298v-.153c0-.076.077-.152.153-.152h1.612c.077 0 .154.076.154.152 0 .459.537.764 1.305.764.691 0 1.151-.306 1.151-.687 0-.611-1.151-.611-2.226-.993-.998-.305-2.072-.84-2.072-2.138 0-1.45 1.228-2.367 3.147-2.367 1.919 0 3.147.993 3.147 2.367 0 .077-.077.153-.154.153h-1.612c-.076 0-.153-.076-.153-.153 0-.458-.461-.763-1.228-.763-.614 0-1.075.229-1.075.687 0 .61.998.61 2.149.992 1.152.306 2.303.84 2.303 2.215 0 1.45-1.305 2.29-3.224 2.29-2.072 0-3.377-.916-3.377-2.214Zm14.507-1.222c0 .153-.076.153-.23.153h-4.605c-.077 0-.077 0-.077.076 0 .23.077.382.153.611.231.535.691.84 1.535.84.691 0 1.152-.305 1.536-.763.076-.077.153-.153.23 0l1.075 1.069c.076.076.076.152 0 .229-.691.84-1.766 1.298-2.994 1.298-1.689 0-2.84-.84-3.377-2.215-.231-.534-.307-1.069-.307-1.832 0-.534.076-1.069.23-1.527.46-1.375 1.612-2.29 3.224-2.29 1.995 0 3.224 1.297 3.454 3.13.153.382.153.763.153 1.221Zm-4.759-1.756c-.076.153-.076.306-.076.458 0 .077 0 .077.076.077h2.533c.077 0 .077 0 .077-.077 0-.152-.077-.305-.077-.381-.153-.611-.614-.917-1.305-.917-.614 0-.997.306-1.228.84Zm10.747-2.367c.076.077.076.153.076.23l-.307 1.68c0 .152-.076.152-.23.075-.23-.076-.537-.076-.844-.076-.691.077-1.305.535-1.305 1.298v4.047c0 .076-.077.153-.154.153h-1.765c-.077 0-.154-.077-.154-.153V33.52c0-.077.077-.153.154-.153h1.765c.077 0 .154.076.154.153v.534c0 .076.077.076.077.076.383-.534.921-.916 1.611-.916.461 0 .691.077.922.23Zm.614 5.345v-.153c0-.076.076-.152.153-.152h1.612c.077 0 .154.076.154.152 0 .459.537.764 1.305.764.69 0 1.151-.306 1.151-.687 0-.611-1.151-.611-2.226-.993-.998-.305-2.073-.84-2.073-2.138 0-1.45 1.229-2.367 3.148-2.367 1.918 0 3.147.993 3.147 2.367 0 .077-.077.153-.154.153h-1.612a.164.164 0 0 1-.153-.153c0-.458-.461-.763-1.228-.763-.615 0-1.075.229-1.075.687 0 .61.998.61 2.149.992 1.152.306 2.303.84 2.303 2.215 0 1.45-1.305 2.29-3.224 2.29-2.072 0-3.377-.916-3.377-2.214ZM93.706 53.066V43.14c0-.076.077-.152.154-.152h1.765c.077 0 .153.076.153.152v8.247c0 .076 0 .076.077.076h4.836c.077 0 .154.076.154.153v1.45c0 .077-.077.153-.154.153H93.86c-.077 0-.154-.076-.154-.153Zm8.367-2.138a4.885 4.885 0 0 1-.23-1.527c0-.534.076-1.145.23-1.527.46-1.45 1.688-2.29 3.377-2.29 1.612 0 2.84.916 3.301 2.29.153.459.23.993.23 1.527 0 .535-.077 1.07-.23 1.451-.461 1.527-1.689 2.444-3.301 2.444-1.689.076-2.993-.84-3.377-2.367Zm4.682-.458c.077-.305.154-.687.154-.992 0-.382-.077-.764-.154-1.07-.23-.686-.691-1.068-1.305-1.068-.691 0-1.151.382-1.305 1.069-.153.229-.153.61-.153 1.069 0 .381 0 .763.077.992.23.688.69 1.07 1.381 1.07.614.076 1.075-.382 1.305-1.07Zm5.066 2.596-2.379-7.253c-.077-.153 0-.23.153-.23h1.919c.077 0 .154.077.23.153l1.229 4.429c0 .076.076.076.076 0l1.228-4.429c0-.076.077-.152.231-.152h1.919c.153 0 .23.076.153.229l-2.379 7.177c0 .076-.077.153-.231.153h-1.919c-.153.076-.23.076-.23-.077Zm12.128-3.13c0 .153-.077.153-.23.153h-4.606c-.076 0-.076 0-.076.076 0 .229.076.382.153.61.23.535.691.84 1.535.84.691 0 1.152-.305 1.535-.763.077-.076.154-.153.231 0l1.074 1.07c.077.076.077.152 0 .228-.691.84-1.765 1.298-2.993 1.298-1.689 0-2.84-.84-3.378-2.214-.23-.535-.307-1.069-.307-1.833 0-.534.077-1.069.231-1.527.46-1.374 1.612-2.29 3.223-2.29 1.996 0 3.224 1.298 3.455 3.13.153.382.153.764.153 1.222Zm-4.759-1.756c-.077.153-.077.305-.077.458 0 .076 0 .076.077.076h2.533c.077 0 .077 0 .077-.076 0-.153-.077-.305-.077-.382-.153-.61-.614-.916-1.305-.916s-1.074.305-1.228.84Zm9.058 1.68v-6.72c0-.076.076-.152.153-.152h1.766c.076 0 .153.076.153.152v6.72c0 .992.691 1.756 1.766 1.756 1.074 0 1.765-.688 1.765-1.757V43.14c0-.076.077-.152.154-.152h1.765c.077 0 .154.076.154.152v6.72c0 2.138-1.536 3.512-3.838 3.512-2.303 0-3.838-1.45-3.838-3.513Zm8.98 1.298v-.153c0-.077.077-.153.154-.153h1.612c.077 0 .153.077.153.153 0 .458.538.763 1.305.763.691 0 1.152-.305 1.152-.687 0-.61-1.152-.61-2.226-.992-.998-.306-2.073-.84-2.073-2.138 0-1.451 1.228-2.367 3.147-2.367 1.919 0 3.147.992 3.147 2.367a.164.164 0 0 1-.153.152h-1.612c-.077 0-.154-.076-.154-.152 0-.458-.46-.764-1.228-.764-.614 0-1.074.23-1.074.687 0 .611.998.611 2.149.993 1.151.305 2.303.84 2.303 2.214 0 1.451-1.305 2.29-3.224 2.29-2.073 0-3.378-.915-3.378-2.213Z"/><path fill="#DCDEDC" d="M97.314 62h15.352v.61H97.314V62Zm27.48 0h15.352v.61h-15.352V62ZM115.045 61.313l2.379-.382 1.229-2.367 1.151 2.29 2.533.459-1.765 1.756.383 2.52-2.302-1.07-2.303 1.07.307-2.52-1.612-1.756Z"/></g><g clip-path="url(#c)"><path fill="#fff" d="m200.113 83.705-30.674-15.497V16.5a13.075 13.075 0 0 0 6.739-2.88 13.322 13.322 0 0 0 4.178-6.079h38.232a13.338 13.338 0 0 0 4.24 6.134 13.083 13.083 0 0 0 6.834 2.855v51.678l-29.549 15.497Z"/><path fill="#F7F8F7" d="m169.713 68.209 30.338 15.496 29.236-15.511V16.53a14.398 14.398 0 0 1-6.702-2.782l-52.872 54.46Z"/><path fill="#E9E9EA" d="M230.776 15.082h-.097a11.459 11.459 0 0 1-7.171-2.544 11.716 11.716 0 0 1-4.059-6.505h-40.056a11.733 11.733 0 0 1-4.038 6.483 11.475 11.475 0 0 1-7.132 2.566v54.46l1.057.544L199.172 85.5l.893.46.886-.475 28.79-15.414 1.035-.55V15.08ZM200.05 83.705l-30.338-15.497V16.5a12.95 12.95 0 0 0 6.679-2.894 13.205 13.205 0 0 0 4.111-6.065h37.823a13.21 13.21 0 0 0 4.178 6.124 12.96 12.96 0 0 0 6.783 2.865v51.678L200.05 83.705Z"/><mask id="d" width="71" height="12" x="164" y="49" maskUnits="userSpaceOnUse" style="mask-type:luminance"><path fill="#fff" d="M232.11 49.009h-65.22l-2.39 5.655 2.39 5.656h65.22l2.39-5.656-2.39-5.655Z"/></mask><g mask="url(#d)"><path fill="#9132A2" d="M160.776 45.239h77.447V64.09h-77.447V45.24Z"/></g><mask id="e" width="15" height="16" x="192" y="6" maskUnits="userSpaceOnUse" style="mask-type:luminance"><path fill="#fff" d="m199.501 21.869 7.446-4.223V6.033h-14.893v11.613l7.447 4.223Zm1.489-9.91a1.64 1.64 0 0 1 .223-.889 1.95 1.95 0 0 1 .79-.633l.178-.076c.306-.15.38-.279.38-.43 0-.15-.164-.309-.424-.309a.74.74 0 0 0-.745.468l-.402-.4c.1-.197.255-.36.447-.467.201-.118.43-.178.662-.174.281-.01.558.073.79.234a.75.75 0 0 1 .335.648c0 .438-.253.702-.745.943l-.275.128c-.283.143-.425.264-.469.483h1.489v.58h-2.234v-.105Zm1.862.86 1.117 1.886-1.117 1.885-1.117-1.893h-2.234l1.117-1.877h2.234Zm-3.136-3.77c.31 0 .62.03.924.09l-.924 1.84a2.602 2.602 0 0 0-1.866.738 2.672 2.672 0 0 0-.807 1.857c.018.701.309 1.367.81 1.852a2.603 2.603 0 0 0 1.863.734 2.717 2.717 0 0 0 1.75-.626l1.013 1.69a4.797 4.797 0 0 1-2.763.874 4.557 4.557 0 0 1-3.264-1.283 4.676 4.676 0 0 1-1.42-3.241 4.676 4.676 0 0 1 1.42-3.242 4.556 4.556 0 0 1 3.264-1.283Z"/></mask><g mask="url(#e)"><path fill="#9132A2" d="M188.33 2.254h22.341v23.377H188.33V2.254Z"/></g><path fill="#252530" d="M177.383 37.395c.491 0 .923.101 1.295.302.373.201.661.49.864.867.204.372.306.8.306 1.282 0 .478-.105.898-.313 1.26a2.23 2.23 0 0 1-.894.837c-.382.2-.824.301-1.325.301h-1.587c-.034 0-.052.02-.052.06v2.881c0 .04-.015.073-.044.098a.13.13 0 0 1-.097.038h-1.303a.13.13 0 0 1-.097-.038.133.133 0 0 1-.037-.098v-7.654c0-.04.012-.073.037-.098a.13.13 0 0 1 .097-.038h3.15Zm-.239 3.575c.348 0 .623-.1.827-.302.208-.2.313-.462.313-.784 0-.337-.105-.606-.313-.807-.204-.206-.479-.309-.827-.309h-1.415c-.034 0-.052.02-.052.06v2.082c0 .04.018.06.052.06h1.415Zm8.341.845c.04.286.052.605.037.957-.005.096-.052.144-.141.144h-3.448c-.045 0-.062.017-.052.052.024.151.067.302.126.453.194.422.588.633 1.184.633a1.321 1.321 0 0 0 1.125-.588c.034-.045.069-.068.104-.068.02 0 .045.015.074.045l.805.8c.039.04.059.075.059.105 0 .015-.015.046-.044.09-.249.313-.564.551-.946.717a3.17 3.17 0 0 1-1.281.257c-.636 0-1.177-.146-1.623-.438a2.472 2.472 0 0 1-.954-1.236c-.159-.378-.238-.87-.238-1.479 0-.417.057-.784.171-1.1.174-.533.474-.958.901-1.275.427-.317.934-.475 1.52-.475.744 0 1.342.219 1.794.656.452.437.728 1.02.827 1.75Zm-2.607-1.026c-.471 0-.781.221-.93.664-.03.1-.055.22-.075.361 0 .036.02.053.06.053h1.928c.045 0 .06-.017.045-.052l-.059-.317a.971.971 0 0 0-.35-.528c-.164-.12-.37-.181-.619-.181Zm6.479-1.357c.268 0 .482.052.641.158.054.03.074.085.059.166l-.231 1.29c-.005.09-.057.117-.156.082a1.16 1.16 0 0 0-.387-.06c-.06 0-.144.008-.254.023a1.12 1.12 0 0 0-.677.301c-.184.176-.276.412-.276.71v3.083c0 .04-.015.073-.044.098a.123.123 0 0 1-.09.038h-1.31a.148.148 0 0 1-.097-.038.133.133 0 0 1-.037-.098v-5.542a.15.15 0 0 1 .037-.098.148.148 0 0 1 .097-.038h1.31c.035 0 .065.013.09.038a.14.14 0 0 1 .044.098v.43c0 .02.008.035.023.045.01.01.019.005.029-.015.308-.448.718-.671 1.229-.671Zm4.759.067c.039 0 .072.013.096.038a.134.134 0 0 1 .038.098v1.071c0 .04-.013.073-.038.098a.128.128 0 0 1-.096.038h-1.08c-.04 0-.06.017-.06.053v4.29c0 .04-.012.073-.037.098a.13.13 0 0 1-.097.038h-1.303a.13.13 0 0 1-.097-.038.133.133 0 0 1-.037-.098v-4.29c0-.036-.02-.053-.06-.053h-.655a.13.13 0 0 1-.097-.038.133.133 0 0 1-.037-.098v-1.07c0-.041.012-.074.037-.099a.13.13 0 0 1 .097-.038h.655c.04 0 .06-.02.06-.06v-.249c0-.467.07-.832.209-1.093.143-.257.372-.44.685-.55.317-.111.757-.159 1.318-.144h.424c.035 0 .065.013.09.038a.14.14 0 0 1 .044.098v.912c0 .04-.015.073-.044.098a.113.113 0 0 1-.09.045h-.372c-.258.006-.44.058-.544.159-.099.105-.149.294-.149.566v.12c0 .04.02.06.06.06h1.08Zm3.239 5.913c-.626 0-1.162-.166-1.608-.498-.447-.332-.753-.784-.916-1.358a4.022 4.022 0 0 1-.157-1.153c0-.443.052-.842.157-1.2.173-.557.484-.995.93-1.311.447-.317.983-.476 1.609-.476.606 0 1.127.156 1.564.468.427.317.73.754.908 1.312.124.377.186.772.186 1.184 0 .407-.052.79-.156 1.146-.164.588-.469 1.048-.916 1.38-.442.337-.975.506-1.601.506Zm0-1.365a.924.924 0 0 0 .626-.227c.173-.15.297-.359.372-.626.054-.24.082-.505.082-.791a3.35 3.35 0 0 0-.082-.8 1.324 1.324 0 0 0-.38-.603.974.974 0 0 0-.633-.211.941.941 0 0 0-.625.211 1.22 1.22 0 0 0-.365.603c-.06.176-.09.443-.09.8 0 .342.028.605.082.791.075.267.199.476.373.626a.94.94 0 0 0 .64.227Zm6.546-4.615c.268 0 .481.052.64.158.06.03.08.085.06.166l-.231 1.29c-.005.09-.057.117-.156.082a1.17 1.17 0 0 0-.388-.06c-.059 0-.141.008-.245.023a1.131 1.131 0 0 0-.686.301c-.183.176-.275.412-.275.71v3.083c0 .04-.015.073-.045.098a.13.13 0 0 1-.097.038h-1.303a.148.148 0 0 1-.097-.038.137.137 0 0 1-.037-.098v-5.542c0-.035.013-.068.037-.098a.148.148 0 0 1 .097-.038h1.303a.13.13 0 0 1 .097.038c.03.03.045.063.045.098v.43c0 .02.005.035.015.045.02.01.032.005.037-.015.308-.448.717-.671 1.229-.671Zm7.782-.016c.581 0 1.035.176 1.362.528.328.357.492.857.492 1.501v3.74c0 .04-.012.073-.037.098a.123.123 0 0 1-.09.038h-1.31a.148.148 0 0 1-.097-.038.133.133 0 0 1-.037-.098v-3.393c0-.307-.077-.55-.231-.732a.801.801 0 0 0-.633-.271.815.815 0 0 0-.633.271c-.164.181-.246.423-.246.724v3.401c0 .04-.012.073-.037.098a.148.148 0 0 1-.097.038h-1.296a.128.128 0 0 1-.096-.038.133.133 0 0 1-.038-.098v-3.393c0-.302-.082-.546-.245-.732a.825.825 0 0 0-.641-.271.884.884 0 0 0-.596.211c-.159.146-.253.347-.283.603v3.582c0 .04-.012.073-.037.098a.148.148 0 0 1-.097.038h-1.303a.13.13 0 0 1-.097-.038.137.137 0 0 1-.037-.098v-5.542c0-.035.013-.068.037-.098a.13.13 0 0 1 .097-.038h1.303c.035 0 .067.013.097.038a.15.15 0 0 1 .037.098v.445c0 .02.008.035.023.045.015.005.03-.005.044-.03.308-.458.782-.687 1.423-.687.372 0 .697.08.975.242.278.156.492.382.641.678.02.046.047.046.082 0 .158-.311.379-.542.662-.693.278-.151.591-.227.939-.227Zm8.012 2.399c.045.286.06.605.045.957-.01.096-.059.144-.149.144h-3.448c-.044 0-.059.017-.044.052.019.151.059.302.119.453.193.422.588.633 1.184.633a1.341 1.341 0 0 0 1.132-.588c.03-.045.062-.068.097-.068.024 0 .052.015.081.045l.805.8c.034.04.052.075.052.105 0 .015-.015.046-.045.09-.243.313-.558.551-.946.717-.387.171-.811.257-1.273.257-.64 0-1.182-.146-1.623-.438a2.457 2.457 0 0 1-.961-1.236c-.154-.378-.231-.87-.231-1.479 0-.417.055-.784.164-1.1.174-.533.474-.958.901-1.275.427-.317.936-.475 1.527-.475.744 0 1.343.219 1.794.656.452.437.725 1.02.819 1.75Zm-2.606-1.026c-.467 0-.774.221-.923.664-.03.1-.057.22-.082.361 0 .036.02.053.059.053h1.929c.045 0 .06-.017.045-.052l-.052-.317a1.029 1.029 0 0 0-.35-.528 1.05 1.05 0 0 0-.626-.181Zm6.479-1.357c.268 0 .481.052.64.158.06.03.082.085.067.166l-.231 1.29c-.01.09-.064.117-.163.082-.11-.04-.239-.06-.388-.06-.059 0-.141.008-.245.023a1.131 1.131 0 0 0-.686.301c-.183.176-.275.412-.275.71v3.083c0 .04-.012.073-.037.098a.148.148 0 0 1-.097.038h-1.311a.122.122 0 0 1-.089-.038.122.122 0 0 1-.045-.098v-5.542c0-.035.015-.068.045-.098a.122.122 0 0 1 .089-.038h1.311c.035 0 .067.013.097.038a.15.15 0 0 1 .037.098v.43c0 .02.007.035.022.045.015.01.028.005.038-.015.302-.448.709-.671 1.221-.671ZM192.842 26.228c0-.035.013-.068.038-.098a.12.12 0 0 1 .089-.038h1.311c.034 0 .067.013.096.038.025.03.038.063.038.098v7.647c0 .04-.013.072-.038.098a.145.145 0 0 1-.096.037h-1.311a.12.12 0 0 1-.089-.037.133.133 0 0 1-.038-.098v-3.122c0-.036-.019-.053-.059-.053h-2.472c-.035 0-.053.017-.053.053v3.122c0 .04-.012.072-.037.098a.148.148 0 0 1-.097.037h-1.31a.123.123 0 0 1-.09-.037.124.124 0 0 1-.044-.098v-7.647a.14.14 0 0 1 .044-.098.122.122 0 0 1 .09-.038h1.31c.035 0 .067.013.097.038a.15.15 0 0 1 .037.098v3.039c0 .04.018.06.053.06h2.472c.04 0 .059-.02.059-.06v-3.039Zm3.605 1.312a.854.854 0 0 1-.633-.256.85.85 0 0 1-.253-.634c0-.266.081-.482.245-.648a.862.862 0 0 1 .641-.25.86.86 0 0 1 .64.25c.164.166.246.382.246.648a.853.853 0 0 1-.253.634.854.854 0 0 1-.633.256Zm-.671 6.47a.145.145 0 0 1-.096-.037.133.133 0 0 1-.038-.098v-5.55c0-.04.013-.073.038-.099a.145.145 0 0 1 .096-.037h1.311c.035 0 .065.012.089.037.03.026.045.058.045.098v5.55c0 .04-.015.073-.045.099a.119.119 0 0 1-.089.037h-1.311Zm6.174-5.678c0-.035.015-.068.045-.098a.119.119 0 0 1 .089-.038h1.311c.034 0 .067.013.096.038.025.03.038.063.038.098v5.158c0 .985-.281 1.69-.842 2.111-.561.428-1.286.641-2.174.641-.263 0-.554-.02-.872-.06-.074-.01-.111-.058-.111-.143l.044-1.169c0-.1.052-.143.157-.128.268.045.514.068.737.068.477 0 .844-.103 1.102-.31.253-.216.38-.555.38-1.018 0-.025-.008-.04-.022-.045-.015-.005-.03.003-.045.023-.283.306-.695.46-1.236.46-.487 0-.931-.118-1.333-.355-.407-.236-.698-.618-.872-1.146-.109-.347-.163-.797-.163-1.35 0-.588.067-1.066.201-1.432.154-.463.417-.832.789-1.109a2.1 2.1 0 0 1 1.303-.422c.571 0 1.008.173 1.311.52.015.015.03.02.045.015.014-.005.022-.017.022-.038v-.271Zm-.089 3.65c.059-.221.089-.53.089-.928 0-.231-.008-.41-.022-.535a2.101 2.101 0 0 0-.075-.37 1.062 1.062 0 0 0-.335-.49.914.914 0 0 0-.581-.18.89.89 0 0 0-.566.18 1.098 1.098 0 0 0-.35.49c-.104.227-.156.533-.156.92 0 .423.044.724.134.905a.92.92 0 0 0 .35.49.97.97 0 0 0 .596.189.929.929 0 0 0 .595-.189.935.935 0 0 0 .321-.482Zm5.793-3.876c.596 0 1.075.186 1.437.558.363.367.544.867.544 1.5v3.71c0 .04-.012.073-.037.099a.123.123 0 0 1-.09.037h-1.31a.148.148 0 0 1-.097-.037.133.133 0 0 1-.037-.098v-3.386c0-.297-.085-.54-.253-.732-.164-.186-.385-.279-.663-.279a.854.854 0 0 0-.663.28c-.169.19-.253.434-.253.73v3.387c0 .04-.013.072-.037.098a.132.132 0 0 1-.097.037h-1.303a.13.13 0 0 1-.097-.037.133.133 0 0 1-.037-.098v-7.647a.15.15 0 0 1 .037-.098.13.13 0 0 1 .097-.038h1.303c.039 0 .072.013.097.038.024.03.037.063.037.098v2.504c0 .02.007.035.022.045.015.005.025 0 .03-.015.308-.438.764-.656 1.37-.656Z"/><path fill="#fff" d="M193.664 52.923a.082.082 0 0 1-.023.06.092.092 0 0 1-.067.03h-2.539c-.025 0-.037.013-.037.039v1.41c0 .025.012.037.037.037h1.705c.025 0 .047.008.067.023.015.02.023.043.023.068v.573a.111.111 0 0 1-.023.068.108.108 0 0 1-.067.023h-1.705c-.025 0-.037.012-.037.037v1.456c0 .025.012.037.037.037h2.539c.025 0 .047.01.067.03a.082.082 0 0 1 .023.06v.574a.082.082 0 0 1-.023.06.092.092 0 0 1-.067.03h-3.351a.068.068 0 0 1-.059-.03.072.072 0 0 1-.03-.06V52.35c0-.025.01-.045.03-.06a.068.068 0 0 1 .059-.03h3.351c.025 0 .047.01.067.03a.082.082 0 0 1 .023.06v.573Zm4.237-.603a.116.116 0 0 1 .104-.06h.685c.025 0 .045.01.06.03.02.015.03.035.03.06v5.098c0 .025-.01.045-.03.06a.071.071 0 0 1-.06.03h-.685a.092.092 0 0 1-.067-.03.082.082 0 0 1-.022-.06v-3.597c0-.015-.005-.025-.015-.03-.015-.005-.025 0-.03.015l-.931 1.448a.116.116 0 0 1-.104.06h-.343a.117.117 0 0 1-.104-.06l-.938-1.44c-.005-.016-.015-.02-.03-.016-.01.005-.015.015-.015.03v3.59a.082.082 0 0 1-.022.06.092.092 0 0 1-.067.03h-.685a.09.09 0 0 1-.067-.03.082.082 0 0 1-.023-.06V52.35c0-.025.008-.045.023-.06a.09.09 0 0 1 .067-.03h.685c.044 0 .079.02.104.06l1.214 1.863c.01.01.02.015.03.015.01 0 .017-.005.022-.015l1.214-1.863Zm5.496.603a.082.082 0 0 1-.023.06.092.092 0 0 1-.067.03h-2.539c-.025 0-.037.013-.037.039v1.41c0 .025.012.037.037.037h1.705c.025 0 .047.008.067.023.015.02.023.043.023.068v.573a.111.111 0 0 1-.023.068.108.108 0 0 1-.067.023h-1.705c-.025 0-.037.012-.037.037v1.456c0 .025.012.037.037.037h2.539c.025 0 .047.01.067.03a.082.082 0 0 1 .023.06v.574a.082.082 0 0 1-.023.06.092.092 0 0 1-.067.03h-3.351a.068.068 0 0 1-.059-.03.072.072 0 0 1-.03-.06V52.35c0-.025.01-.045.03-.06a.068.068 0 0 1 .059-.03h3.351c.025 0 .047.01.067.03a.082.082 0 0 1 .023.06v.573Zm4.11 4.615c-.049 0-.082-.025-.097-.075l-.245-.807c-.01-.02-.023-.03-.038-.03h-1.966c-.014 0-.027.01-.037.03l-.246.807c-.014.05-.047.075-.096.075h-.745c-.03 0-.052-.01-.067-.03-.015-.015-.017-.04-.007-.075l1.615-5.098c.015-.05.048-.075.097-.075h.931c.05 0 .082.025.097.075l1.623 5.098c.005.01.008.023.008.038 0 .045-.028.068-.082.068h-.745Zm-2.152-1.643c-.005.03.005.045.03.045h1.512c.029 0 .039-.015.029-.045l-.767-2.527c-.005-.02-.012-.03-.022-.03-.01 0-.017.01-.022.03l-.76 2.526Z"/><path fill="#252530" d="M187.705 68.17c-.054 0-.089-.024-.104-.075l-1.318-5.105-.008-.03c0-.045.028-.068.082-.068h.924c.049 0 .082.025.097.075l.707 3.07c.005.02.012.03.022.03.01 0 .018-.01.023-.03l.685-3.062c.015-.055.047-.083.097-.083h.901c.054 0 .089.025.104.075l.745 3.07c.005.015.012.025.022.03.01 0 .017-.01.022-.03l.685-3.062c.015-.055.048-.083.097-.083h.879c.069 0 .097.033.082.098l-1.221 5.105c-.015.05-.05.076-.105.076h-.886c-.05 0-.082-.025-.097-.076l-.759-3.265c-.005-.02-.013-.03-.023-.03s-.017.01-.022.03l-.707 3.258c-.01.055-.043.083-.097.083h-.827Zm5.466 0a.092.092 0 0 1-.067-.03.082.082 0 0 1-.022-.06v-5.097c0-.026.007-.046.022-.06.02-.02.042-.03.067-.03h.871c.025 0 .045.01.06.03.02.014.03.034.03.06v5.097c0 .025-.01.046-.03.06a.071.071 0 0 1-.06.03h-.871Zm4.863-5.187c0-.026.007-.046.022-.06.02-.02.042-.03.067-.03h.872a.07.07 0 0 1 .059.03c.02.014.03.034.03.06v5.097c0 .025-.01.046-.03.06a.07.07 0 0 1-.059.03h-.842c-.05 0-.084-.02-.104-.06l-1.929-3.227c-.01-.015-.02-.02-.03-.015-.01 0-.015.01-.015.03l.015 3.182c0 .025-.01.046-.03.06a.068.068 0 0 1-.059.03h-.871a.09.09 0 0 1-.067-.03.082.082 0 0 1-.023-.06v-5.097c0-.026.008-.046.023-.06a.09.09 0 0 1 .067-.03h.841c.05 0 .085.02.104.06l1.922 3.212c.01.015.02.02.029.015.01 0 .015-.01.015-.03l-.007-3.167Zm5.555-.09c.025 0 .045.01.06.03.02.014.03.034.03.06v.739c0 .025-.01.045-.03.06a.071.071 0 0 1-.06.03h-1.333c-.025 0-.037.013-.037.038v4.23c0 .025-.01.046-.03.06a.07.07 0 0 1-.059.03h-.872a.094.094 0 0 1-.067-.03.082.082 0 0 1-.022-.06v-4.23c0-.025-.012-.038-.037-.038h-1.296a.092.092 0 0 1-.067-.03.082.082 0 0 1-.022-.06v-.74c0-.025.007-.045.022-.06.02-.02.042-.03.067-.03h3.753Zm4.379.821a.086.086 0 0 1-.022.06.094.094 0 0 1-.067.03h-2.443c-.025 0-.037.013-.037.038v1.17c0 .024.012.037.037.037h1.601c.025 0 .045.007.06.022.02.02.029.043.029.068v.732a.093.093 0 0 1-.029.068.08.08 0 0 1-.06.022h-1.601c-.025 0-.037.013-.037.038v1.222c0 .025.012.037.037.037h2.443a.11.11 0 0 1 .067.023c.014.02.022.043.022.068v.731a.086.086 0 0 1-.022.06.094.094 0 0 1-.067.03h-3.441a.092.092 0 0 1-.067-.03.082.082 0 0 1-.022-.06v-5.097c0-.026.007-.046.022-.06.02-.02.042-.03.067-.03h3.441c.024 0 .047.01.067.03a.085.085 0 0 1 .022.06v.731Zm3.589 4.457a.106.106 0 0 1-.104-.068l-.931-2.089c-.01-.02-.025-.03-.044-.03h-.693c-.025 0-.037.013-.037.038v2.058c0 .025-.01.046-.03.06a.071.071 0 0 1-.06.03h-.871a.092.092 0 0 1-.067-.03.082.082 0 0 1-.022-.06v-5.097c0-.026.007-.046.022-.06.02-.02.042-.03.067-.03h2.13c.318 0 .596.064.834.195.243.13.429.317.558.558.134.242.201.52.201.837 0 .342-.084.634-.253.875-.168.246-.404.42-.707.52-.025.01-.032.028-.022.053l1.012 2.134c.01.02.015.035.015.046 0 .04-.027.06-.082.06h-.916Zm-1.772-4.367c-.025 0-.037.013-.037.038v1.29c0 .025.012.037.037.037h.975a.696.696 0 0 0 .507-.188.641.641 0 0 0 .201-.49.666.666 0 0 0-.201-.498.696.696 0 0 0-.507-.189h-.975ZM192.559 74.302c-.01.01-.013.02-.008.03.005.01.015.015.03.015h2.018c.025 0 .047.008.067.023a.11.11 0 0 1 .022.067v.732a.082.082 0 0 1-.022.06.092.092 0 0 1-.067.03h-3.351a.092.092 0 0 1-.067-.03.082.082 0 0 1-.022-.06v-.694c0-.045.015-.083.044-.113.244-.241.492-.503.745-.784.253-.287.412-.465.477-.536.139-.166.28-.324.424-.475.452-.507.678-.884.678-1.13a.572.572 0 0 0-.186-.438.703.703 0 0 0-.484-.166.7.7 0 0 0-.484.166.587.587 0 0 0-.187.452v.189c0 .025-.01.047-.029.068a.08.08 0 0 1-.06.022h-.879a.078.078 0 0 1-.059-.022.094.094 0 0 1-.03-.068v-.355c.015-.271.099-.513.253-.724.154-.206.358-.364.611-.475.258-.11.546-.166.864-.166.352 0 .66.066.923.197.258.135.459.316.603.542.139.227.209.478.209.754 0 .212-.052.428-.157.65-.104.22-.26.46-.469.715-.154.197-.32.39-.499.581a61.47 61.47 0 0 1-.797.83l-.111.113Zm4.55 1.04c-.546 0-.978-.156-1.296-.467-.318-.307-.477-.727-.477-1.26v-1.99c0-.523.159-.938.477-1.245.318-.306.75-.46 1.296-.46s.98.154 1.303.46c.318.307.476.722.476 1.245v1.99c0 .533-.158.953-.476 1.26-.323.311-.757.467-1.303.467Zm0-.912c.223 0 .402-.07.536-.211.129-.136.193-.32.193-.55v-2.075c0-.23-.064-.414-.193-.55a.706.706 0 0 0-.536-.211.674.674 0 0 0-.522.211c-.134.136-.201.32-.201.55v2.074c0 .231.067.415.201.55.129.141.303.212.522.212Zm3.865-.128c-.01.01-.013.02-.008.03.005.01.015.015.03.015h2.018c.025 0 .047.008.067.023a.11.11 0 0 1 .022.067v.732a.082.082 0 0 1-.022.06.092.092 0 0 1-.067.03h-3.351a.071.071 0 0 1-.06-.03.074.074 0 0 1-.029-.06v-.694c0-.045.014-.083.044-.113.244-.241.492-.503.745-.784.253-.287.412-.465.477-.536.139-.166.28-.324.424-.475.452-.507.678-.884.678-1.13a.572.572 0 0 0-.186-.438.704.704 0 0 0-.485-.166.703.703 0 0 0-.484.166.59.59 0 0 0-.186.452v.189a.11.11 0 0 1-.022.068.108.108 0 0 1-.067.022h-.879a.077.077 0 0 1-.059-.022.094.094 0 0 1-.03-.068v-.355c.015-.271.099-.513.253-.724.154-.206.36-.364.618-.475.253-.11.539-.166.856-.166.353 0 .661.066.924.197.258.135.459.316.603.542.139.227.209.478.209.754 0 .212-.053.428-.157.65-.104.22-.26.46-.469.715-.154.197-.32.39-.499.581a61.47 61.47 0 0 1-.797.83l-.111.113Zm6.501-1.343a.11.11 0 0 1 .067.023.11.11 0 0 1 .022.068v.762a.11.11 0 0 1-.022.067.11.11 0 0 1-.067.023h-.321c-.024 0-.037.013-.037.038v1.229a.082.082 0 0 1-.022.06.092.092 0 0 1-.067.03h-.871a.071.071 0 0 1-.06-.03.072.072 0 0 1-.03-.06v-1.23c0-.024-.012-.037-.037-.037h-2.286a.08.08 0 0 1-.06-.023.094.094 0 0 1-.03-.067v-.604c0-.03.008-.068.023-.113l1.34-3.046a.106.106 0 0 1 .104-.068h.931c.035 0 .06.01.075.03.01.015.007.04-.008.075l-1.243 2.828a.032.032 0 0 0 0 .03c.005.01.012.015.022.015h1.132c.025 0 .037-.012.037-.037v-.935c0-.025.01-.046.03-.06a.071.071 0 0 1 .06-.03h.871c.025 0 .047.01.067.03a.082.082 0 0 1 .022.06v.935c0 .025.013.037.037.037h.321Z"/></g><defs><clipPath id="a"><path fill="#fff" d="M.5 0h72v93H.5z"/></clipPath><clipPath id="b"><path fill="#fff" d="M82.5 0h72v93h-72z"/></clipPath><clipPath id="c"><path fill="#fff" d="M164.5 0h70v92h-70z"/></clipPath></defs></svg>