<svg xmlns="http://www.w3.org/2000/svg" width="237" height="93" fill="none"><g clip-path="url(#a)"><path fill="#fff" d="M6.704 68.53 36.96 83.852 66.066 68.53V8.614H6.704V68.53Z"/><path fill="#F2F3F2" d="M66.678 8.842 6.091 69.597l31.404 15.475 29.183-14.865V8.842Z"/><path fill="#DCDEDC" d="M4.713 28.586v41.24l1.072.534 30.256 15.322.919.458.919-.458L67.062 70.36l1.072-.533V6.632H4.713v21.954Zm1.991 40.097V8.614h59.439v60.07L36.96 84.004 6.704 68.683Z"/><path fill="#FF492C" d="M36.423 9.605c.306 0 .612 0 .919.076l-.92 1.754c-1.378-.076-2.604.99-2.68 2.363-.077 1.372.996 2.592 2.374 2.668h.307c.612 0 1.225-.229 1.685-.61l.995 1.677a4.658 4.658 0 0 1-2.68.839c-2.451.076-4.52-1.754-4.596-4.193-.077-2.44 1.762-4.497 4.213-4.574h.383Zm3.14 3.736 1.149 1.905-1.149 1.83-1.072-1.83H36.27l1.148-1.905h2.145Zm-1.838-.686c0-.305.076-.61.23-.84.153-.228.46-.456.689-.609l.153-.076c.306-.153.383-.229.383-.381 0-.153-.23-.305-.383-.305-.306 0-.536.152-.69.457l-.382-.381c.076-.152.23-.305.383-.457.23-.153.46-.153.69-.153.229 0 .535.076.688.229.154.152.307.381.307.61 0 .38-.23.686-.69.838l-.23.153c-.229.152-.382.228-.459.457h1.379v.534l-2.068-.076Zm-1.302 9.528 7.276-4.116V6.632H29.07v11.359l7.354 4.192Zm33.166 26.985H3.257L.806 54.505l2.45 5.335H69.59l2.374-5.336-2.374-5.336Z"/><path fill="#252530" d="M19.878 45.738a.126.126 0 0 1-.091-.038.125.125 0 0 1-.039-.092v-7.211c0-.036.013-.066.039-.091a.126.126 0 0 1 .091-.039h1.257c.035 0 .066.013.092.038a.125.125 0 0 1 .038.092v6c0 .035.018.053.053.053h3.509c.035 0 .063.01.084.03a.125.125 0 0 1 .038.092v1.036a.124.124 0 0 1-.038.092.102.102 0 0 1-.084.038h-4.949Zm10.793-3.309c.04.27.053.572.038.908-.005.086-.05.13-.138.13h-3.316c-.041 0-.054.017-.039.053.02.142.06.284.115.426.19.397.57.595 1.142.595.454-.005.814-.19 1.08-.556.03-.041.063-.061.1-.061.02 0 .043.015.068.045l.774.755c.035.036.053.069.053.1 0 .01-.012.037-.038.083-.24.29-.544.516-.912.678a3.117 3.117 0 0 1-1.225.237c-.613 0-1.134-.138-1.563-.412a2.317 2.317 0 0 1-.911-1.166c-.153-.356-.23-.821-.23-1.395 0-.392.054-.737.161-1.037.163-.508.452-.91.866-1.204.408-.3.896-.45 1.462-.45.715 0 1.29.206 1.724.617.429.412.692.963.789 1.654Zm-2.505-.968c-.45 0-.745.209-.888.625a4.062 4.062 0 0 0-.077.343c0 .036.018.054.054.054h1.861c.04 0 .054-.018.038-.053a5.855 5.855 0 0 0-.053-.298.888.888 0 0 0-.337-.495.978.978 0 0 0-.598-.176Zm5.622-1.295c.465 0 .879.08 1.241.243.368.158.654.377.858.656.204.274.306.584.306.93v3.613a.125.125 0 0 1-.038.092.126.126 0 0 1-.092.038h-1.256a.126.126 0 0 1-.092-.038.125.125 0 0 1-.038-.092v-.35a.051.051 0 0 0-.023-.046c-.01-.005-.023.002-.039.023-.3.391-.783.587-1.447.587-.557 0-1.009-.135-1.356-.404-.342-.27-.513-.669-.513-1.197 0-.549.194-.973.582-1.273.383-.305.932-.458 1.647-.458h1.095c.036 0 .054-.017.054-.053v-.229c0-.238-.072-.424-.215-.556-.143-.127-.357-.19-.643-.19-.22 0-.404.037-.552.114a.526.526 0 0 0-.283.328c-.02.08-.066.116-.138.106l-1.302-.167c-.082-.016-.12-.049-.115-.1.03-.294.15-.564.36-.808.21-.244.488-.432.835-.564a3.145 3.145 0 0 1 1.164-.206Zm-.214 4.535c.306 0 .567-.081.781-.244a.759.759 0 0 0 .322-.633v-.38c0-.036-.018-.054-.054-.054h-.773c-.322 0-.572.061-.751.183a.58.58 0 0 0-.276.51c0 .194.07.346.207.458.133.107.314.16.544.16Zm7.1-6.304c0-.036.013-.066.038-.091a.126.126 0 0 1 .092-.039h1.249c.036 0 .066.013.092.038a.125.125 0 0 1 .038.092v7.211a.125.125 0 0 1-.038.092.126.126 0 0 1-.092.038h-1.248a.126.126 0 0 1-.093-.038.124.124 0 0 1-.038-.092v-.35c0-.02-.007-.033-.023-.039-.015-.005-.03 0-.046.016-.296.391-.707.587-1.233.587-.5 0-.93-.138-1.287-.412-.362-.28-.623-.66-.781-1.143a4.137 4.137 0 0 1-.184-1.296c0-.503.067-.943.2-1.32.163-.456.42-.817.773-1.082.352-.269.791-.404 1.317-.404.511 0 .91.178 1.195.534.016.02.031.028.046.023.016-.005.023-.02.023-.046v-2.28Zm-.23 5.679c.143-.264.215-.625.215-1.082 0-.478-.077-.852-.23-1.121a.8.8 0 0 0-.72-.412c-.337 0-.592.138-.766.412-.178.28-.268.658-.268 1.136 0 .427.077.782.23 1.067a.861.861 0 0 0 .789.457c.322 0 .572-.152.75-.457Zm7.76-1.647c.04.27.053.572.038.908-.005.086-.051.13-.138.13h-3.317c-.04 0-.053.017-.038.053a1.9 1.9 0 0 0 .115.426c.189.397.57.595 1.141.595.455-.005.815-.19 1.08-.556.031-.041.064-.061.1-.061.02 0 .043.015.069.045l.773.755c.036.036.054.069.054.1 0 .01-.013.037-.038.083-.24.29-.544.516-.912.678a3.117 3.117 0 0 1-1.225.237c-.613 0-1.134-.138-1.563-.412a2.317 2.317 0 0 1-.911-1.166c-.154-.356-.23-.821-.23-1.395 0-.392.053-.737.16-1.037.164-.508.453-.91.866-1.204.409-.3.896-.45 1.463-.45.715 0 1.29.206 1.724.617.429.412.692.963.789 1.654Zm-2.505-.968c-.45 0-.746.209-.889.625a4.142 4.142 0 0 0-.076.343c0 .036.018.054.053.054h1.862c.04 0 .053-.018.038-.053a5.812 5.812 0 0 0-.054-.298.888.888 0 0 0-.337-.495.979.979 0 0 0-.597-.176Zm6.22-1.28c.26 0 .464.048.612.145.056.03.08.083.07.16l-.23 1.22c-.006.086-.054.111-.146.075a1.196 1.196 0 0 0-.375-.053c-.062 0-.14.005-.238.015-.26.026-.48.12-.659.282-.178.168-.268.392-.268.671v2.912c0 .036-.01.066-.03.092a.126.126 0 0 1-.092.038h-1.256a.126.126 0 0 1-.092-.038.124.124 0 0 1-.039-.092v-5.23c0-.035.013-.065.039-.09a.126.126 0 0 1 .092-.039h1.256c.035 0 .066.013.092.038.02.026.03.056.03.092v.404c0 .025.008.04.023.046.016.005.026.002.03-.008.297-.427.69-.64 1.18-.64Zm-36.92-12.502a.171.171 0 0 1 .154-.084h1.256c.036 0 .066.013.092.038a.124.124 0 0 1 .038.092v7.211a.124.124 0 0 1-.038.092.126.126 0 0 1-.092.038h-1.256a.126.126 0 0 1-.092-.038.125.125 0 0 1-.039-.092v-4.703c0-.03-.007-.046-.023-.046-.01 0-.023.01-.038.03l-1.141 1.777a.165.165 0 0 1-.146.084h-.635a.165.165 0 0 1-.146-.084l-1.141-1.776c-.016-.02-.028-.028-.039-.023-.015.005-.023.02-.023.045v4.696a.124.124 0 0 1-.038.092.126.126 0 0 1-.092.038h-1.256a.126.126 0 0 1-.092-.038.125.125 0 0 1-.038-.092v-7.211c0-.036.013-.066.038-.092a.126.126 0 0 1 .092-.038h1.256c.067 0 .118.028.153.084l1.609 2.485c.02.046.04.046.061 0L15 27.68Zm5.186 7.47c-.603 0-1.118-.154-1.547-.464a2.368 2.368 0 0 1-.881-1.281 3.91 3.91 0 0 1-.146-1.09c0-.422.049-.8.146-1.136.163-.523.46-.935.888-1.235.43-.3.945-.45 1.548-.45.587 0 1.087.148 1.5.443.414.294.708.706.882 1.234a3.7 3.7 0 0 1 .168 1.121 3.8 3.8 0 0 1-.145 1.075c-.159.559-.45.996-.873 1.31-.43.316-.943.474-1.54.474Zm0-1.288a.878.878 0 0 0 .597-.213 1.19 1.19 0 0 0 .353-.587c.056-.229.084-.478.084-.747 0-.3-.028-.554-.084-.762a1.19 1.19 0 0 0-.36-.565.951.951 0 0 0-.605-.198.932.932 0 0 0-.606.198 1.168 1.168 0 0 0-.344.565c-.061.172-.092.426-.092.762 0 .32.025.569.076.747.072.249.192.444.36.587a.929.929 0 0 0 .62.213Zm9.651-4.368c.556 0 .99.168 1.302.503.317.336.475.806.475 1.41v3.53a.125.125 0 0 1-.038.092.126.126 0 0 1-.092.038h-1.256a.126.126 0 0 1-.092-.038.142.142 0 0 1-.031-.092v-3.201c0-.29-.077-.521-.23-.694a.757.757 0 0 0-.597-.252.805.805 0 0 0-.613.252c-.158.173-.237.401-.237.686v3.21a.125.125 0 0 1-.039.09.126.126 0 0 1-.092.039h-1.24a.126.126 0 0 1-.092-.038.125.125 0 0 1-.039-.092v-3.201c0-.285-.079-.514-.237-.687a.77.77 0 0 0-.605-.259.849.849 0 0 0-.575.198.877.877 0 0 0-.275.565v3.384a.125.125 0 0 1-.039.092.126.126 0 0 1-.092.038h-1.256a.102.102 0 0 1-.084-.038.125.125 0 0 1-.038-.092v-5.23c0-.035.012-.065.038-.09a.102.102 0 0 1 .084-.039h1.256c.036 0 .067.013.092.038a.125.125 0 0 1 .039.092v.419c0 .02.007.033.023.038.015.01.028.005.038-.015.296-.437.75-.656 1.363-.656.358 0 .672.077.942.229.266.147.47.36.613.64.02.041.046.041.077 0 .158-.294.37-.513.635-.655.271-.143.575-.214.912-.214Zm7.683 2.264c.046.27.06.572.046.907-.006.087-.052.13-.138.13H34.11c-.04 0-.054.018-.038.053.02.143.058.285.115.427.183.397.561.595 1.133.595.46-.005.822-.19 1.088-.557.025-.04.056-.06.092-.06.025 0 .05.015.076.045l.774.755c.036.035.054.069.054.099 0 .01-.016.038-.046.084a2.37 2.37 0 0 1-.912.678 3.06 3.06 0 0 1-1.218.237c-.618 0-1.138-.138-1.562-.412a2.358 2.358 0 0 1-.92-1.166c-.148-.356-.221-.821-.221-1.395 0-.392.053-.737.16-1.037.164-.508.452-.91.866-1.204.408-.3.896-.45 1.463-.45.715 0 1.287.206 1.716.617.434.412.697.963.789 1.654Zm-2.497-.968c-.45 0-.746.209-.889.625-.03.092-.056.206-.077.343 0 .036.018.054.054.054h1.854c.046 0 .06-.018.046-.054a5.977 5.977 0 0 0-.054-.297.942.942 0 0 0-.337-.495 1 1 0 0 0-.597-.176Zm6.35-1.296c.571 0 1.033.176 1.386.526.347.346.52.819.52 1.418v3.5a.125.125 0 0 1-.038.09.126.126 0 0 1-.092.039H41.9a.126.126 0 0 1-.092-.038.124.124 0 0 1-.038-.092V31.75c0-.285-.082-.516-.245-.694-.159-.178-.37-.267-.636-.267a.809.809 0 0 0-.636.267c-.163.178-.245.41-.245.694v3.186a.125.125 0 0 1-.038.092.126.126 0 0 1-.092.038h-1.249a.126.126 0 0 1-.092-.038.125.125 0 0 1-.038-.092v-5.23c0-.035.013-.065.038-.09a.126.126 0 0 1 .092-.039h1.249c.035 0 .066.013.092.038a.125.125 0 0 1 .038.092v.373c0 .02.008.036.023.046.015.005.025 0 .03-.015.297-.412.733-.618 1.31-.618Zm6.158 1.167a.125.125 0 0 1-.039.091.126.126 0 0 1-.092.038h-1.034c-.035 0-.053.018-.053.054v2.256c0 .239.048.414.145.526.097.112.253.168.468.168h.352c.035 0 .066.012.092.038a.124.124 0 0 1 .038.091v1.014c0 .081-.043.127-.13.137-.296.016-.51.023-.644.023-.592 0-1.034-.096-1.325-.29-.296-.198-.447-.566-.452-1.105v-2.858c0-.036-.017-.054-.053-.054h-.613a.126.126 0 0 1-.092-.038.124.124 0 0 1-.038-.091v-.953c0-.036.012-.066.038-.092a.126.126 0 0 1 .092-.038h.613c.036 0 .053-.018.053-.053v-1.266c0-.035.013-.066.039-.091a.126.126 0 0 1 .092-.038h1.202c.036 0 .064.012.084.038a.125.125 0 0 1 .039.091v1.266c0 .035.018.053.053.053H47.4c.036 0 .067.013.092.038a.125.125 0 0 1 .039.092v.953Zm4.128-.953c0-.036.01-.066.03-.092a.126.126 0 0 1 .093-.038h1.256c.035 0 .066.013.092.038a.124.124 0 0 1 .038.092v5.23a.124.124 0 0 1-.038.09.126.126 0 0 1-.092.039H51.78a.126.126 0 0 1-.092-.038.142.142 0 0 1-.03-.092v-.358c0-.026-.009-.038-.024-.038-.015-.005-.03.002-.046.023-.286.386-.727.579-1.325.579-.546 0-.993-.165-1.34-.496-.353-.325-.529-.782-.529-1.372v-3.567c0-.036.013-.066.038-.092a.126.126 0 0 1 .092-.038h1.241c.036 0 .067.013.092.038a.125.125 0 0 1 .038.092V32.9c0 .284.077.516.23.693.153.178.365.267.636.267a.853.853 0 0 0 .605-.22.952.952 0 0 0 .291-.572v-3.362Zm8.74-.214c.556 0 .99.168 1.302.503.316.336.475.806.475 1.41v3.53a.125.125 0 0 1-.039.092.126.126 0 0 1-.092.038h-1.256a.126.126 0 0 1-.092-.038.142.142 0 0 1-.03-.092v-3.201c0-.29-.077-.521-.23-.694a.757.757 0 0 0-.597-.252.805.805 0 0 0-.613.252c-.159.173-.238.401-.238.686v3.21a.125.125 0 0 1-.038.09.126.126 0 0 1-.092.039h-1.24a.126.126 0 0 1-.093-.038.125.125 0 0 1-.038-.092v-3.201c0-.285-.08-.514-.237-.687a.77.77 0 0 0-.605-.259.849.849 0 0 0-.575.198.877.877 0 0 0-.276.565v3.384a.125.125 0 0 1-.038.092.126.126 0 0 1-.092.038h-1.256a.126.126 0 0 1-.092-.038.141.141 0 0 1-.03-.092v-5.23c0-.035.01-.065.03-.09a.126.126 0 0 1 .092-.039h1.256c.036 0 .066.013.092.038a.125.125 0 0 1 .038.092v.419c0 .02.008.033.023.038.016.01.028.005.038-.015.297-.437.751-.656 1.364-.656.357 0 .671.077.942.229.266.147.47.36.613.64.02.041.046.041.076 0 .159-.294.37-.513.636-.655.27-.143.575-.214.912-.214Z"/><path fill="#fff" d="M24.398 57.477c-.057 0-.092-.026-.108-.076l-1.394-5.161-.007-.03c0-.047.028-.07.084-.07h.75c.057 0 .093.026.108.077l.873 3.476c.005.015.013.023.023.023s.018-.008.023-.023l.835-3.476c.015-.051.048-.076.1-.076h.735c.056 0 .092.025.107.076l.889 3.483c.005.016.012.023.023.023.01 0 .017-.007.022-.023l.858-3.483c.016-.051.051-.076.108-.076h.712c.071 0 .1.033.084.099l-1.325 5.16c-.015.051-.051.077-.107.077h-.713c-.056 0-.091-.026-.107-.076l-.896-3.637c-.005-.015-.013-.025-.023-.03-.01 0-.018.01-.023.03l-.858 3.636c-.015.051-.048.077-.1.077h-.673Zm5.675 0a.096.096 0 0 1-.069-.03.082.082 0 0 1-.023-.062v-5.153c0-.025.008-.046.023-.06.02-.021.044-.031.07-.031h.704c.026 0 .046.01.061.03.02.015.03.036.03.061v5.153c0 .026-.01.046-.03.061a.073.073 0 0 1-.061.03h-.705Zm5.033-5.245c0-.025.007-.046.023-.06.02-.021.043-.031.069-.031h.704c.026 0 .046.01.062.03.02.015.03.036.03.061v5.153c0 .026-.01.046-.03.061a.073.073 0 0 1-.062.03h-.681c-.051 0-.087-.02-.108-.06l-2.206-3.598c-.01-.016-.02-.023-.03-.023-.01.005-.016.018-.016.038l.016 3.552c0 .026-.01.046-.03.061a.073.073 0 0 1-.062.03h-.705a.096.096 0 0 1-.069-.03.082.082 0 0 1-.023-.06v-5.154c0-.025.008-.046.023-.06.02-.021.044-.031.07-.031h.68c.052 0 .088.02.108.06l2.198 3.599c.01.015.02.02.031.015.01 0 .015-.01.015-.03l-.007-3.553Zm5.53-.091c.025 0 .046.01.061.03.02.015.03.036.03.061v.587c0 .025-.01.046-.03.061a.073.073 0 0 1-.061.03h-1.41c-.025 0-.038.013-.038.039v4.436a.082.082 0 0 1-.023.061.096.096 0 0 1-.069.03h-.704a.073.073 0 0 1-.062-.03.072.072 0 0 1-.03-.06v-4.437c0-.026-.013-.038-.039-.038h-1.355a.095.095 0 0 1-.07-.03.082.082 0 0 1-.022-.062v-.587c0-.025.007-.046.023-.06.02-.021.043-.031.069-.031h3.73Zm4.542.67c0 .026-.01.046-.03.061a.073.073 0 0 1-.062.03h-2.612c-.025 0-.038.014-.038.039v1.425c0 .026.013.039.038.039h1.754c.026 0 .049.007.07.023.014.02.022.043.022.068v.58a.111.111 0 0 1-.023.068.113.113 0 0 1-.069.023h-1.754c-.025 0-.038.013-.038.038v1.471c0 .026.013.038.038.038h2.612c.026 0 .046.01.061.03.02.016.031.037.031.062v.58c0 .025-.01.045-.03.06a.073.073 0 0 1-.062.03H41.64a.096.096 0 0 1-.069-.03.082.082 0 0 1-.023-.06v-5.154c0-.025.008-.046.023-.06.02-.021.044-.031.07-.031h3.446c.026 0 .046.01.061.03.02.015.031.036.031.061v.58Zm3.914 4.666a.109.109 0 0 1-.107-.069l-1.011-2.195c-.01-.02-.026-.03-.046-.03h-.92c-.025 0-.038.012-.038.037v2.165c0 .026-.01.046-.03.061a.073.073 0 0 1-.061.03h-.705a.096.096 0 0 1-.07-.03.082.082 0 0 1-.022-.06v-5.154c0-.025.008-.046.023-.06.02-.021.043-.031.069-.031h2.106c.312 0 .587.063.827.19.24.132.427.315.56.55.132.238.199.51.199.815 0 .35-.092.648-.276.892a1.38 1.38 0 0 1-.75.518c-.01 0-.019.005-.024.015a.032.032 0 0 0 0 .03l1.08 2.219c.01.02.016.036.016.046 0 .04-.028.06-.085.06h-.735Zm-2.083-4.574c-.026 0-.039.013-.039.038v1.517c0 .025.013.038.039.038h1.149a.826.826 0 0 0 .597-.221c.148-.142.222-.333.222-.572a.782.782 0 0 0-.222-.579.826.826 0 0 0-.597-.221h-1.15Z"/><path fill="#252530" d="M26.152 71.245c-.016.015-.02.03-.016.045.01.015.026.023.046.023h3.01c.036 0 .067.013.092.038.031.026.046.056.046.092v1.075a.115.115 0 0 1-.046.091.126.126 0 0 1-.091.038h-4.995a.135.135 0 0 1-.1-.038.125.125 0 0 1-.037-.091v-1.022c0-.066.023-.122.069-.168.362-.35.732-.734 1.11-1.15.378-.417.616-.677.713-.778.204-.244.413-.478.628-.702.674-.741 1.01-1.293 1.01-1.654a.829.829 0 0 0-.275-.64c-.184-.163-.424-.244-.72-.244s-.536.081-.72.244a.844.844 0 0 0-.284.663v.275a.124.124 0 0 1-.038.091.126.126 0 0 1-.092.038h-1.31a.126.126 0 0 1-.091-.038.115.115 0 0 1-.046-.091v-.519c.025-.396.153-.75.383-1.06.23-.304.533-.538.911-.7a3.262 3.262 0 0 1 1.287-.245c.526 0 .983.1 1.371.298.388.193.687.454.896.785.215.335.322.704.322 1.105 0 .31-.08.628-.238.953a5.098 5.098 0 0 1-.697 1.052c-.23.285-.477.57-.743.854-.265.28-.66.683-1.187 1.212l-.168.168Zm6.786 1.524c-.817 0-1.46-.226-1.93-.678-.475-.453-.712-1.07-.712-1.853v-2.92c0-.767.237-1.374.712-1.821.47-.453 1.113-.679 1.93-.679.812 0 1.458.227 1.938.679.475.447.712 1.054.712 1.822v2.92c0 .782-.237 1.4-.712 1.852-.48.452-1.126.678-1.938.678Zm0-1.334c.332 0 .595-.102.789-.305.2-.203.299-.475.299-.816v-3.041c0-.335-.1-.605-.299-.808-.194-.203-.457-.305-.789-.305-.327 0-.587.102-.781.305-.2.203-.299.472-.299.808v3.041c0 .341.1.613.299.816.194.203.454.305.781.305Zm5.76-.19c-.015.015-.018.03-.008.045.006.015.02.023.046.023h3.01c.036 0 .067.013.093.038a.125.125 0 0 1 .038.092v1.075a.125.125 0 0 1-.038.091.126.126 0 0 1-.092.038h-5.002a.126.126 0 0 1-.092-.038.125.125 0 0 1-.038-.091v-1.022c0-.066.02-.122.06-.168.369-.35.739-.734 1.112-1.15.377-.417.615-.677.712-.778.21-.244.421-.478.636-.702.674-.741 1.01-1.293 1.01-1.654a.829.829 0 0 0-.275-.64c-.189-.163-.431-.244-.728-.244-.296 0-.536.081-.72.244a.855.855 0 0 0-.275.663v.275a.125.125 0 0 1-.039.091.135.135 0 0 1-.1.038h-1.31a.126.126 0 0 1-.091-.038.125.125 0 0 1-.038-.091v-.519c.02-.396.145-.75.375-1.06a2.2 2.2 0 0 1 .92-.7c.382-.163.809-.245 1.278-.245.526 0 .983.1 1.371.298.394.193.695.454.904.785.21.335.314.704.314 1.105 0 .31-.076.628-.23.953a5.386 5.386 0 0 1-.704 1.052c-.23.285-.478.57-.743.854-.266.28-.662.683-1.187 1.212l-.169.168Zm9.697-1.967c.036 0 .069.012.1.038a.124.124 0 0 1 .038.091v1.12a.124.124 0 0 1-.038.092.153.153 0 0 1-.1.038h-.475c-.036 0-.053.018-.053.054v1.806a.125.125 0 0 1-.039.092.153.153 0 0 1-.1.038h-1.294a.135.135 0 0 1-.1-.038.124.124 0 0 1-.038-.091V70.71c0-.036-.017-.053-.053-.053h-3.409a.153.153 0 0 1-.1-.039.124.124 0 0 1-.038-.091v-.884c0-.046.013-.102.039-.168l1.999-4.467c.03-.066.081-.1.153-.1h1.386c.051 0 .087.013.108.039.02.025.017.064-.008.114l-1.854 4.147a.07.07 0 0 0 0 .046c.01.015.023.023.039.023h1.685c.035 0 .053-.02.053-.061v-1.365c0-.04.013-.073.039-.099a.135.135 0 0 1 .1-.038h1.294c.035 0 .069.013.1.038a.134.134 0 0 1 .038.1v1.364c0 .04.017.06.053.06h.475Z"/></g><g clip-path="url(#b)"><path fill="#fff" d="m88.704 68.53 30.255 15.322 29.107-15.322V8.614H88.704V68.53Z"/><path fill="#F2F3F2" d="M148.678 8.842 88.091 69.597l31.404 15.475 29.183-14.865V8.842Z"/><path fill="#DCDEDC" d="M86.713 28.586v41.24l1.072.534 30.256 15.322.919.458.919-.458 29.183-15.322 1.072-.533V6.632H86.713v21.954Zm1.991 40.097V8.614h59.439v60.07L118.96 84.004 88.704 68.683Z"/><path fill="#FF492C" d="M118.423 9.605c.306 0 .612 0 .919.076l-.919 1.754c-1.379-.076-2.605.99-2.681 2.363-.077 1.372.996 2.592 2.374 2.668h.307c.612 0 1.225-.229 1.685-.61l.996 1.677a4.66 4.66 0 0 1-2.681.839c-2.451.076-4.519-1.754-4.596-4.193-.077-2.44 1.762-4.497 4.213-4.574h.383Zm3.14 3.736 1.149 1.905-1.149 1.83-1.072-1.83h-2.222l1.149-1.905h2.145Zm-1.838-.686c0-.305.076-.61.23-.84.153-.228.459-.456.689-.609l.153-.076c.307-.153.383-.229.383-.381 0-.153-.23-.305-.383-.305-.306 0-.536.152-.689.457l-.383-.381c.076-.152.23-.305.383-.457.23-.153.459-.153.689-.153.23 0 .536.076.69.229.153.152.306.381.306.61 0 .38-.23.686-.689.838l-.23.153c-.23.152-.383.228-.46.457h1.379v.534l-2.068-.076Zm-1.302 9.528 7.276-4.116V6.632h-14.63v11.359l7.354 4.192Zm33.166 26.985H85.257l-2.451 5.337 2.45 5.335h66.333l2.374-5.336-2.374-5.336Z"/><path fill="#252530" d="M95.75 37.726c.507 0 .95.102 1.334.305.383.203.679.495.888.876.21.377.314.809.314 1.296 0 .483-.107.907-.322 1.273a2.27 2.27 0 0 1-.919.846c-.393.204-.847.305-1.363.305H94.05c-.035 0-.053.02-.053.061V45.6c0 .041-.015.074-.046.1a.135.135 0 0 1-.1.038h-1.34a.135.135 0 0 1-.1-.038.134.134 0 0 1-.038-.1v-7.737c0-.04.013-.074.038-.099a.135.135 0 0 1 .1-.038h3.24Zm-.244 3.613c.357 0 .64-.102.85-.305.215-.203.322-.467.322-.792 0-.341-.108-.613-.322-.816-.21-.209-.493-.313-.85-.313H94.05c-.035 0-.053.02-.053.061v2.104c0 .04.018.061.053.061h1.456Zm8.579.854c.04.29.053.612.038.968-.005.097-.054.145-.146.145h-3.546c-.046 0-.064.018-.054.053.026.153.069.305.131.458.199.426.605.64 1.217.64.491-.005.876-.203 1.157-.595.036-.045.071-.068.107-.068.021 0 .046.015.077.046l.827.807c.041.041.061.077.061.107 0 .016-.015.046-.046.092a2.478 2.478 0 0 1-.972.724c-.404.173-.843.26-1.318.26-.653 0-1.21-.148-1.67-.443a2.503 2.503 0 0 1-.98-1.25c-.163-.381-.245-.88-.245-1.494 0-.422.059-.793.176-1.113a2.54 2.54 0 0 1 .927-1.288c.439-.32.96-.48 1.562-.48.766 0 1.382.22 1.846.662.465.443.748 1.032.851 1.769Zm-2.681-1.037c-.485 0-.805.224-.958.671-.03.102-.056.224-.076.366 0 .035.02.053.061.053h1.984c.046 0 .061-.018.046-.053a11.359 11.359 0 0 0-.062-.32.97.97 0 0 0-.36-.534 1.053 1.053 0 0 0-.635-.183Zm6.664-1.372c.275 0 .495.053.658.16.056.03.077.087.062.168l-.238 1.303c-.005.092-.059.12-.161.084a1.209 1.209 0 0 0-.398-.06c-.061 0-.148.007-.261.022-.27.026-.502.127-.697.305-.188.178-.283.417-.283.717V45.6c0 .041-.015.074-.046.1a.125.125 0 0 1-.092.038h-1.348a.15.15 0 0 1-.099-.038.132.132 0 0 1-.039-.1v-5.602a.15.15 0 0 1 .039-.1.15.15 0 0 1 .099-.038h1.348c.036 0 .067.013.092.038.031.03.046.064.046.1v.434c0 .02.008.036.023.046.01.01.02.005.031-.016.316-.452.738-.678 1.264-.678Zm4.894.069c.041 0 .074.012.1.038a.136.136 0 0 1 .038.099v1.082c0 .041-.013.074-.038.1a.137.137 0 0 1-.1.038h-1.111c-.041 0-.061.017-.061.053V45.6c0 .041-.013.074-.038.1a.137.137 0 0 1-.1.038h-1.34a.137.137 0 0 1-.1-.038.136.136 0 0 1-.038-.1v-4.337c0-.036-.021-.053-.061-.053h-.674a.137.137 0 0 1-.1-.038.132.132 0 0 1-.038-.1V39.99c0-.04.012-.074.038-.1a.137.137 0 0 1 .1-.037h.674c.04 0 .061-.02.061-.061v-.252c0-.472.071-.84.214-1.105.148-.26.383-.445.705-.557.327-.111.779-.16 1.356-.145h.436c.036 0 .067.013.092.039.031.03.046.063.046.099v.922c0 .04-.015.074-.046.1a.115.115 0 0 1-.092.045h-.383c-.265.005-.452.058-.559.16-.102.107-.153.297-.153.572v.122c0 .04.02.06.061.06h1.111Zm3.332 5.976c-.644 0-1.195-.168-1.655-.503a2.518 2.518 0 0 1-.942-1.372 4.034 4.034 0 0 1-.161-1.166c0-.448.054-.852.161-1.212a2.477 2.477 0 0 1 .958-1.327c.459-.32 1.011-.48 1.654-.48.623 0 1.159.157 1.609.473.439.32.75.762.934 1.326.128.381.192.78.192 1.197 0 .411-.054.797-.161 1.158-.169.595-.483 1.06-.942 1.395-.455.34-1.004.511-1.647.511Zm0-1.38c.25 0 .465-.076.643-.228.179-.153.307-.364.383-.633.056-.244.085-.51.085-.8 0-.32-.029-.59-.085-.808a1.338 1.338 0 0 0-.39-.61 1.014 1.014 0 0 0-.651-.214.983.983 0 0 0-.644.214c-.173.147-.299.35-.375.61-.061.177-.092.447-.092.808 0 .345.028.612.084.8.077.27.204.48.383.633a.98.98 0 0 0 .659.228Zm6.733-4.665c.275 0 .495.053.658.16.062.03.082.087.062.168l-.238 1.303c-.005.092-.059.12-.161.084a1.209 1.209 0 0 0-.398-.06c-.061 0-.145.007-.253.022-.275.026-.51.127-.704.305-.189.178-.284.417-.284.717V45.6c0 .041-.015.074-.046.1a.133.133 0 0 1-.099.038h-1.341a.152.152 0 0 1-.099-.038.132.132 0 0 1-.039-.1v-5.602a.15.15 0 0 1 .039-.1.152.152 0 0 1 .099-.038h1.341c.041 0 .074.013.099.038.031.03.046.064.046.1v.434c0 .02.005.036.016.046.02.01.033.005.038-.016.316-.452.738-.678 1.264-.678Zm8.004-.015c.597 0 1.065.178 1.402.533.337.361.505.867.505 1.517V45.6c0 .041-.013.074-.038.1a.126.126 0 0 1-.092.038h-1.348a.154.154 0 0 1-.1-.038.136.136 0 0 1-.038-.1v-3.43c0-.31-.079-.556-.237-.74a.833.833 0 0 0-.652-.274.847.847 0 0 0-.651.275c-.168.183-.252.427-.252.731V45.6c0 .041-.013.074-.039.1a.15.15 0 0 1-.099.038h-1.333a.137.137 0 0 1-.1-.038.136.136 0 0 1-.038-.1v-3.43c0-.305-.084-.551-.253-.74a.853.853 0 0 0-.658-.274.918.918 0 0 0-.613.214c-.164.147-.261.35-.291.61v3.62c0 .041-.013.074-.038.1a.154.154 0 0 1-.1.038h-1.34a.135.135 0 0 1-.1-.038.132.132 0 0 1-.038-.1v-5.602c0-.036.012-.07.038-.1a.135.135 0 0 1 .1-.038h1.34c.036 0 .069.013.1.038.025.03.038.064.038.1v.45c0 .02.007.035.023.045.015.005.03-.005.046-.03.316-.463.804-.694 1.463-.694.383 0 .717.081 1.003.244.286.157.506.386.659.686.02.046.048.046.084 0 .164-.315.391-.549.682-.701.286-.153.607-.23.965-.23Zm8.242 2.424c.046.29.061.612.046.968-.011.097-.062.145-.154.145h-3.546c-.046 0-.061.018-.046.053.02.153.061.305.123.458.199.426.605.64 1.217.64a1.386 1.386 0 0 0 1.165-.595c.03-.045.064-.068.099-.068.026 0 .054.015.085.046l.827.807c.036.041.053.077.053.107 0 .016-.015.046-.046.092-.25.315-.574.556-.972.724-.399.173-.835.26-1.31.26-.659 0-1.215-.148-1.67-.443a2.491 2.491 0 0 1-.988-1.25c-.158-.381-.237-.88-.237-1.494 0-.422.056-.793.168-1.113.179-.539.488-.968.927-1.288.439-.32.962-.48 1.57-.48.766 0 1.381.22 1.846.662.465.443.746 1.032.843 1.769Zm-2.681-1.037c-.48 0-.797.224-.95.671a3.13 3.13 0 0 0-.084.366c0 .035.02.053.061.053h1.984c.046 0 .061-.018.046-.053a15.035 15.035 0 0 0-.054-.32 1.025 1.025 0 0 0-.36-.534 1.09 1.09 0 0 0-.643-.183Zm6.664-1.372c.275 0 .495.053.658.16.062.03.085.087.069.168l-.237 1.303c-.01.092-.067.12-.169.084a1.168 1.168 0 0 0-.398-.06c-.061 0-.146.007-.253.022a1.17 1.17 0 0 0-.704.305c-.189.178-.284.417-.284.717V45.6c0 .041-.013.074-.038.1a.154.154 0 0 1-.1.038h-1.348a.126.126 0 0 1-.092-.038.125.125 0 0 1-.046-.1v-5.602a.14.14 0 0 1 .046-.1.126.126 0 0 1 .092-.038h1.348c.036 0 .069.013.1.038.025.03.038.064.038.1v.434c0 .02.008.036.023.046.015.01.028.005.038-.016.312-.452.731-.678 1.257-.678Zm-31.604-13.348c0-.035.013-.068.038-.099a.128.128 0 0 1 .092-.038h1.348c.036 0 .069.013.1.038.026.03.038.064.038.1v7.729c0 .04-.012.074-.038.1a.154.154 0 0 1-.1.037h-1.348a.128.128 0 0 1-.092-.038.136.136 0 0 1-.038-.099V31.01c0-.036-.02-.053-.061-.053h-2.543c-.036 0-.054.017-.054.053v3.156c0 .04-.012.074-.038.1a.154.154 0 0 1-.1.037h-1.348a.128.128 0 0 1-.092-.038.125.125 0 0 1-.046-.099v-7.73a.14.14 0 0 1 .046-.099.128.128 0 0 1 .092-.038h1.348c.036 0 .069.013.1.038.026.03.038.064.038.1v3.071c0 .041.018.061.054.061h2.543c.041 0 .061-.02.061-.06v-3.073Zm3.707 1.327a.887.887 0 0 1-.651-.26.854.854 0 0 1-.26-.64c0-.27.084-.488.253-.655.168-.168.388-.252.658-.252.271 0 .491.084.659.252.169.167.253.386.253.655a.85.85 0 0 1-.261.64.883.883 0 0 1-.651.26Zm-.689 6.54a.154.154 0 0 1-.1-.038.136.136 0 0 1-.038-.099v-5.61c0-.041.013-.074.038-.1a.154.154 0 0 1 .1-.038h1.348c.036 0 .067.013.092.038a.122.122 0 0 1 .046.1v5.61c0 .04-.015.074-.046.1a.125.125 0 0 1-.092.037h-1.348Zm6.35-5.74c0-.035.015-.069.046-.099a.125.125 0 0 1 .092-.038h1.348a.15.15 0 0 1 .099.038.15.15 0 0 1 .039.1v5.213c0 .996-.289 1.708-.866 2.135-.577.432-1.322.648-2.236.648-.271 0-.57-.02-.897-.061-.076-.01-.115-.059-.115-.145l.046-1.182c0-.101.054-.145.161-.13.276.046.529.07.759.07.49 0 .868-.105 1.133-.313.261-.219.391-.562.391-1.03 0-.025-.008-.04-.023-.045-.015-.005-.031.002-.046.023-.291.31-.715.465-1.272.465-.5 0-.957-.12-1.371-.359-.418-.238-.717-.625-.896-1.158-.112-.35-.168-.806-.168-1.365 0-.594.069-1.077.206-1.448.159-.468.429-.841.812-1.12.383-.285.83-.428 1.341-.428.587 0 1.036.176 1.348.526.015.016.031.02.046.016.015-.005.023-.018.023-.039v-.274Zm-.092 3.69c.061-.224.092-.537.092-.938 0-.234-.008-.414-.023-.541a2.054 2.054 0 0 0-.077-.374 1.077 1.077 0 0 0-.344-.495.953.953 0 0 0-.598-.183.924.924 0 0 0-.582.183 1.115 1.115 0 0 0-.36.495c-.107.229-.161.539-.161.93 0 .427.046.732.138.915a.931.931 0 0 0 .36.495c.174.127.378.191.613.191a.97.97 0 0 0 .613-.19.94.94 0 0 0 .329-.488Zm5.959-3.919c.613 0 1.106.188 1.478.564.373.372.56.877.56 1.518v3.75a.132.132 0 0 1-.131.137h-1.348a.15.15 0 0 1-.099-.038.132.132 0 0 1-.039-.099v-3.423c0-.3-.086-.546-.26-.74-.169-.187-.396-.281-.682-.281a.882.882 0 0 0-.681.282c-.174.193-.261.44-.261.74v3.422c0 .04-.013.074-.038.1a.137.137 0 0 1-.1.037h-1.34a.137.137 0 0 1-.1-.038.136.136 0 0 1-.038-.099v-7.73c0-.035.013-.068.038-.099a.137.137 0 0 1 .1-.038h1.34c.041 0 .074.013.1.038.025.03.038.064.038.1v2.53c0 .02.008.036.023.046.015.005.026 0 .031-.015.316-.443.786-.664 1.409-.664Z"/><path fill="#fff" d="M106.398 57.477c-.057 0-.092-.026-.108-.076l-1.394-5.161-.007-.03c0-.047.028-.07.084-.07h.751c.056 0 .091.026.107.077l.873 3.476c.005.015.013.023.023.023s.018-.008.023-.023l.835-3.476c.015-.051.048-.076.099-.076h.736c.056 0 .092.025.107.076l.888 3.483c.006.016.013.023.023.023.011 0 .018-.007.023-.023l.858-3.483c.016-.051.051-.076.108-.076h.712c.071 0 .099.033.084.099l-1.325 5.16c-.015.051-.051.077-.107.077h-.713c-.056 0-.091-.026-.107-.076l-.896-3.637c-.005-.015-.013-.025-.023-.03-.01 0-.018.01-.023.03l-.858 3.636c-.015.051-.048.077-.099.077h-.674Zm5.675 0a.098.098 0 0 1-.069-.03.083.083 0 0 1-.023-.062v-5.153c0-.025.008-.046.023-.06a.098.098 0 0 1 .069-.031h.705c.026 0 .046.01.061.03a.071.071 0 0 1 .031.061v5.153c0 .026-.01.046-.031.061a.072.072 0 0 1-.061.03h-.705Zm5.033-5.245a.08.08 0 0 1 .023-.06c.02-.021.043-.031.069-.031h.704c.026 0 .046.01.062.03.02.015.03.036.03.061v5.153c0 .026-.01.046-.03.061a.075.075 0 0 1-.062.03h-.681c-.051 0-.087-.02-.108-.06l-2.206-3.598c-.01-.016-.02-.023-.03-.023-.01.005-.016.018-.016.038l.016 3.552c0 .026-.01.046-.031.061a.073.073 0 0 1-.061.03h-.705a.098.098 0 0 1-.069-.03.083.083 0 0 1-.023-.06v-5.154c0-.025.008-.046.023-.06a.098.098 0 0 1 .069-.031h.682c.051 0 .087.02.107.06l2.198 3.599c.011.015.021.02.031.015.01 0 .015-.01.015-.03l-.007-3.553Zm5.53-.091c.025 0 .046.01.061.03a.071.071 0 0 1 .031.061v.587c0 .025-.01.046-.031.061a.073.073 0 0 1-.061.03h-1.409c-.026 0-.039.013-.039.039v4.436a.08.08 0 0 1-.023.061.094.094 0 0 1-.069.03h-.704a.075.075 0 0 1-.062-.03.073.073 0 0 1-.03-.06v-4.437c0-.026-.013-.038-.039-.038h-1.355a.094.094 0 0 1-.069-.03.08.08 0 0 1-.023-.062v-.587a.08.08 0 0 1 .023-.06c.02-.021.043-.031.069-.031h3.73Zm4.542.67c0 .026-.01.046-.031.061a.071.071 0 0 1-.061.03h-2.612c-.025 0-.038.014-.038.039v1.425c0 .026.013.039.038.039h1.754c.026 0 .049.007.069.023.015.02.023.043.023.068v.58a.113.113 0 0 1-.023.068.11.11 0 0 1-.069.023h-1.754c-.025 0-.038.013-.038.038v1.471c0 .026.013.038.038.038h2.612c.026 0 .046.01.061.03a.071.071 0 0 1 .031.062v.58c0 .025-.01.045-.031.06a.072.072 0 0 1-.061.03h-3.447a.098.098 0 0 1-.069-.03.083.083 0 0 1-.023-.06v-5.154c0-.025.008-.046.023-.06a.098.098 0 0 1 .069-.031h3.447c.026 0 .046.01.061.03a.071.071 0 0 1 .031.061v.58Zm3.914 4.666a.108.108 0 0 1-.107-.069l-1.011-2.195c-.01-.02-.026-.03-.046-.03h-.919c-.026 0-.039.012-.039.037v2.165c0 .026-.01.046-.03.061a.075.075 0 0 1-.062.03h-.704a.094.094 0 0 1-.069-.03.083.083 0 0 1-.023-.06v-5.154c0-.025.008-.046.023-.06.02-.021.043-.031.069-.031h2.106c.312 0 .587.063.827.19.24.132.427.315.56.55.132.238.199.51.199.815 0 .35-.092.648-.276.892a1.381 1.381 0 0 1-.751.518c-.01 0-.018.005-.023.015a.033.033 0 0 0 0 .03l1.08 2.219c.011.02.016.036.016.046 0 .04-.028.06-.085.06h-.735Zm-2.083-4.574c-.026 0-.039.013-.039.038v1.517c0 .025.013.038.039.038h1.149a.825.825 0 0 0 .597-.221c.148-.142.222-.333.222-.572a.782.782 0 0 0-.222-.579.825.825 0 0 0-.597-.221h-1.149Z"/><path fill="#252530" d="M108.152 71.245c-.016.015-.021.03-.016.045a.053.053 0 0 0 .046.023h3.011c.035 0 .066.013.091.038a.114.114 0 0 1 .046.092v1.075a.114.114 0 0 1-.046.091.124.124 0 0 1-.091.038h-4.995a.134.134 0 0 1-.099-.038.122.122 0 0 1-.038-.091v-1.022c0-.066.023-.122.069-.168.362-.35.732-.734 1.11-1.15.378-.417.615-.677.713-.778.204-.244.413-.478.628-.702.674-.741 1.011-1.293 1.011-1.654a.828.828 0 0 0-.276-.64c-.184-.163-.424-.244-.72-.244s-.536.081-.72.244a.843.843 0 0 0-.283.663v.275a.123.123 0 0 1-.039.091.125.125 0 0 1-.092.038h-1.309a.125.125 0 0 1-.092-.038.114.114 0 0 1-.046-.091v-.519c.025-.396.153-.75.383-1.06a2.2 2.2 0 0 1 .911-.7 3.263 3.263 0 0 1 1.287-.245c.526 0 .983.1 1.371.298.388.193.687.454.896.785.215.335.322.704.322 1.105 0 .31-.079.628-.238.953a5.07 5.07 0 0 1-.697 1.052 15.3 15.3 0 0 1-.743.854c-.265.28-.661.683-1.187 1.212l-.168.168Zm6.786 1.524c-.817 0-1.46-.226-1.93-.678-.475-.453-.712-1.07-.712-1.853v-2.92c0-.767.237-1.374.712-1.821.47-.453 1.113-.679 1.93-.679.812 0 1.458.227 1.938.679.475.447.712 1.054.712 1.822v2.92c0 .782-.237 1.4-.712 1.852-.48.452-1.126.678-1.938.678Zm0-1.334c.332 0 .595-.102.789-.305.199-.203.299-.475.299-.816v-3.041c0-.335-.1-.605-.299-.808-.194-.203-.457-.305-.789-.305-.327 0-.587.102-.781.305-.199.203-.299.472-.299.808v3.041c0 .341.1.613.299.816.194.203.454.305.781.305Zm5.76-.19c-.015.015-.018.03-.008.045.005.015.021.023.046.023h3.011c.035 0 .066.013.091.038a.123.123 0 0 1 .039.092v1.075a.123.123 0 0 1-.039.091.124.124 0 0 1-.091.038h-5.002a.125.125 0 0 1-.092-.038.122.122 0 0 1-.038-.091v-1.022c0-.066.02-.122.061-.168.368-.35.738-.734 1.111-1.15.377-.417.615-.677.712-.778.209-.244.421-.478.636-.702.674-.741 1.011-1.293 1.011-1.654a.828.828 0 0 0-.276-.64c-.189-.163-.432-.244-.728-.244s-.536.081-.72.244a.854.854 0 0 0-.275.663v.275a.133.133 0 0 1-.138.13h-1.31a.126.126 0 0 1-.092-.039.122.122 0 0 1-.038-.091v-.519a1.9 1.9 0 0 1 .375-1.06 2.2 2.2 0 0 1 .919-.7c.383-.163.81-.245 1.279-.245.526 0 .983.1 1.371.298.394.193.695.454.904.785.21.335.314.704.314 1.105 0 .31-.076.628-.23.953a5.388 5.388 0 0 1-.704 1.052c-.23.285-.478.57-.743.854-.266.28-.661.683-1.187 1.212l-.169.168Zm9.697-1.967c.036 0 .069.012.1.038a.126.126 0 0 1 .038.091v1.12a.126.126 0 0 1-.038.092.154.154 0 0 1-.1.038h-.475c-.036 0-.053.018-.053.054v1.806a.123.123 0 0 1-.039.092.152.152 0 0 1-.099.038h-1.295a.133.133 0 0 1-.138-.13v-1.806c0-.036-.018-.053-.053-.053h-3.409a.15.15 0 0 1-.099-.039.123.123 0 0 1-.039-.091v-.884c0-.046.013-.102.039-.168l1.999-4.467c.03-.066.082-.1.153-.1h1.386c.051 0 .087.013.108.039.02.025.017.064-.008.114l-1.854 4.147a.071.071 0 0 0 0 .046c.011.015.023.023.039.023h1.685c.035 0 .053-.02.053-.061v-1.365a.132.132 0 0 1 .138-.137h1.295c.035 0 .069.013.099.038a.132.132 0 0 1 .039.1v1.364c0 .04.017.06.053.06h.475Z"/></g><g clip-path="url(#c)"><path fill="#fff" d="m170.704 68.53 30.255 15.322 29.107-15.322V8.614h-59.362V68.53Z"/><path fill="#F2F3F2" d="m230.678 8.842-60.587 60.755 31.404 15.475 29.183-14.865V8.842Z"/><path fill="#DCDEDC" d="M168.713 28.586v41.24l1.072.534 30.256 15.322.919.458.919-.458 29.183-15.322 1.072-.533V6.632h-63.421v21.954Zm1.991 40.097V8.614h59.439v60.07L200.96 84.004l-30.256-15.322Z"/><path fill="#FF492C" d="M200.423 9.605c.306 0 .612 0 .919.076l-.919 1.754c-1.379-.076-2.605.99-2.681 2.363-.077 1.372.996 2.592 2.374 2.668h.307c.612 0 1.225-.229 1.685-.61l.996 1.677a4.66 4.66 0 0 1-2.681.839c-2.451.076-4.519-1.754-4.596-4.193-.077-2.44 1.762-4.497 4.213-4.574h.383Zm3.14 3.736 1.149 1.905-1.149 1.83-1.072-1.83h-2.222l1.149-1.905h2.145Zm-1.838-.686c0-.305.076-.61.23-.84.153-.228.459-.456.689-.609l.153-.076c.307-.153.383-.229.383-.381 0-.153-.23-.305-.383-.305-.306 0-.536.152-.689.457l-.383-.381c.076-.152.23-.305.383-.457.23-.153.459-.153.689-.153.23 0 .536.076.69.229.153.152.306.381.306.61 0 .38-.23.686-.689.838l-.23.153c-.23.152-.383.228-.46.457h1.379v.534l-2.068-.076Zm-1.302 9.528 7.276-4.116V6.632h-14.63v11.359l7.354 4.192Zm33.166 26.985h-66.332l-2.451 5.337 2.451 5.335h66.332l2.374-5.336-2.374-5.336Z"/><path fill="#252530" d="M177.751 37.726c.505 0 .95.102 1.333.305s.679.495.888.876c.21.377.314.809.314 1.296 0 .483-.107.907-.321 1.273-.22.361-.526.643-.92.846-.393.204-.847.305-1.363.305h-1.632c-.035 0-.053.02-.053.061V45.6c0 .041-.015.074-.046.1a.137.137 0 0 1-.1.038h-1.34a.137.137 0 0 1-.1-.038.136.136 0 0 1-.038-.1v-7.737c0-.04.013-.074.038-.099a.137.137 0 0 1 .1-.038h3.24Zm-.245 3.613c.357 0 .641-.102.85-.305.214-.203.322-.467.322-.792 0-.341-.108-.613-.322-.816-.209-.209-.493-.313-.85-.313h-1.456c-.035 0-.053.02-.053.061v2.104c0 .04.018.061.053.061h1.456Zm8.579.854c.04.29.053.612.038.968-.005.097-.054.145-.146.145h-3.546c-.046 0-.064.018-.054.053.026.153.069.305.131.458.199.426.605.64 1.217.64.491-.005.876-.203 1.157-.595.036-.045.071-.068.107-.068.021 0 .046.015.077.046l.827.807c.041.041.061.077.061.107 0 .016-.015.046-.046.092a2.478 2.478 0 0 1-.972.724c-.404.173-.843.26-1.318.26-.653 0-1.21-.148-1.67-.443a2.503 2.503 0 0 1-.98-1.25c-.163-.381-.245-.88-.245-1.494 0-.422.059-.793.176-1.113.179-.539.488-.968.927-1.288.439-.32.96-.48 1.562-.48.766 0 1.382.22 1.846.662.465.443.748 1.032.851 1.769Zm-2.681-1.037c-.485 0-.805.224-.958.671-.03.102-.056.224-.076.366 0 .035.02.053.061.053h1.984c.046 0 .061-.018.046-.053a11.359 11.359 0 0 0-.062-.32.97.97 0 0 0-.36-.534 1.053 1.053 0 0 0-.635-.183Zm6.664-1.372c.275 0 .495.053.658.16.056.03.077.087.062.168l-.238 1.303c-.005.092-.059.12-.161.084a1.209 1.209 0 0 0-.398-.06c-.061 0-.148.007-.261.022-.27.026-.502.127-.697.305-.188.178-.283.417-.283.717V45.6c0 .041-.015.074-.046.1a.125.125 0 0 1-.092.038h-1.348a.15.15 0 0 1-.099-.038.132.132 0 0 1-.039-.1v-5.602a.15.15 0 0 1 .039-.1.15.15 0 0 1 .099-.038h1.348c.036 0 .067.013.092.038.031.03.046.064.046.1v.434c0 .02.008.036.023.046.01.01.02.005.031-.016.316-.452.738-.678 1.264-.678Zm4.894.069c.041 0 .074.012.1.038a.136.136 0 0 1 .038.099v1.082c0 .041-.013.074-.038.1a.137.137 0 0 1-.1.038h-1.111c-.041 0-.061.017-.061.053V45.6c0 .041-.013.074-.038.1a.137.137 0 0 1-.1.038h-1.34a.137.137 0 0 1-.1-.038.136.136 0 0 1-.038-.1v-4.337c0-.036-.021-.053-.061-.053h-.674a.137.137 0 0 1-.1-.038.132.132 0 0 1-.038-.1V39.99c0-.04.012-.074.038-.1a.137.137 0 0 1 .1-.037h.674c.04 0 .061-.02.061-.061v-.252c0-.472.071-.84.214-1.105.148-.26.383-.445.705-.557.327-.111.779-.16 1.356-.145h.436c.036 0 .067.013.092.039.031.03.046.063.046.099v.922c0 .04-.015.074-.046.1a.115.115 0 0 1-.092.045h-.383c-.265.005-.452.058-.559.16-.102.107-.153.297-.153.572v.122c0 .04.02.06.061.06h1.111Zm3.332 5.976c-.644 0-1.195-.168-1.655-.503a2.518 2.518 0 0 1-.942-1.372 4.034 4.034 0 0 1-.161-1.166c0-.448.054-.852.161-1.212a2.477 2.477 0 0 1 .958-1.327c.459-.32 1.011-.48 1.654-.48.623 0 1.159.157 1.609.473.439.32.75.762.934 1.326.128.381.192.78.192 1.197 0 .411-.054.797-.161 1.158-.169.595-.483 1.06-.942 1.395-.455.34-1.004.511-1.647.511Zm0-1.38c.25 0 .465-.076.643-.228.179-.153.307-.364.383-.633.056-.244.085-.51.085-.8 0-.32-.029-.59-.085-.808a1.338 1.338 0 0 0-.39-.61 1.014 1.014 0 0 0-.651-.214.983.983 0 0 0-.644.214c-.173.147-.299.35-.375.61-.061.177-.092.447-.092.808 0 .345.028.612.084.8.077.27.204.48.383.633a.98.98 0 0 0 .659.228Zm6.733-4.665c.275 0 .495.053.658.16.062.03.082.087.062.168l-.238 1.303c-.005.092-.059.12-.161.084a1.209 1.209 0 0 0-.398-.06c-.061 0-.145.007-.253.022-.275.026-.51.127-.704.305-.189.178-.284.417-.284.717V45.6c0 .041-.015.074-.046.1a.133.133 0 0 1-.099.038h-1.341a.152.152 0 0 1-.099-.038.132.132 0 0 1-.039-.1v-5.602a.15.15 0 0 1 .039-.1.152.152 0 0 1 .099-.038h1.341c.041 0 .074.013.099.038.031.03.046.064.046.1v.434c0 .02.005.036.016.046.02.01.033.005.038-.016.316-.452.738-.678 1.264-.678Zm8.004-.015c.597 0 1.065.178 1.402.533.337.361.505.867.505 1.517V45.6c0 .041-.013.074-.038.1a.126.126 0 0 1-.092.038h-1.348a.154.154 0 0 1-.1-.038.136.136 0 0 1-.038-.1v-3.43c0-.31-.079-.556-.237-.74a.833.833 0 0 0-.652-.274.847.847 0 0 0-.651.275c-.168.183-.252.427-.252.731V45.6c0 .041-.013.074-.039.1a.15.15 0 0 1-.099.038h-1.333a.137.137 0 0 1-.1-.038.136.136 0 0 1-.038-.1v-3.43c0-.305-.084-.551-.253-.74a.853.853 0 0 0-.658-.274.918.918 0 0 0-.613.214c-.164.147-.261.35-.291.61v3.62c0 .041-.013.074-.038.1a.154.154 0 0 1-.1.038h-1.34a.135.135 0 0 1-.1-.038.132.132 0 0 1-.038-.1v-5.602c0-.036.012-.07.038-.1a.135.135 0 0 1 .1-.038h1.34c.036 0 .069.013.1.038.025.03.038.064.038.1v.45c0 .02.007.035.023.045.015.005.03-.005.046-.03.316-.463.804-.694 1.463-.694.383 0 .717.081 1.003.244.286.157.506.386.659.686.02.046.048.046.084 0 .164-.315.391-.549.682-.701.286-.153.607-.23.965-.23Zm8.242 2.424c.046.29.061.612.046.968-.011.097-.062.145-.154.145h-3.546c-.046 0-.061.018-.046.053.02.153.061.305.123.458.199.426.605.64 1.217.64a1.386 1.386 0 0 0 1.165-.595c.03-.045.064-.068.099-.068.026 0 .054.015.085.046l.827.807c.036.041.053.077.053.107 0 .016-.015.046-.046.092-.25.315-.574.556-.972.724-.399.173-.835.26-1.31.26-.659 0-1.215-.148-1.67-.443a2.491 2.491 0 0 1-.988-1.25c-.158-.381-.237-.88-.237-1.494 0-.422.056-.793.168-1.113.179-.539.488-.968.927-1.288.439-.32.962-.48 1.57-.48.766 0 1.381.22 1.846.662.465.443.746 1.032.843 1.769Zm-2.681-1.037c-.48 0-.797.224-.95.671a3.13 3.13 0 0 0-.084.366c0 .035.02.053.061.053h1.984c.046 0 .061-.018.046-.053a15.035 15.035 0 0 0-.054-.32 1.025 1.025 0 0 0-.36-.534 1.09 1.09 0 0 0-.643-.183Zm6.664-1.372c.275 0 .495.053.658.16.062.03.085.087.069.168l-.237 1.303c-.01.092-.067.12-.169.084a1.168 1.168 0 0 0-.398-.06c-.061 0-.146.007-.253.022a1.17 1.17 0 0 0-.704.305c-.189.178-.284.417-.284.717V45.6c0 .041-.013.074-.038.1a.154.154 0 0 1-.1.038h-1.348a.126.126 0 0 1-.092-.038.125.125 0 0 1-.046-.1v-5.602a.14.14 0 0 1 .046-.1.126.126 0 0 1 .092-.038h1.348c.036 0 .069.013.1.038.025.03.038.064.038.1v.434c0 .02.008.036.023.046.015.01.028.005.038-.016.312-.452.731-.678 1.257-.678Zm-31.604-13.348c0-.035.013-.068.038-.099a.128.128 0 0 1 .092-.038h1.348c.036 0 .069.013.1.038.026.03.038.064.038.1v7.729c0 .04-.012.074-.038.1a.154.154 0 0 1-.1.037h-1.348a.128.128 0 0 1-.092-.038.136.136 0 0 1-.038-.099V31.01c0-.036-.02-.053-.061-.053h-2.543c-.036 0-.054.017-.054.053v3.156c0 .04-.012.074-.038.1a.154.154 0 0 1-.1.037h-1.348a.128.128 0 0 1-.092-.038.125.125 0 0 1-.046-.099v-7.73a.14.14 0 0 1 .046-.099.128.128 0 0 1 .092-.038h1.348c.036 0 .069.013.1.038.026.03.038.064.038.1v3.071c0 .041.018.061.054.061h2.543c.041 0 .061-.02.061-.06v-3.073Zm3.707 1.327a.887.887 0 0 1-.651-.26.854.854 0 0 1-.26-.64c0-.27.084-.488.253-.655.168-.168.388-.252.658-.252.271 0 .491.084.659.252.169.167.253.386.253.655a.85.85 0 0 1-.261.64.883.883 0 0 1-.651.26Zm-.689 6.54a.154.154 0 0 1-.1-.038.136.136 0 0 1-.038-.099v-5.61c0-.041.013-.074.038-.1a.154.154 0 0 1 .1-.038h1.348c.036 0 .067.013.092.038a.122.122 0 0 1 .046.1v5.61c0 .04-.015.074-.046.1a.125.125 0 0 1-.092.037h-1.348Zm6.35-5.74c0-.035.015-.069.046-.099a.125.125 0 0 1 .092-.038h1.348a.15.15 0 0 1 .099.038.15.15 0 0 1 .039.1v5.213c0 .996-.289 1.708-.866 2.135-.577.432-1.322.648-2.236.648-.271 0-.57-.02-.897-.061-.076-.01-.115-.059-.115-.145l.046-1.182c0-.101.054-.145.161-.13.276.046.529.07.759.07.49 0 .868-.105 1.133-.313.261-.219.391-.562.391-1.03 0-.025-.008-.04-.023-.045-.015-.005-.031.002-.046.023-.291.31-.715.465-1.272.465-.5 0-.957-.12-1.371-.359-.418-.238-.717-.625-.896-1.158-.112-.35-.168-.806-.168-1.365 0-.594.069-1.077.206-1.448.159-.468.429-.841.812-1.12.383-.285.83-.428 1.341-.428.587 0 1.036.176 1.348.526.015.016.031.02.046.016.015-.005.023-.018.023-.039v-.274Zm-.092 3.69c.061-.224.092-.537.092-.938 0-.234-.008-.414-.023-.541a2.054 2.054 0 0 0-.077-.374 1.077 1.077 0 0 0-.344-.495.953.953 0 0 0-.598-.183.924.924 0 0 0-.582.183 1.115 1.115 0 0 0-.36.495c-.107.229-.161.539-.161.93 0 .427.046.732.138.915a.931.931 0 0 0 .36.495c.174.127.378.191.613.191a.97.97 0 0 0 .613-.19.94.94 0 0 0 .329-.488Zm5.959-3.919c.613 0 1.106.188 1.478.564.373.372.56.877.56 1.518v3.75a.132.132 0 0 1-.131.137h-1.348a.15.15 0 0 1-.099-.038.132.132 0 0 1-.039-.099v-3.423c0-.3-.086-.546-.26-.74-.169-.187-.396-.281-.682-.281a.882.882 0 0 0-.681.282c-.174.193-.261.44-.261.74v3.422c0 .04-.013.074-.038.1a.137.137 0 0 1-.1.037h-1.34a.137.137 0 0 1-.1-.038.136.136 0 0 1-.038-.099v-7.73c0-.035.013-.068.038-.099a.137.137 0 0 1 .1-.038h1.34c.041 0 .074.013.1.038.025.03.038.064.038.1v2.53c0 .02.008.036.023.046.015.005.026 0 .031-.015.316-.443.786-.664 1.409-.664Z"/><path fill="#fff" d="M177.444 57.538c-.398 0-.745-.063-1.042-.19a1.592 1.592 0 0 1-.689-.534 1.386 1.386 0 0 1-.237-.808v-.19c0-.026.01-.049.03-.07a.085.085 0 0 1 .062-.022h.681c.026 0 .049.008.069.023.015.02.023.043.023.068v.145c0 .234.105.427.314.58.21.157.495.236.858.236.312 0 .546-.066.705-.198a.635.635 0 0 0 .237-.511.543.543 0 0 0-.13-.366 1.262 1.262 0 0 0-.368-.267 8.579 8.579 0 0 0-.727-.305 7.505 7.505 0 0 1-.881-.373 1.586 1.586 0 0 1-.559-.48c-.154-.199-.23-.448-.23-.748 0-.447.163-.8.49-1.06.327-.258.763-.388 1.31-.388.383 0 .722.066 1.019.198.291.133.518.318.681.557.164.234.245.505.245.816v.13c0 .025-.01.047-.03.068a.085.085 0 0 1-.062.023h-.689a.083.083 0 0 1-.061-.023.093.093 0 0 1-.031-.069v-.084a.756.756 0 0 0-.291-.602c-.199-.168-.472-.252-.819-.252-.281 0-.498.059-.652.176a.58.58 0 0 0-.237.495c0 .153.041.277.123.374.081.096.204.183.367.259.164.081.416.183.759.305.362.137.653.262.873.373.214.112.401.267.559.465.153.204.23.455.23.755 0 .458-.171.82-.514 1.09-.337.27-.799.404-1.386.404Zm6.901-4.017c.394 0 .703.117.927.35.22.24.33.57.33.991v2.524a.083.083 0 0 1-.023.06.097.097 0 0 1-.069.031h-.697a.074.074 0 0 1-.062-.03.073.073 0 0 1-.03-.061v-2.34c0-.234-.062-.42-.184-.557a.659.659 0 0 0-.506-.206.683.683 0 0 0-.513.206c-.133.137-.199.32-.199.549v2.348a.083.083 0 0 1-.023.06.094.094 0 0 1-.069.031h-.697a.097.097 0 0 1-.069-.03.083.083 0 0 1-.023-.061v-2.34c0-.234-.064-.42-.191-.557a.66.66 0 0 0-.506-.206.703.703 0 0 0-.482.168.694.694 0 0 0-.215.457v2.478a.083.083 0 0 1-.023.06.094.094 0 0 1-.069.031h-.704a.074.074 0 0 1-.062-.03.073.073 0 0 1-.03-.061v-3.713c0-.025.01-.048.03-.068a.085.085 0 0 1 .062-.023h.704a.11.11 0 0 1 .069.023c.015.02.023.043.023.068v.252c0 .015.005.025.015.03.011.006.021 0 .031-.015a.99.99 0 0 1 .414-.312c.168-.072.355-.107.559-.107.25 0 .47.05.659.152.188.102.334.25.436.442.015.02.033.02.054 0 .112-.203.268-.353.467-.45.199-.096.421-.144.666-.144Zm3.654 0c.322 0 .605.056.85.168.245.111.434.264.567.457.133.198.199.422.199.67v2.57a.083.083 0 0 1-.023.06.094.094 0 0 1-.069.031h-.704a.074.074 0 0 1-.062-.03.073.073 0 0 1-.03-.061v-.244c0-.015-.005-.026-.016-.03-.01 0-.02.004-.03.015-.251.274-.613.411-1.088.411-.383 0-.697-.096-.942-.29-.25-.193-.375-.48-.375-.86 0-.397.14-.707.421-.93.276-.22.666-.329 1.172-.329h.819c.026 0 .039-.012.039-.038v-.183c0-.198-.059-.353-.177-.465-.117-.106-.293-.16-.528-.16a.894.894 0 0 0-.467.107.434.434 0 0 0-.23.282c-.015.061-.051.086-.107.076l-.743-.091a.179.179 0 0 1-.062-.023c-.02-.015-.028-.033-.023-.053.041-.31.21-.565.506-.763.291-.198.659-.297 1.103-.297Zm-.184 3.316c.25 0 .465-.066.644-.198a.604.604 0 0 0 .268-.503v-.359c0-.025-.013-.038-.039-.038h-.643c-.271 0-.483.051-.636.153a.487.487 0 0 0-.237.434c0 .163.061.287.184.374.117.091.27.137.459.137Zm2.781.64a.074.074 0 0 1-.062-.03.073.073 0 0 1-.03-.061v-5.153c0-.026.01-.046.03-.061a.074.074 0 0 1 .062-.03h.704c.026 0 .049.01.069.03a.08.08 0 0 1 .023.06v5.154a.08.08 0 0 1-.023.06.094.094 0 0 1-.069.031h-.704Zm1.83 0a.073.073 0 0 1-.061-.03.074.074 0 0 1-.031-.061v-5.153c0-.026.011-.046.031-.061a.073.073 0 0 1 .061-.03h.705c.025 0 .048.01.069.03a.084.084 0 0 1 .023.06v5.154a.083.083 0 0 1-.023.06.097.097 0 0 1-.069.031h-.705Zm6.35-2.782c-.031.015-.031.03 0 .046.521.243.781.663.781 1.257 0 .483-.161.852-.482 1.106-.327.249-.751.373-1.272.373h-1.93a.071.071 0 0 1-.061-.03.071.071 0 0 1-.031-.061v-5.153c0-.026.01-.046.031-.061a.071.071 0 0 1 .061-.03h1.869c.557 0 .986.119 1.287.357.301.24.452.6.452 1.083 0 .533-.235.904-.705 1.113Zm-2.068-1.792c-.026 0-.038.013-.038.039v1.41c0 .025.012.038.038.038h1.034c.271 0 .485-.064.643-.19a.675.675 0 0 0 .23-.542c0-.234-.076-.42-.23-.556-.158-.133-.372-.199-.643-.199h-1.034Zm1.095 3.804c.266 0 .478-.07.636-.213.153-.142.23-.336.23-.58 0-.248-.079-.442-.238-.579-.158-.142-.372-.213-.643-.213h-1.08c-.026 0-.038.012-.038.038v1.51c0 .025.012.037.038.037h1.095Zm4.902-3.034c0-.025.008-.048.023-.068a.115.115 0 0 1 .069-.023h.697a.11.11 0 0 1 .069.023c.016.02.023.043.023.068v3.713a.08.08 0 0 1-.023.06.094.094 0 0 1-.069.031h-.697a.097.097 0 0 1-.069-.03.083.083 0 0 1-.023-.061v-.244c0-.015-.005-.026-.015-.03-.01-.006-.02 0-.031.015-.209.269-.523.404-.942.404-.388 0-.712-.112-.972-.336-.266-.223-.399-.541-.399-.953v-2.569c0-.025.008-.048.023-.068a.115.115 0 0 1 .069-.023h.705c.025 0 .048.008.069.023.015.02.023.043.023.068v2.318c0 .239.064.43.191.572.123.142.296.213.521.213.23 0 .414-.071.552-.214.137-.142.206-.332.206-.571v-2.318Zm3.286 3.85a2.31 2.31 0 0 1-.85-.145 1.27 1.27 0 0 1-.559-.389.844.844 0 0 1-.199-.548v-.07c0-.025.007-.047.023-.068a.11.11 0 0 1 .069-.023h.674c.025 0 .046.008.061.023.02.02.031.044.031.069v.015c0 .127.069.239.206.335a.978.978 0 0 0 .537.138c.204 0 .37-.04.498-.122.127-.087.191-.193.191-.32a.291.291 0 0 0-.161-.267 2.607 2.607 0 0 0-.505-.183l-.291-.092a4.309 4.309 0 0 1-.659-.243 1.29 1.29 0 0 1-.452-.359c-.123-.147-.184-.338-.184-.572a1 1 0 0 1 .421-.846c.281-.213.651-.32 1.111-.32.312 0 .585.048.82.145.234.102.416.239.543.412.128.177.192.378.192.602 0 .025-.01.048-.031.068a.081.081 0 0 1-.061.023h-.651a.11.11 0 0 1-.069-.023.113.113 0 0 1-.023-.068c0-.132-.066-.242-.199-.328-.128-.091-.304-.137-.529-.137a1 1 0 0 0-.49.107.353.353 0 0 0-.184.312c0 .122.059.213.176.274.123.067.325.138.606.214l.168.046c.271.081.498.162.682.244.184.086.339.203.467.35a.882.882 0 0 1 .192.587.98.98 0 0 1-.429.846c-.286.209-.667.313-1.142.313Zm2.827-4.475a.53.53 0 0 1-.391-.152.525.525 0 0 1-.153-.389c0-.157.051-.287.153-.389a.53.53 0 0 1 .391-.152c.158 0 .288.05.39.152a.526.526 0 0 1 .154.389.526.526 0 0 1-.544.541Zm-.368 4.43a.097.097 0 0 1-.069-.031.083.083 0 0 1-.023-.061v-3.72c0-.026.008-.046.023-.061a.097.097 0 0 1 .069-.03h.705c.025 0 .046.01.061.03.02.015.031.035.031.06v3.72a.074.074 0 0 1-.031.062.073.073 0 0 1-.061.03h-.705Zm3.692-3.957c.414 0 .743.122.988.366.25.244.375.577.375.998v2.5c0 .026-.01.047-.03.062a.074.074 0 0 1-.062.03h-.704a.094.094 0 0 1-.069-.03.083.083 0 0 1-.023-.061v-2.318a.825.825 0 0 0-.199-.571.69.69 0 0 0-.529-.214.714.714 0 0 0-.536.214c-.133.142-.199.33-.199.564v2.325c0 .025-.01.045-.031.06a.073.073 0 0 1-.061.031h-.705a.097.097 0 0 1-.069-.03.083.083 0 0 1-.023-.061v-3.713c0-.025.008-.048.023-.068a.115.115 0 0 1 .069-.023h.705c.025 0 .046.008.061.023.021.02.031.043.031.068v.244c0 .015.005.026.015.03.01.006.018 0 .023-.015.21-.274.526-.411.95-.411Zm5.561 1.57c.02.127.03.27.03.427l-.007.236c0 .061-.031.092-.092.092h-2.398c-.025 0-.038.013-.038.038.015.168.038.282.069.343.123.366.421.551.896.556a.966.966 0 0 0 .827-.426c.021-.03.046-.046.077-.046.02 0 .038.008.054.023l.475.388c.046.036.053.077.023.122a1.567 1.567 0 0 1-.636.519 2.038 2.038 0 0 1-.873.183c-.399 0-.738-.09-1.019-.267a1.538 1.538 0 0 1-.605-.747c-.118-.274-.176-.656-.176-1.143 0-.295.03-.534.092-.717.102-.356.293-.638.574-.846.286-.203.628-.305 1.026-.305 1.006 0 1.573.523 1.701 1.57Zm-1.701-.808a.766.766 0 0 0-.475.145.737.737 0 0 0-.26.389 1.294 1.294 0 0 0-.061.335c-.01.026 0 .038.03.038h1.555c.026 0 .039-.012.039-.038a1.524 1.524 0 0 0-.046-.29.732.732 0 0 0-.276-.426.808.808 0 0 0-.506-.153Zm3.937 3.24a2.31 2.31 0 0 1-.85-.145 1.27 1.27 0 0 1-.559-.389.844.844 0 0 1-.199-.548v-.07c0-.025.008-.047.023-.068a.11.11 0 0 1 .069-.023h.674c.025 0 .046.008.061.023.021.02.031.044.031.069v.015c0 .127.069.239.207.335a.974.974 0 0 0 .536.138c.204 0 .37-.04.498-.122.127-.087.191-.193.191-.32a.291.291 0 0 0-.161-.267 2.607 2.607 0 0 0-.505-.183l-.291-.092a4.309 4.309 0 0 1-.659-.243 1.298 1.298 0 0 1-.452-.359c-.123-.147-.184-.338-.184-.572a1 1 0 0 1 .421-.846c.281-.213.652-.32 1.111-.32.312 0 .585.048.82.145.235.102.416.239.544.412.127.177.191.378.191.602 0 .025-.01.048-.031.068a.081.081 0 0 1-.061.023h-.651a.112.112 0 0 1-.069-.023.113.113 0 0 1-.023-.068c0-.132-.066-.242-.199-.328-.128-.091-.304-.137-.529-.137a1 1 0 0 0-.49.107.353.353 0 0 0-.184.312c0 .122.059.213.177.274.122.067.324.138.605.214l.168.046c.271.081.498.162.682.244.184.086.339.203.467.35a.882.882 0 0 1 .192.587.98.98 0 0 1-.429.846c-.286.209-.667.313-1.142.313Zm3.7 0c-.322 0-.605-.048-.85-.145a1.264 1.264 0 0 1-.559-.389.845.845 0 0 1-.2-.548v-.07c0-.025.008-.047.023-.068a.115.115 0 0 1 .069-.023h.674c.026 0 .046.008.062.023.02.02.03.044.03.069v.015c0 .127.069.239.207.335a.977.977 0 0 0 .536.138.91.91 0 0 0 .498-.122c.128-.087.192-.193.192-.32a.291.291 0 0 0-.161-.267 2.622 2.622 0 0 0-.506-.183l-.291-.092a4.293 4.293 0 0 1-.658-.243 1.29 1.29 0 0 1-.452-.359c-.123-.147-.184-.338-.184-.572 0-.355.14-.637.421-.846.281-.213.651-.32 1.111-.32.311 0 .584.048.819.145.235.102.416.239.544.412.128.177.192.378.192.602a.097.097 0 0 1-.031.068.083.083 0 0 1-.061.023h-.651a.11.11 0 0 1-.069-.023.107.107 0 0 1-.023-.068c0-.132-.067-.242-.199-.328-.128-.091-.304-.137-.529-.137a.997.997 0 0 0-.49.107.351.351 0 0 0-.184.312c0 .122.059.213.176.274a3.1 3.1 0 0 0 .605.214l.169.046c.27.081.498.162.681.244.184.086.34.203.468.35a.887.887 0 0 1 .191.587.98.98 0 0 1-.429.846c-.286.209-.666.313-1.141.313Z"/><path fill="#252530" d="M188.367 68.225c-.056 0-.092-.025-.107-.076l-1.356-5.16-.008-.031c0-.046.029-.069.085-.069h.95c.051 0 .084.026.099.076l.728 3.103c.005.02.013.03.023.03s.018-.01.023-.03l.704-3.095c.016-.056.049-.084.1-.084h.927c.056 0 .092.026.107.076l.766 3.103c.005.015.013.025.023.03.01 0 .018-.01.023-.03l.705-3.095c.015-.056.048-.084.099-.084h.904c.072 0 .1.033.084.1l-1.256 5.16c-.015.05-.051.076-.107.076h-.912c-.051 0-.084-.025-.099-.076l-.781-3.3c-.006-.021-.013-.031-.023-.031-.011 0-.018.01-.023.03l-.728 3.293c-.01.056-.043.084-.1.084h-.85Zm5.622 0a.097.097 0 0 1-.069-.03.083.083 0 0 1-.023-.061V62.98c0-.026.008-.046.023-.061a.097.097 0 0 1 .069-.03h.896c.026 0 .046.01.062.03.02.015.03.035.03.06v5.154c0 .025-.01.046-.03.06a.074.074 0 0 1-.062.031h-.896Zm5.002-5.244c0-.026.008-.046.023-.061.02-.02.043-.03.069-.03h.896c.026 0 .046.01.061.03a.071.071 0 0 1 .031.06v5.154c0 .025-.01.046-.031.06a.071.071 0 0 1-.061.031h-.865c-.052 0-.087-.02-.108-.06l-1.984-3.263c-.01-.016-.02-.02-.03-.016-.01 0-.016.01-.016.03l.016 3.218c0 .025-.01.046-.031.06a.073.073 0 0 1-.061.031h-.896a.094.094 0 0 1-.069-.03.08.08 0 0 1-.023-.061V62.98a.08.08 0 0 1 .023-.061c.02-.02.043-.03.069-.03h.865c.051 0 .087.02.107.06l1.977 3.248c.01.015.02.02.03.015.011 0 .016-.01.016-.03l-.008-3.202Zm5.714-.092c.026 0 .046.01.061.03a.071.071 0 0 1 .031.062v.747c0 .025-.01.045-.031.06a.072.072 0 0 1-.061.031h-1.371c-.026 0-.038.013-.038.038v4.277a.074.074 0 0 1-.031.06.073.073 0 0 1-.061.031h-.896a.094.094 0 0 1-.069-.03.08.08 0 0 1-.023-.061v-4.277c0-.025-.013-.038-.039-.038h-1.332a.094.094 0 0 1-.069-.03.08.08 0 0 1-.023-.061v-.747a.08.08 0 0 1 .023-.061c.02-.02.043-.03.069-.03h3.86Zm4.504.831a.083.083 0 0 1-.023.061.097.097 0 0 1-.069.03h-2.512c-.026 0-.039.013-.039.039v1.181c0 .026.013.038.039.038h1.646c.026 0 .046.008.062.023.02.02.03.043.03.069v.74c0 .025-.01.047-.03.068a.085.085 0 0 1-.062.023h-1.646c-.026 0-.039.012-.039.038v1.235c0 .025.013.038.039.038h2.512c.025 0 .048.008.069.023.015.02.023.043.023.068v.74a.083.083 0 0 1-.023.06.097.097 0 0 1-.069.031h-3.539a.097.097 0 0 1-.069-.03.083.083 0 0 1-.023-.061V62.98c0-.026.008-.046.023-.061a.097.097 0 0 1 .069-.03h3.539c.025 0 .048.01.069.03a.083.083 0 0 1 .023.06v.74Zm3.692 4.505a.108.108 0 0 1-.107-.068l-.958-2.112c-.01-.02-.025-.03-.046-.03h-.712c-.026 0-.039.012-.039.038v2.08c0 .026-.01.047-.03.062a.073.073 0 0 1-.061.03h-.897a.097.097 0 0 1-.069-.03.083.083 0 0 1-.023-.061V62.98c0-.026.008-.046.023-.061a.097.097 0 0 1 .069-.03h2.191c.327 0 .613.065.858.197.25.132.442.32.574.564.138.244.207.526.207.847 0 .345-.087.64-.26.884a1.38 1.38 0 0 1-.728.526c-.025.01-.033.028-.023.053l1.042 2.157c.01.02.015.036.015.046 0 .04-.028.061-.084.061h-.942Zm-1.823-4.413c-.026 0-.039.012-.039.038v1.303c0 .026.013.038.039.038h1.003a.722.722 0 0 0 .521-.19.642.642 0 0 0 .207-.496.666.666 0 0 0-.207-.503.722.722 0 0 0-.521-.19h-1.003Zm-17.717 10.61c-.01.01-.013.021-.007.031.005.01.015.015.03.015h2.076c.025 0 .048.008.069.023.015.02.023.043.023.069v.74a.083.083 0 0 1-.023.06.098.098 0 0 1-.069.03h-3.447a.098.098 0 0 1-.069-.03.083.083 0 0 1-.023-.06v-.702c0-.046.015-.084.046-.114.25-.244.506-.508.766-.793.261-.29.424-.47.49-.541.143-.168.289-.328.437-.48.465-.514.697-.895.697-1.144a.573.573 0 0 0-.192-.442.725.725 0 0 0-.497-.168.726.726 0 0 0-.498.168.59.59 0 0 0-.192.457v.19c0 .026-.01.05-.03.07a.085.085 0 0 1-.062.022h-.904a.083.083 0 0 1-.061-.023.095.095 0 0 1-.03-.068v-.358c.015-.275.102-.519.26-.732.158-.209.368-.369.628-.48.266-.112.562-.168.889-.168.362 0 .679.066.949.198.266.137.473.32.621.549.143.228.214.483.214.762a1.5 1.5 0 0 1-.161.656 3.626 3.626 0 0 1-.482.724c-.158.198-.33.394-.513.587a62.43 62.43 0 0 1-.82.838l-.115.115Zm4.68 1.053c-.562 0-1.006-.158-1.333-.473-.326-.31-.49-.734-.49-1.273v-2.013c0-.528.164-.947.49-1.257.327-.31.771-.465 1.333-.465.562 0 1.009.155 1.341.465.326.31.49.729.49 1.257v2.013c0 .539-.164.963-.49 1.273-.332.315-.779.473-1.341.473Zm0-.923c.23 0 .414-.07.552-.213.132-.137.199-.323.199-.557v-2.096c0-.234-.067-.42-.199-.556a.734.734 0 0 0-.552-.214.698.698 0 0 0-.536.214c-.138.137-.207.322-.207.556v2.096c0 .234.069.42.207.557a.698.698 0 0 0 .536.213Zm3.975-.13c-.01.01-.012.021-.007.031.005.01.015.015.03.015h2.076a.11.11 0 0 1 .069.023c.015.02.023.043.023.069v.74a.083.083 0 0 1-.023.06.094.094 0 0 1-.069.03h-3.447a.073.073 0 0 1-.061-.03.074.074 0 0 1-.031-.06v-.702c0-.046.016-.084.046-.114.251-.244.506-.508.766-.793.261-.29.424-.47.491-.541.143-.168.288-.328.436-.48.465-.514.697-.895.697-1.144a.576.576 0 0 0-.191-.442.73.73 0 0 0-.498-.168.73.73 0 0 0-.498.168.59.59 0 0 0-.191.457v.19a.113.113 0 0 1-.023.07.115.115 0 0 1-.069.022h-.904a.085.085 0 0 1-.062-.023.095.095 0 0 1-.03-.068v-.358c.015-.275.102-.519.26-.732.159-.209.37-.369.636-.48.26-.112.554-.168.881-.168.362 0 .679.066.95.198.265.137.472.32.62.549.143.228.215.483.215.762 0 .213-.054.432-.161.656a3.635 3.635 0 0 1-.483.724 8.836 8.836 0 0 1-.513.587 62.43 62.43 0 0 1-.82.838l-.115.115Zm6.687-1.356a.11.11 0 0 1 .069.023c.016.02.023.043.023.068v.77a.107.107 0 0 1-.023.069.111.111 0 0 1-.069.023h-.329c-.026 0-.038.012-.038.038v1.242a.083.083 0 0 1-.023.061.098.098 0 0 1-.069.03h-.896a.075.075 0 0 1-.062-.03.073.073 0 0 1-.03-.06v-1.243c0-.026-.013-.038-.039-.038h-2.351a.081.081 0 0 1-.061-.023.093.093 0 0 1-.031-.069v-.61c0-.03.008-.068.023-.114l1.379-3.08a.108.108 0 0 1 .107-.068h.957c.036 0 .062.01.077.03.01.016.008.04-.008.077l-1.279 2.858a.033.033 0 0 0 0 .03c.005.01.013.016.023.016h1.164c.026 0 .039-.013.039-.038v-.946c0-.025.01-.045.03-.06a.074.074 0 0 1 .062-.031h.896c.025 0 .048.01.069.03a.083.083 0 0 1 .023.061v.946c0 .025.012.038.038.038h.329Z"/></g><defs><clipPath id="a"><path fill="#fff" d="M.5 0h72v93H.5z"/></clipPath><clipPath id="b"><path fill="#fff" d="M82.5 0h72v93h-72z"/></clipPath><clipPath id="c"><path fill="#fff" d="M164.5 0h72v93h-72z"/></clipPath></defs></svg>