<svg xmlns="http://www.w3.org/2000/svg" width="235" height="93" fill="none"><path fill="#fff" d="M6.204 68.53 36.46 83.852 65.566 68.53V8.614H6.204V68.53Z"/><path fill="#F2F3F2" d="M66.178 8.842 5.591 69.597l31.404 15.475 29.183-14.865V8.842Z"/><path fill="#DCDEDC" d="M4.213 28.586v41.24l1.072.534 30.256 15.322.919.458.919-.458L66.562 70.36l1.072-.533V6.632H4.213v21.954Zm1.991 40.097V8.614h59.439v60.07L36.46 84.004 6.204 68.683Z"/><path fill="#FF492C" d="M35.923 9.605c.307 0 .613 0 .92.076l-.92 1.754c-1.378-.076-2.604.99-2.68 2.363-.077 1.372.995 2.592 2.374 2.668h.306c.613 0 1.226-.229 1.686-.61l.995 1.677a4.658 4.658 0 0 1-2.68.839c-2.452.076-4.52-1.754-4.596-4.193-.077-2.44 1.762-4.497 4.213-4.574h.383Zm3.14 3.736 1.15 1.905-1.15 1.83-1.071-1.83H35.77l1.15-1.905h2.144Zm-1.837-.686c0-.305.076-.61.23-.84.153-.228.459-.456.689-.609l.153-.076c.306-.153.383-.229.383-.381 0-.153-.23-.305-.383-.305-.306 0-.536.152-.69.457l-.382-.381c.076-.152.23-.305.383-.457.23-.153.46-.153.689-.153.23 0 .536.076.69.229.153.152.306.381.306.61 0 .38-.23.686-.69.838l-.23.153c-.23.152-.382.228-.459.457h1.379v.534l-2.068-.076Zm-1.303 9.528 7.277-4.116V6.632H28.57v11.359l7.353 4.192Z"/><path fill="#5A39A2" d="M69.089 49.168H2.757L.306 54.504l2.45 5.336H69.09l2.374-5.336-2.374-5.336Z"/><path fill="#252530" d="M21.509 45.738a.163.163 0 0 1-.161-.107l-1.433-3.163c-.015-.03-.038-.046-.069-.046h-1.072c-.036 0-.053.02-.053.06v3.119c0 .04-.013.073-.039.099a.153.153 0 0 1-.1.038h-1.347a.126.126 0 0 1-.092-.038.123.123 0 0 1-.046-.1v-7.729c0-.036.015-.069.046-.1a.126.126 0 0 1 .092-.037h3.285c.49 0 .922.099 1.295.297a2.1 2.1 0 0 1 .865.846c.2.366.3.79.3 1.273 0 .519-.131.96-.391 1.327-.26.37-.623.632-1.088.785-.04.015-.054.04-.038.076l1.562 3.24c.02.03.03.053.03.068 0 .061-.043.092-.13.092H21.51Zm-2.735-6.624c-.036 0-.053.02-.053.06v1.96c0 .035.017.053.053.053h1.51c.32 0 .584-.094.788-.282a.982.982 0 0 0 .306-.747.982.982 0 0 0-.306-.747c-.204-.198-.467-.297-.789-.297h-1.509Zm10.425 3.08c.046.289.061.611.046.967-.01.097-.062.145-.153.145h-3.547c-.046 0-.061.018-.046.053.02.153.062.305.123.458.199.427.605.64 1.218.64.49-.005.878-.203 1.164-.594.03-.046.064-.069.1-.069.025 0 .053.015.084.046l.827.808c.036.04.054.076.054.106 0 .016-.016.046-.046.092a2.41 2.41 0 0 1-.973.724c-.398.173-.835.26-1.31.26-.659 0-1.215-.148-1.67-.443-.46-.3-.789-.716-.988-1.25-.158-.381-.237-.88-.237-1.494 0-.422.056-.793.168-1.113a2.54 2.54 0 0 1 .927-1.288c.44-.32.963-.48 1.57-.48.766 0 1.382.22 1.846.663.465.442.746 1.031.843 1.768Zm-2.681-1.038c-.48 0-.797.224-.95.671-.03.102-.059.224-.084.366 0 .036.02.053.061.053h1.984c.046 0 .061-.017.046-.053a15.712 15.712 0 0 0-.054-.32 1.03 1.03 0 0 0-.36-.534 1.091 1.091 0 0 0-.643-.183Zm5.997 4.658c-.51 0-.957-.071-1.34-.213-.383-.143-.68-.343-.889-.603a1.349 1.349 0 0 1-.321-.884V44c0-.036.015-.069.046-.1a.126.126 0 0 1 .092-.037h1.279c.035 0 .069.012.1.038.025.03.038.063.038.099v.007c0 .173.094.318.283.435.184.117.419.175.705.175.26 0 .47-.05.628-.152.163-.107.245-.234.245-.381 0-.138-.069-.242-.207-.313a3.773 3.773 0 0 0-.682-.213 6.62 6.62 0 0 1-.85-.267c-.49-.168-.88-.374-1.172-.618-.29-.244-.436-.594-.436-1.052 0-.564.222-1.01.666-1.341.44-.33 1.021-.496 1.747-.496.49 0 .919.077 1.286.229.368.157.654.379.858.663.204.28.306.6.306.96a.124.124 0 0 1-.038.092.153.153 0 0 1-.1.038h-1.233a.126.126 0 0 1-.091-.038.115.115 0 0 1-.046-.091c0-.168-.085-.31-.253-.427-.174-.117-.404-.175-.69-.175-.25 0-.457.048-.62.144-.158.092-.237.216-.237.374 0 .152.079.267.237.343.153.076.414.157.781.244l.291.068c.108.026.222.059.345.1.541.162.97.368 1.287.617.311.254.467.62.467 1.098 0 .564-.222 1.003-.666 1.318-.45.316-1.055.473-1.816.473Zm6.863-5.816c0-.036.013-.069.039-.1a.135.135 0 0 1 .1-.038h1.34c.04 0 .074.013.1.039.025.03.038.063.038.099V45.6c0 .04-.013.073-.039.099a.135.135 0 0 1-.1.038h-1.34a.135.135 0 0 1-.1-.038.133.133 0 0 1-.038-.1v-.388c0-.02-.007-.033-.023-.038-.015-.005-.03.005-.046.03-.306.407-.78.61-1.424.61-.582 0-1.062-.173-1.44-.518-.373-.35-.56-.844-.56-1.48v-3.818c0-.036.013-.069.039-.1a.135.135 0 0 1 .1-.038h1.332c.036 0 .07.013.1.039.025.03.038.063.038.099v3.422c0 .305.082.552.245.74.164.193.39.29.682.29.266 0 .48-.08.643-.237.169-.157.273-.36.314-.61v-3.605Zm2.95 5.74a.126.126 0 0 1-.093-.038.123.123 0 0 1-.046-.1v-7.729c0-.036.016-.069.046-.1a.125.125 0 0 1 .092-.037h1.348c.036 0 .07.012.1.038.026.03.038.063.038.099v7.73c0 .04-.013.073-.038.099a.153.153 0 0 1-.1.038h-1.348Zm6.058-4.719a.124.124 0 0 1-.038.092.14.14 0 0 1-.1.045h-1.103c-.04 0-.061.018-.061.054v2.424c0 .249.053.437.16.564.103.122.269.183.499.183h.375c.04 0 .074.013.1.038a.133.133 0 0 1 .038.1V45.6c0 .086-.046.134-.138.145-.322.015-.552.022-.69.022-.633 0-1.107-.104-1.424-.312-.312-.209-.472-.602-.483-1.182V41.21c0-.036-.017-.054-.053-.054h-.659a.116.116 0 0 1-.092-.045.115.115 0 0 1-.046-.092v-1.021c0-.036.016-.069.046-.1a.126.126 0 0 1 .092-.038h.659c.035 0 .053-.02.053-.06v-1.357c0-.036.016-.069.046-.1a.126.126 0 0 1 .092-.038h1.287c.04 0 .074.013.1.039.025.03.038.063.038.099V39.8c0 .04.02.06.061.06h1.103c.036 0 .07.013.1.039.025.03.038.063.038.099v1.021Zm3.332 4.795c-.516 0-.965-.071-1.348-.213-.383-.143-.68-.343-.889-.603a1.369 1.369 0 0 1-.314-.884V44c0-.036.013-.069.039-.1a.135.135 0 0 1 .1-.037h1.27c.041 0 .075.012.1.038.026.03.039.063.039.099v.007c0 .173.094.318.283.435.189.117.424.175.705.175.26 0 .472-.05.635-.152.159-.107.238-.234.238-.381 0-.138-.07-.242-.207-.313a3.788 3.788 0 0 0-.674-.213 6.124 6.124 0 0 1-.85-.267c-.49-.168-.881-.374-1.172-.618-.291-.244-.437-.594-.437-1.052 0-.564.22-1.01.659-1.341.44-.33 1.024-.496 1.754-.496.49 0 .92.077 1.287.229.367.157.653.379.858.663.199.28.298.6.298.96a.124.124 0 0 1-.038.092.135.135 0 0 1-.1.038H52.73a.135.135 0 0 1-.1-.038.125.125 0 0 1-.038-.091c0-.168-.087-.31-.26-.427-.174-.117-.401-.175-.682-.175-.255 0-.462.048-.62.144-.164.092-.246.216-.246.374 0 .152.08.267.238.343.158.076.421.157.789.244l.283.068c.107.026.222.059.345.1.546.162.975.368 1.287.617.316.254.475.62.475 1.098 0 .564-.225 1.003-.674 1.318-.45.316-1.052.473-1.808.473Zm-22.48-15.68c-.047.02-.047.043 0 .068.724.371 1.087.991 1.087 1.86 0 .742-.253 1.301-.758 1.677-.506.376-1.167.564-1.984.564h-2.98a.126.126 0 0 1-.092-.038.123.123 0 0 1-.046-.099v-7.73c0-.035.015-.068.046-.099a.126.126 0 0 1 .092-.038h2.888c1.813 0 2.719.732 2.719 2.196 0 .762-.324 1.308-.973 1.639Zm-3.095-2.455c-.036 0-.054.02-.054.061v1.784c0 .04.018.06.054.06h1.348c.357 0 .638-.083.842-.25.194-.168.291-.397.291-.687 0-.3-.097-.536-.29-.709-.205-.172-.486-.259-.843-.259h-1.348Zm1.44 5.23c.352 0 .628-.09.827-.267.199-.178.299-.425.299-.74 0-.31-.1-.556-.3-.74-.198-.177-.48-.266-.842-.266h-1.424c-.036 0-.054.02-.054.06v1.891c0 .041.018.061.054.061h1.44Zm9.13-2.15c.046.29.061.612.046.968-.005.096-.054.145-.146.145H33.06c-.046 0-.061.018-.046.053.026.152.07.305.13.457.2.427.606.64 1.218.64.49-.004.876-.203 1.157-.594.03-.046.066-.068.107-.068.02 0 .046.015.077.045l.827.808c.04.041.061.077.061.107 0 .015-.015.046-.046.091a2.47 2.47 0 0 1-.98.725c-.393.172-.83.259-1.31.259-.659 0-1.215-.148-1.67-.442a2.503 2.503 0 0 1-.98-1.25c-.163-.382-.245-.88-.245-1.495 0-.421.058-.792.176-1.112.174-.54.482-.969.927-1.289.439-.32.96-.48 1.562-.48.766 0 1.382.221 1.846.663.465.442.746 1.032.843 1.769Zm-2.673-1.037c-.485 0-.805.224-.958.67-.03.102-.056.224-.076.367 0 .035.017.053.053.053h1.992c.046 0 .061-.018.046-.053a13.64 13.64 0 0 0-.062-.32.974.974 0 0 0-.36-.534 1.078 1.078 0 0 0-.635-.183Zm5.997 4.658c-.516 0-.965-.072-1.348-.214-.383-.142-.68-.343-.889-.602a1.369 1.369 0 0 1-.313-.884v-.115c0-.035.012-.068.038-.099a.135.135 0 0 1 .1-.038h1.27c.042 0 .075.013.1.038.026.03.039.064.039.1v.007c0 .173.094.318.283.434.189.117.424.176.705.176.26 0 .472-.051.636-.153.158-.106.237-.233.237-.38 0-.138-.069-.242-.207-.313a3.78 3.78 0 0 0-.674-.214 6.131 6.131 0 0 1-.85-.267c-.49-.167-.88-.373-1.172-.617-.291-.244-.437-.595-.437-1.052 0-.564.22-1.011.66-1.342.438-.33 1.023-.495 1.753-.495.49 0 .92.076 1.287.229.368.157.654.378.858.663.199.28.299.6.299.96a.125.125 0 0 1-.039.092.135.135 0 0 1-.1.038h-1.225a.135.135 0 0 1-.1-.038.125.125 0 0 1-.038-.092c0-.167-.086-.31-.26-.427-.174-.116-.401-.175-.682-.175-.255 0-.462.048-.62.145-.164.091-.245.216-.245.373 0 .153.079.267.237.343.158.077.421.158.789.244.082.02.176.044.283.069.108.025.223.058.345.1.547.162.975.367 1.287.617.317.254.475.62.475 1.097 0 .564-.225 1.004-.674 1.319-.45.315-1.052.473-1.808.473Zm6.787-4.795a.125.125 0 0 1-.039.091.124.124 0 0 1-.1.046h-1.102c-.036 0-.054.018-.054.053V32.2c0 .248.051.436.153.564.102.121.27.182.506.182h.375c.036 0 .069.013.1.039a.134.134 0 0 1 .038.099v1.082c0 .087-.046.135-.138.145-.322.015-.551.023-.69.023-.638 0-1.112-.104-1.424-.313-.317-.208-.477-.602-.482-1.181v-3.065c0-.035-.021-.053-.062-.053h-.65a.124.124 0 0 1-.1-.046.124.124 0 0 1-.039-.091v-1.022c0-.035.013-.068.039-.099a.135.135 0 0 1 .1-.038h.65c.041 0 .062-.02.062-.06v-1.358a.15.15 0 0 1 .038-.099.135.135 0 0 1 .1-.038h1.286c.036 0 .07.013.1.038a.15.15 0 0 1 .038.1v1.356c0 .04.018.061.054.061h1.103c.04 0 .074.013.1.038.025.03.038.064.038.1v1.02Z"/><path fill="#fff" d="M12.944 57.538c-.398 0-.745-.063-1.042-.19a1.595 1.595 0 0 1-.689-.534 1.384 1.384 0 0 1-.237-.808v-.19c0-.026.01-.049.03-.07a.083.083 0 0 1 .062-.022h.681c.026 0 .049.008.07.023a.11.11 0 0 1 .022.068v.145c0 .234.105.427.314.58.21.157.495.236.858.236.312 0 .546-.066.705-.198a.635.635 0 0 0 .237-.511.544.544 0 0 0-.13-.366 1.267 1.267 0 0 0-.368-.267 8.57 8.57 0 0 0-.727-.305 7.59 7.59 0 0 1-.881-.373 1.59 1.59 0 0 1-.56-.48c-.153-.199-.23-.448-.23-.748 0-.447.164-.8.491-1.06.327-.258.763-.388 1.31-.388.383 0 .722.066 1.019.198.29.133.518.318.681.557.164.234.245.505.245.816v.13c0 .025-.01.047-.03.068a.083.083 0 0 1-.062.023h-.689a.083.083 0 0 1-.061-.023.095.095 0 0 1-.03-.069v-.084a.756.756 0 0 0-.292-.602c-.199-.168-.472-.252-.82-.252-.28 0-.497.059-.65.176a.58.58 0 0 0-.238.495c0 .153.04.277.123.374.081.096.204.183.367.259.164.081.416.183.758.305.363.137.654.262.874.373.214.112.4.267.559.465.153.204.23.455.23.755 0 .458-.171.82-.513 1.09-.338.27-.8.404-1.387.404Zm6.901-4.017c.394 0 .703.117.927.35.22.24.33.57.33.991v2.524a.082.082 0 0 1-.023.06.095.095 0 0 1-.07.031h-.696a.073.073 0 0 1-.062-.03.072.072 0 0 1-.03-.061v-2.34c0-.234-.062-.42-.184-.557a.658.658 0 0 0-.506-.206c-.209 0-.38.069-.513.206-.133.137-.199.32-.199.549v2.348a.082.082 0 0 1-.023.06.095.095 0 0 1-.069.031h-.697a.095.095 0 0 1-.069-.03.082.082 0 0 1-.023-.061v-2.34c0-.234-.064-.42-.191-.557a.658.658 0 0 0-.506-.206.706.706 0 0 0-.482.168.692.692 0 0 0-.215.457v2.478a.082.082 0 0 1-.023.06.095.095 0 0 1-.069.031h-.705a.073.073 0 0 1-.06-.03.072.072 0 0 1-.031-.061v-3.713c0-.025.01-.048.03-.068a.083.083 0 0 1 .062-.023h.704c.026 0 .049.008.07.023.014.02.022.043.022.068v.252c0 .015.005.025.015.03.01.006.02 0 .031-.015a.995.995 0 0 1 .414-.312c.168-.072.355-.107.559-.107.25 0 .47.05.659.152.188.102.334.25.436.442.015.02.033.02.054 0 .112-.203.268-.353.467-.45.2-.096.421-.144.666-.144Zm3.654 0c.322 0 .605.056.85.168.245.111.434.264.567.457.133.198.2.422.2.67v2.57a.082.082 0 0 1-.024.06.095.095 0 0 1-.069.031h-.704a.073.073 0 0 1-.062-.03.072.072 0 0 1-.03-.061v-.244c0-.015-.006-.026-.016-.03-.01 0-.02.004-.03.015-.25.274-.613.411-1.088.411-.383 0-.697-.096-.942-.29-.25-.193-.375-.48-.375-.86 0-.397.14-.707.42-.93.277-.22.667-.329 1.173-.329h.82c.025 0 .038-.012.038-.038v-.183c0-.198-.06-.353-.177-.465-.117-.106-.293-.16-.528-.16a.896.896 0 0 0-.467.107.434.434 0 0 0-.23.282c-.015.061-.051.086-.107.076l-.743-.091a.173.173 0 0 1-.062-.023c-.02-.015-.028-.033-.023-.053.041-.31.21-.565.506-.763.291-.198.659-.297 1.103-.297Zm-.184 3.316c.25 0 .465-.066.644-.198a.602.602 0 0 0 .268-.503v-.359c0-.025-.013-.038-.039-.038h-.643c-.27 0-.483.051-.636.153a.487.487 0 0 0-.237.434c0 .163.061.287.184.374.117.091.27.137.46.137Zm2.78.64a.073.073 0 0 1-.06-.03.072.072 0 0 1-.031-.061v-5.153c0-.026.01-.046.03-.061a.073.073 0 0 1 .062-.03h.704c.026 0 .049.01.07.03a.082.082 0 0 1 .022.06v5.154a.082.082 0 0 1-.023.06.095.095 0 0 1-.069.031h-.704Zm1.831 0a.073.073 0 0 1-.061-.03.072.072 0 0 1-.03-.061v-5.153c0-.026.01-.046.03-.061a.073.073 0 0 1 .061-.03h.705c.025 0 .048.01.069.03a.082.082 0 0 1 .023.06v5.154a.082.082 0 0 1-.023.06.095.095 0 0 1-.07.031h-.704Zm6.35-2.782c-.03.015-.03.03 0 .046.52.243.781.663.781 1.257 0 .483-.16.852-.482 1.106-.327.249-.75.373-1.272.373h-1.93a.073.073 0 0 1-.061-.03.072.072 0 0 1-.03-.061v-5.153c0-.026.01-.046.03-.061a.073.073 0 0 1 .061-.03h1.869c.557 0 .986.119 1.287.357.301.24.452.6.452 1.083 0 .533-.235.904-.705 1.113Zm-2.068-1.792c-.026 0-.038.013-.038.039v1.41c0 .025.012.038.038.038h1.034c.27 0 .485-.064.643-.19a.677.677 0 0 0 .23-.542.71.71 0 0 0-.23-.556c-.158-.133-.372-.199-.643-.199h-1.034Zm1.095 3.804c.266 0 .478-.07.636-.213.153-.142.23-.336.23-.58 0-.248-.08-.442-.238-.579-.158-.142-.372-.213-.643-.213h-1.08c-.026 0-.038.012-.038.038v1.51c0 .025.012.037.038.037h1.095Zm4.902-3.034a.11.11 0 0 1 .023-.068.112.112 0 0 1 .07-.023h.696c.026 0 .049.008.07.023a.11.11 0 0 1 .022.068v3.713a.082.082 0 0 1-.023.06.095.095 0 0 1-.069.031h-.697a.095.095 0 0 1-.069-.03.082.082 0 0 1-.023-.061v-.244c0-.015-.005-.026-.015-.03-.01-.006-.02 0-.03.015-.21.269-.524.404-.943.404-.388 0-.712-.112-.972-.336-.266-.223-.399-.541-.399-.953v-2.569c0-.025.008-.048.023-.068a.112.112 0 0 1 .07-.023h.704c.025 0 .048.008.069.023.015.02.023.043.023.068v2.318c0 .239.064.43.191.572.123.142.296.213.521.213.23 0 .414-.071.552-.214.137-.142.206-.332.206-.571v-2.318Zm3.286 3.85c-.321 0-.605-.048-.85-.145a1.268 1.268 0 0 1-.559-.389.845.845 0 0 1-.2-.548v-.07c0-.025.009-.047.024-.068a.112.112 0 0 1 .069-.023h.674c.025 0 .046.008.061.023.02.02.03.044.03.069v.015c0 .127.07.239.207.335a.976.976 0 0 0 .537.138c.204 0 .37-.04.497-.122.128-.087.192-.193.192-.32a.29.29 0 0 0-.16-.267 2.621 2.621 0 0 0-.506-.183l-.291-.092a4.316 4.316 0 0 1-.66-.243 1.296 1.296 0 0 1-.451-.359c-.123-.147-.184-.338-.184-.572 0-.355.14-.637.421-.846.281-.213.651-.32 1.111-.32.311 0 .585.048.82.145.234.102.416.239.543.412.128.177.192.378.192.602 0 .025-.01.048-.03.068a.083.083 0 0 1-.062.023h-.651a.112.112 0 0 1-.069-.023.111.111 0 0 1-.023-.068c0-.132-.066-.242-.2-.328-.127-.091-.303-.137-.528-.137-.199 0-.362.035-.49.107a.352.352 0 0 0-.184.312c0 .122.06.213.176.274.123.067.325.138.606.214l.168.046c.27.081.498.162.682.244.184.086.34.203.467.35a.884.884 0 0 1 .192.587.98.98 0 0 1-.43.846c-.285.209-.666.313-1.14.313Zm2.827-4.475a.525.525 0 0 1-.544-.541.525.525 0 0 1 .544-.541.53.53 0 0 1 .39.152.525.525 0 0 1 .154.389.525.525 0 0 1-.154.389.53.53 0 0 1-.39.152Zm-.368 4.43a.095.095 0 0 1-.069-.031.082.082 0 0 1-.023-.061v-3.72c0-.026.008-.046.023-.061.02-.02.044-.03.07-.03h.704c.025 0 .046.01.061.03.02.015.03.035.03.06v3.72c0 .026-.01.047-.03.062a.073.073 0 0 1-.061.03h-.705Zm3.692-3.957c.414 0 .743.122.988.366.25.244.375.577.375.998v2.5c0 .026-.01.047-.03.062a.073.073 0 0 1-.062.03h-.704a.095.095 0 0 1-.07-.03.082.082 0 0 1-.022-.061v-2.318a.822.822 0 0 0-.2-.571.689.689 0 0 0-.528-.214.713.713 0 0 0-.536.214c-.133.142-.2.33-.2.564v2.325c0 .025-.01.045-.03.06a.073.073 0 0 1-.061.031h-.705a.096.096 0 0 1-.069-.03.082.082 0 0 1-.023-.061v-3.713c0-.025.008-.048.023-.068a.112.112 0 0 1 .07-.023h.704c.026 0 .046.008.061.023.02.02.03.043.03.068v.244c0 .015.006.026.016.03.01.006.018 0 .023-.015.21-.274.526-.411.95-.411Zm5.56 1.57c.021.127.032.27.032.427l-.008.236c0 .061-.03.092-.092.092h-2.398c-.025 0-.038.013-.038.038.016.168.038.282.07.343.122.366.42.551.895.556a.967.967 0 0 0 .828-.426c.02-.03.045-.046.076-.046.02 0 .038.008.054.023l.475.388c.046.036.053.077.023.122-.159.224-.37.397-.636.519-.26.122-.552.183-.873.183-.399 0-.738-.09-1.02-.267a1.544 1.544 0 0 1-.604-.747c-.118-.274-.176-.656-.176-1.143 0-.295.03-.534.091-.717.103-.356.294-.638.575-.846.286-.203.628-.305 1.026-.305 1.006 0 1.573.523 1.7 1.57Zm-1.7-.808a.765.765 0 0 0-.474.145.734.734 0 0 0-.26.389c-.032.086-.052.198-.062.335-.01.026 0 .038.03.038h1.555c.026 0 .039-.012.039-.038a1.434 1.434 0 0 0-.046-.29.732.732 0 0 0-.276-.426.807.807 0 0 0-.506-.153Zm3.937 3.24c-.321 0-.605-.048-.85-.145a1.268 1.268 0 0 1-.559-.389.845.845 0 0 1-.2-.548v-.07c0-.025.009-.047.024-.068a.112.112 0 0 1 .069-.023h.674c.025 0 .046.008.061.023.02.02.03.044.03.069v.015c0 .127.07.239.208.335a.976.976 0 0 0 .536.138c.204 0 .37-.04.498-.122.127-.087.191-.193.191-.32a.29.29 0 0 0-.16-.267 2.624 2.624 0 0 0-.506-.183l-.291-.092a4.318 4.318 0 0 1-.66-.243 1.297 1.297 0 0 1-.451-.359c-.122-.147-.184-.338-.184-.572 0-.355.14-.637.422-.846.28-.213.65-.32 1.11-.32.312 0 .585.048.82.145.235.102.416.239.544.412.127.177.191.378.191.602 0 .025-.01.048-.03.068a.083.083 0 0 1-.062.023h-.651a.112.112 0 0 1-.069-.023.111.111 0 0 1-.023-.068c0-.132-.066-.242-.199-.328-.128-.091-.304-.137-.528-.137a1 1 0 0 0-.49.107.352.352 0 0 0-.185.312c0 .122.06.213.177.274.122.067.324.138.605.214l.168.046c.27.081.498.162.682.244.184.086.34.203.467.35a.883.883 0 0 1 .192.587.98.98 0 0 1-.43.846c-.285.209-.666.313-1.14.313Zm3.7 0c-.322 0-.605-.048-.85-.145a1.269 1.269 0 0 1-.56-.389.845.845 0 0 1-.198-.548v-.07a.11.11 0 0 1 .023-.068.112.112 0 0 1 .068-.023h.674c.026 0 .046.008.062.023.02.02.03.044.03.069v.015c0 .127.07.239.207.335a.976.976 0 0 0 .536.138c.205 0 .37-.04.498-.122.128-.087.192-.193.192-.32a.29.29 0 0 0-.161-.267 2.62 2.62 0 0 0-.506-.183l-.29-.092a4.316 4.316 0 0 1-.66-.243 1.297 1.297 0 0 1-.451-.359c-.123-.147-.184-.338-.184-.572 0-.355.14-.637.421-.846.28-.213.651-.32 1.11-.32.312 0 .585.048.82.145.235.102.416.239.544.412.128.177.192.378.192.602 0 .025-.01.048-.031.068a.083.083 0 0 1-.061.023h-.651a.112.112 0 0 1-.07-.023.11.11 0 0 1-.022-.068c0-.132-.067-.242-.2-.328-.127-.091-.303-.137-.528-.137a1 1 0 0 0-.49.107.352.352 0 0 0-.184.312c0 .122.059.213.176.274.123.067.324.138.605.214l.169.046c.27.081.498.162.681.244.184.086.34.203.468.35a.883.883 0 0 1 .191.587.98.98 0 0 1-.429.846c-.286.209-.666.313-1.141.313Z"/><path fill="#252530" d="M23.867 68.225c-.056 0-.092-.025-.107-.076l-1.356-5.16-.008-.031c0-.046.029-.069.085-.069h.95c.05 0 .084.026.1.076l.727 3.103c.005.02.012.03.023.03.01 0 .018-.01.023-.03l.704-3.095c.016-.056.049-.084.1-.084h.927c.056 0 .092.026.107.076l.766 3.103c.005.015.013.025.023.03.01 0 .018-.01.023-.03l.705-3.095c.015-.056.048-.084.1-.084h.903c.072 0 .1.033.084.1l-1.256 5.16c-.015.05-.051.076-.107.076h-.912c-.05 0-.084-.025-.1-.076l-.78-3.3c-.006-.021-.013-.031-.024-.031-.01 0-.017.01-.022.03l-.728 3.293c-.01.056-.044.084-.1.084h-.85Zm5.622 0a.095.095 0 0 1-.069-.03.082.082 0 0 1-.023-.061V62.98c0-.026.008-.046.023-.061.02-.02.044-.03.07-.03h.895c.026 0 .046.01.062.03.02.015.03.035.03.06v5.154c0 .025-.01.046-.03.06a.073.073 0 0 1-.062.031h-.896Zm5.002-5.244c0-.026.008-.046.023-.061.02-.02.043-.03.069-.03h.896c.026 0 .046.01.061.03.02.015.031.035.031.06v5.154c0 .025-.01.046-.03.06a.073.073 0 0 1-.062.031h-.865c-.052 0-.087-.02-.108-.06l-1.984-3.263c-.01-.016-.02-.02-.03-.016-.01 0-.015.01-.015.03l.015 3.218c0 .025-.01.046-.03.06a.073.073 0 0 1-.062.031h-.896a.095.095 0 0 1-.07-.03.082.082 0 0 1-.022-.061V62.98c0-.026.008-.046.023-.061.02-.02.043-.03.069-.03h.865c.051 0 .087.02.108.06l1.976 3.248c.01.015.02.02.03.015.01 0 .016-.01.016-.03l-.008-3.202Zm5.714-.092c.026 0 .046.01.061.03.02.016.03.036.03.062v.747c0 .025-.01.045-.03.06a.073.073 0 0 1-.061.031h-1.371c-.026 0-.038.013-.038.038v4.277c0 .025-.01.046-.031.06a.073.073 0 0 1-.061.031h-.897a.095.095 0 0 1-.068-.03.082.082 0 0 1-.023-.061v-4.277c0-.025-.013-.038-.039-.038h-1.332a.096.096 0 0 1-.07-.03.082.082 0 0 1-.022-.061v-.747c0-.026.007-.046.023-.061.02-.02.043-.03.069-.03h3.86Zm4.504.831a.082.082 0 0 1-.023.061.095.095 0 0 1-.07.03h-2.511c-.026 0-.039.013-.039.039v1.181c0 .026.013.038.039.038h1.646c.026 0 .046.008.062.023.02.02.03.043.03.069v.74c0 .025-.01.047-.03.068a.083.083 0 0 1-.062.023h-1.646c-.026 0-.039.012-.039.038v1.235c0 .025.013.038.039.038h2.512c.025 0 .048.008.069.023a.11.11 0 0 1 .023.068v.74a.082.082 0 0 1-.023.06.095.095 0 0 1-.07.031h-3.538a.095.095 0 0 1-.069-.03.082.082 0 0 1-.023-.061V62.98c0-.026.008-.046.023-.061.02-.02.044-.03.07-.03h3.538c.025 0 .048.01.069.03a.082.082 0 0 1 .023.06v.74Zm3.692 4.505a.108.108 0 0 1-.108-.068l-.957-2.112c-.01-.02-.026-.03-.046-.03h-.712c-.026 0-.039.012-.039.038v2.08c0 .026-.01.047-.03.062a.073.073 0 0 1-.062.03h-.896a.095.095 0 0 1-.069-.03.082.082 0 0 1-.023-.061V62.98c0-.026.008-.046.023-.061.02-.02.044-.03.07-.03h2.19c.327 0 .613.065.858.197.25.132.442.32.574.564.138.244.207.526.207.847 0 .345-.087.64-.26.884a1.379 1.379 0 0 1-.728.526c-.026.01-.033.028-.023.053l1.042 2.157c.01.02.015.036.015.046 0 .04-.028.061-.084.061H48.4Zm-1.823-4.413c-.026 0-.039.012-.039.038v1.303c0 .026.013.038.039.038h1.003a.722.722 0 0 0 .521-.19.642.642 0 0 0 .207-.496.667.667 0 0 0-.207-.503.722.722 0 0 0-.52-.19h-1.004ZM28.86 74.422c-.01.01-.013.021-.008.031.006.01.016.015.031.015h2.076c.025 0 .048.008.069.023.015.02.023.043.023.069v.74a.082.082 0 0 1-.023.06.096.096 0 0 1-.07.03h-3.446a.096.096 0 0 1-.069-.03.082.082 0 0 1-.023-.06v-.702c0-.046.015-.084.046-.114.25-.244.506-.508.766-.793.26-.29.424-.47.49-.541.143-.168.289-.328.437-.48.465-.514.697-.895.697-1.144a.574.574 0 0 0-.192-.442.728.728 0 0 0-.497-.168.728.728 0 0 0-.498.168.591.591 0 0 0-.192.457v.19c0 .026-.01.05-.03.07a.083.083 0 0 1-.062.022h-.904a.083.083 0 0 1-.06-.023.094.094 0 0 1-.032-.068v-.358c.016-.275.103-.519.261-.732.158-.209.368-.369.628-.48.266-.112.562-.168.889-.168.362 0 .679.066.95.198.265.137.472.32.62.549.143.228.214.483.214.762 0 .213-.053.432-.16.656a3.623 3.623 0 0 1-.483.724c-.159.198-.33.394-.513.587-.184.193-.457.472-.82.838l-.115.115Zm4.68 1.053c-.561 0-1.006-.158-1.333-.473-.326-.31-.49-.734-.49-1.273v-2.013c0-.528.164-.947.49-1.257.327-.31.772-.465 1.333-.465.562 0 1.009.155 1.34.465.327.31.49.729.49 1.257v2.013c0 .539-.163.963-.49 1.273-.331.315-.778.473-1.34.473Zm0-.923c.23 0 .414-.07.552-.213.132-.137.199-.323.199-.557v-2.096c0-.234-.067-.42-.2-.556a.733.733 0 0 0-.55-.214.698.698 0 0 0-.537.214c-.138.137-.207.322-.207.556v2.096c0 .234.07.42.207.557a.698.698 0 0 0 .536.213Zm3.976-.13c-.01.01-.013.021-.008.031.005.01.015.015.03.015h2.076c.026 0 .049.008.07.023a.11.11 0 0 1 .022.069v.74a.082.082 0 0 1-.023.06.096.096 0 0 1-.069.03h-3.447a.073.073 0 0 1-.06-.03.072.072 0 0 1-.031-.06v-.702c0-.046.015-.084.045-.114.25-.244.506-.508.766-.793.26-.29.424-.47.49-.541.144-.168.29-.328.437-.48.465-.514.697-.895.697-1.144a.574.574 0 0 0-.191-.442.728.728 0 0 0-.498-.168.728.728 0 0 0-.498.168.591.591 0 0 0-.192.457v.19a.111.111 0 0 1-.023.07.113.113 0 0 1-.068.022h-.904a.083.083 0 0 1-.061-.023.095.095 0 0 1-.031-.068v-.358c.015-.275.102-.519.26-.732.159-.209.37-.369.636-.48.26-.112.554-.168.88-.168.363 0 .68.066.95.198.266.137.473.32.621.549.143.228.215.483.215.762 0 .213-.054.432-.161.656a3.618 3.618 0 0 1-.483.724c-.158.198-.33.394-.513.587-.184.193-.457.472-.82.838l-.114.115Zm6.686-1.356c.026 0 .049.007.07.023.014.02.022.043.022.068v.77a.111.111 0 0 1-.023.069.113.113 0 0 1-.069.023h-.33c-.025 0-.037.012-.037.038v1.242a.082.082 0 0 1-.023.061.096.096 0 0 1-.07.03h-.896a.073.073 0 0 1-.06-.03.072.072 0 0 1-.031-.06v-1.243c0-.026-.013-.038-.039-.038h-2.351a.083.083 0 0 1-.061-.023.094.094 0 0 1-.031-.069v-.61c0-.03.008-.068.023-.114l1.379-3.08a.109.109 0 0 1 .107-.068h.957c.036 0 .062.01.077.03.01.016.008.04-.008.077L41.53 73.02a.032.032 0 0 0 0 .03c.005.01.013.016.023.016h1.164c.026 0 .039-.013.039-.038v-.946c0-.025.01-.045.03-.06a.073.073 0 0 1 .061-.031h.897c.025 0 .048.01.069.03a.082.082 0 0 1 .023.061v.946c0 .025.012.038.038.038h.33Z"/><path fill="#fff" d="m88.204 68.53 30.255 15.322 29.107-15.322V8.614H88.204V68.53Z"/><path fill="#F2F3F2" d="M148.178 8.842 87.591 69.597l31.404 15.475 29.183-14.865V8.842Z"/><path fill="#DCDEDC" d="M86.213 28.586v41.24l1.072.534 30.256 15.322.919.458.919-.458 29.183-15.322 1.072-.533V6.632H86.213v21.954Zm1.991 40.097V8.614h59.439v60.07L118.46 84.004 88.204 68.683Z"/><path fill="#FF492C" d="M117.924 9.605c.306 0 .612 0 .919.076l-.919 1.754c-1.379-.076-2.605.99-2.681 2.363-.077 1.372.995 2.592 2.374 2.668h.307c.612 0 1.225-.229 1.685-.61l.995 1.677a4.657 4.657 0 0 1-2.68.839c-2.452.076-4.52-1.754-4.596-4.193-.077-2.44 1.761-4.497 4.213-4.574h.383Zm3.14 3.736 1.149 1.905-1.149 1.83-1.072-1.83h-2.222l1.149-1.905h2.145Zm-1.838-.686c0-.305.076-.61.229-.84.154-.228.46-.456.69-.609l.153-.076c.306-.153.383-.229.383-.381 0-.153-.23-.305-.383-.305-.306 0-.536.152-.689.457l-.383-.381c.076-.152.229-.305.383-.457.229-.153.459-.153.689-.153.23 0 .536.076.689.229.154.152.307.381.307.61 0 .38-.23.686-.69.838l-.229.153c-.23.152-.383.228-.46.457h1.379v.534l-2.068-.076Zm-1.302 9.528 7.276-4.116V6.632h-14.63v11.359l7.354 4.192Z"/><path fill="#2690CE" d="M151.089 49.168H84.757l-2.451 5.336 2.45 5.336h66.333l2.374-5.336-2.374-5.336Z"/><path fill="#252530" d="M91.406 45.737a.073.073 0 0 1-.06-.03.072.072 0 0 1-.032-.061v-5.153c0-.026.01-.046.031-.061a.073.073 0 0 1 .061-.03h.896c.026 0 .049.01.07.03a.082.082 0 0 1 .022.06v5.154a.082.082 0 0 1-.023.06.095.095 0 0 1-.069.031h-.896Zm6.22-3.979c.398 0 .71.12.934.358.225.24.337.575.337 1.007v2.523c0 .025-.01.046-.03.06a.073.073 0 0 1-.062.031h-.896a.095.095 0 0 1-.069-.03.082.082 0 0 1-.023-.061v-2.287c0-.208-.053-.374-.16-.495a.543.543 0 0 0-.43-.183.566.566 0 0 0-.436.183.692.692 0 0 0-.168.487v2.295c0 .025-.01.046-.031.06a.073.073 0 0 1-.061.031h-.889a.095.095 0 0 1-.069-.03.082.082 0 0 1-.023-.061v-2.287a.72.72 0 0 0-.168-.495.566.566 0 0 0-.437-.183.612.612 0 0 0-.413.144.618.618 0 0 0-.192.404v2.417a.082.082 0 0 1-.023.06.095.095 0 0 1-.069.031h-.896a.073.073 0 0 1-.061-.03.072.072 0 0 1-.031-.061V41.91c0-.026.01-.049.03-.069a.083.083 0 0 1 .062-.023h.896c.026 0 .049.008.069.023.015.02.023.043.023.069v.297c0 .015.005.025.015.03.01.005.02 0 .03-.015.21-.31.535-.465.974-.465.255 0 .477.053.666.16.194.107.342.26.444.458.016.03.034.03.054 0 .112-.209.263-.364.452-.465.194-.102.41-.153.65-.153Zm5.545 1.113c.092.26.138.564.138.915 0 .35-.048.668-.145.953a1.672 1.672 0 0 1-.552.777c-.255.188-.569.282-.942.282-.367 0-.653-.127-.858-.38-.01-.016-.02-.021-.03-.016-.011.005-.016.015-.016.03v1.632a.08.08 0 0 1-.023.06.094.094 0 0 1-.069.031h-.896a.073.073 0 0 1-.061-.03.072.072 0 0 1-.03-.061V41.91c0-.026.01-.049.03-.069a.083.083 0 0 1 .061-.023h.896c.026 0 .049.008.069.023.016.02.023.043.023.069v.251c0 .015.005.023.016.023.01.005.02.003.03-.008.215-.28.511-.419.889-.419.352 0 .659.1.919.297.255.194.439.465.551.816ZM102 44.58c.127-.199.191-.468.191-.808 0-.32-.054-.575-.161-.763-.117-.218-.306-.328-.567-.328-.235 0-.411.11-.528.328-.107.183-.161.44-.161.77 0 .34.056.605.169.793a.565.565 0 0 0 .52.305c.23 0 .409-.1.537-.297Zm2.098 1.158a.097.097 0 0 1-.069-.03.083.083 0 0 1-.023-.061v-5.153c0-.026.008-.046.023-.061a.097.097 0 0 1 .069-.03h.896c.026 0 .046.01.062.03.02.015.03.035.03.06v5.154c0 .025-.01.046-.03.06a.074.074 0 0 1-.062.031h-.896Zm5.262-2.363c.031.193.041.41.031.648-.005.061-.038.092-.1.092h-2.366c-.031 0-.041.012-.031.038.015.101.043.203.084.305.133.284.404.427.812.427a.926.926 0 0 0 .774-.397c.02-.03.043-.046.069-.046.015 0 .033.01.053.03l.552.542c.025.026.038.048.038.069 0 .01-.01.03-.03.06a1.706 1.706 0 0 1-.652.489 2.223 2.223 0 0 1-.873.167c-.439 0-.809-.099-1.11-.297a1.644 1.644 0 0 1-.659-.83c-.107-.255-.161-.588-.161-1 0-.279.038-.526.115-.739.117-.36.322-.648.613-.861.296-.214.646-.32 1.049-.32.511 0 .922.147 1.233.442.307.294.493.688.559 1.181Zm-1.784-.694c-.322 0-.534.15-.636.45-.02.066-.038.148-.054.244 0 .026.013.038.039.038h1.325c.03 0 .041-.012.03-.038a5.27 5.27 0 0 0-.038-.213.689.689 0 0 0-.237-.358.738.738 0 0 0-.429-.122Zm6.847-.922c.399 0 .71.12.935.358.225.24.337.575.337 1.007v2.523a.083.083 0 0 1-.023.06.097.097 0 0 1-.069.031h-.896a.071.071 0 0 1-.061-.03.071.071 0 0 1-.031-.061v-2.287c0-.208-.054-.374-.161-.495a.542.542 0 0 0-.429-.183.568.568 0 0 0-.437.183.693.693 0 0 0-.168.487v2.295a.083.083 0 0 1-.023.06.094.094 0 0 1-.069.031h-.888a.074.074 0 0 1-.062-.03.073.073 0 0 1-.03-.061v-2.287a.722.722 0 0 0-.169-.495.566.566 0 0 0-.436-.183.582.582 0 0 0-.406.144.603.603 0 0 0-.2.404v2.417a.08.08 0 0 1-.023.06.093.093 0 0 1-.068.031h-.897a.073.073 0 0 1-.061-.03.074.074 0 0 1-.031-.061V41.91c0-.026.011-.049.031-.069a.083.083 0 0 1 .061-.023h.897a.11.11 0 0 1 .068.023c.016.02.023.043.023.069v.297c0 .015.006.025.016.03.01.005.02 0 .03-.015.21-.31.534-.465.973-.465.255 0 .48.053.674.16.189.107.335.26.437.458.015.03.033.03.053 0a1.1 1.1 0 0 1 .46-.465c.189-.102.403-.153.643-.153Zm5.492 1.616c.031.193.041.41.031.648-.005.061-.038.092-.1.092h-2.366c-.031 0-.041.012-.031.038.015.101.043.203.084.305.133.284.404.427.812.427a.926.926 0 0 0 .774-.397c.02-.03.043-.046.069-.046.015 0 .033.01.053.03l.552.542c.025.026.038.048.038.069 0 .01-.01.03-.031.06a1.695 1.695 0 0 1-.651.489 2.223 2.223 0 0 1-.873.167c-.439 0-.809-.099-1.11-.297a1.644 1.644 0 0 1-.659-.83c-.107-.255-.161-.588-.161-1 0-.279.038-.526.115-.739.117-.36.324-.648.62-.861.291-.214.639-.32 1.042-.32.511 0 .922.147 1.233.442.307.294.493.688.559 1.181Zm-1.784-.694c-.322 0-.534.15-.636.45a1.805 1.805 0 0 0-.054.244c0 .026.013.038.039.038h1.325c.03 0 .041-.012.03-.038a5.27 5.27 0 0 0-.038-.213.689.689 0 0 0-.237-.358.738.738 0 0 0-.429-.122Zm4.534-.922c.409 0 .738.125.988.374s.375.587.375 1.014v2.5a.083.083 0 0 1-.022.06.097.097 0 0 1-.069.031h-.897a.073.073 0 0 1-.061-.03.074.074 0 0 1-.031-.061v-2.28a.722.722 0 0 0-.168-.495.597.597 0 0 0-.46-.19.574.574 0 0 0-.452.19.703.703 0 0 0-.176.496v2.279a.08.08 0 0 1-.023.06.094.094 0 0 1-.069.031h-.896a.073.073 0 0 1-.061-.03.074.074 0 0 1-.031-.061V41.91c0-.026.011-.049.031-.069a.083.083 0 0 1 .061-.023h.896c.026 0 .049.008.069.023.016.02.023.043.023.069v.266c0 .016.005.026.016.03.01.006.018.004.023-.007.209-.294.52-.442.934-.442Zm4.397.831a.113.113 0 0 1-.023.069.115.115 0 0 1-.069.023h-.736c-.025 0-.038.012-.038.038v1.616c0 .167.036.292.107.373.067.081.177.122.33.122h.253a.11.11 0 0 1 .068.023c.016.02.023.043.023.069v.724c0 .056-.03.089-.091.099-.215.01-.368.015-.46.015-.424 0-.74-.068-.95-.206-.209-.142-.316-.406-.322-.792v-2.043c0-.026-.012-.038-.038-.038h-.436a.085.085 0 0 1-.062-.023.096.096 0 0 1-.03-.069v-.678c0-.026.01-.049.03-.069a.085.085 0 0 1 .062-.023h.436c.026 0 .038-.013.038-.038v-.907c0-.026.011-.046.031-.061a.073.073 0 0 1 .061-.03h.858c.026 0 .049.01.069.03a.084.084 0 0 1 .023.06v.908c0 .025.013.038.038.038h.736c.025 0 .048.008.069.023.015.02.023.043.023.069v.678Zm2.221-.83c.332 0 .628.055.888.167.261.117.463.274.606.472.148.199.222.42.222.664v2.584a.074.074 0 0 1-.031.06.073.073 0 0 1-.061.031h-.896a.074.074 0 0 1-.062-.03.073.073 0 0 1-.03-.061v-.252c0-.015-.005-.025-.016-.03-.01-.005-.02 0-.03.015-.215.28-.559.42-1.034.42-.399 0-.72-.097-.965-.29-.246-.194-.368-.478-.368-.854 0-.391.138-.696.414-.915.275-.213.668-.32 1.179-.32h.781c.026 0 .039-.013.039-.038v-.168a.52.52 0 0 0-.153-.396c-.103-.092-.256-.137-.46-.137a.81.81 0 0 0-.391.083.393.393 0 0 0-.207.237c-.015.056-.048.081-.099.076l-.927-.122c-.061-.01-.089-.033-.084-.069.02-.213.105-.406.253-.579a1.53 1.53 0 0 1 .597-.404c.25-.097.529-.145.835-.145Zm-.153 3.239a.895.895 0 0 0 .559-.175.543.543 0 0 0 .23-.45v-.275c0-.025-.013-.038-.039-.038h-.551c-.23 0-.411.043-.544.13a.415.415 0 0 0-.191.366c0 .137.048.244.145.32a.588.588 0 0 0 .391.122Zm4.802-2.409a.107.107 0 0 1-.023.069.11.11 0 0 1-.069.023h-.735c-.025 0-.038.012-.038.038v1.616c0 .167.036.292.107.373.066.081.176.122.329.122h.253a.11.11 0 0 1 .069.023c.015.02.023.043.023.069v.724c0 .056-.031.089-.092.099a11.2 11.2 0 0 1-.459.015c-.424 0-.741-.068-.95-.206-.21-.142-.317-.406-.322-.792v-2.043c0-.026-.013-.038-.038-.038h-.437a.115.115 0 0 1-.069-.023.113.113 0 0 1-.023-.069v-.678c0-.026.008-.049.023-.069a.115.115 0 0 1 .069-.023h.437c.025 0 .038-.013.038-.038v-.907c0-.026.01-.046.031-.061a.072.072 0 0 1 .061-.03h.858c.025 0 .048.01.069.03a.084.084 0 0 1 .023.06v.908c0 .025.013.038.038.038h.735c.026 0 .049.008.069.023.016.02.023.043.023.069v.678Zm1.234-1.212a.568.568 0 0 1-.429-.175.562.562 0 0 1-.177-.427c0-.178.057-.323.169-.435a.592.592 0 0 1 .437-.167c.178 0 .324.055.436.167a.588.588 0 0 1 .169.435.562.562 0 0 1-.177.427.568.568 0 0 1-.428.175Zm-.46 4.36a.094.094 0 0 1-.069-.03.083.083 0 0 1-.023-.061v-3.743c0-.025.008-.048.023-.069a.11.11 0 0 1 .069-.023h.896a.11.11 0 0 1 .069.023c.015.02.023.044.023.069v3.743a.083.083 0 0 1-.023.06.094.094 0 0 1-.069.031h-.896Zm3.569.061c-.429 0-.796-.111-1.103-.335a1.68 1.68 0 0 1-.628-.915 2.719 2.719 0 0 1-.107-.777c0-.3.036-.57.107-.808.118-.377.33-.671.636-.885.306-.213.674-.32 1.103-.32.419 0 .776.107 1.072.32.296.209.506.5.628.877.082.254.123.52.123.8 0 .275-.036.531-.107.77a1.72 1.72 0 0 1-.628.938c-.302.224-.667.335-1.096.335Zm0-.922c.169 0 .312-.05.429-.152a.843.843 0 0 0 .253-.42 2.18 2.18 0 0 0 .061-.533c0-.214-.02-.394-.061-.542a.846.846 0 0 0-.26-.404.655.655 0 0 0-.429-.145.664.664 0 0 0-.437.145.826.826 0 0 0-.245.404c-.041.122-.061.303-.061.542 0 .228.018.406.053.533a.85.85 0 0 0 .253.42.675.675 0 0 0 .444.152Zm4.581-3.118c.408 0 .738.125.988.374s.375.587.375 1.014v2.5c0 .025-.01.046-.031.06a.071.071 0 0 1-.061.031h-.896a.097.097 0 0 1-.069-.03.083.083 0 0 1-.023-.061v-2.28a.703.703 0 0 0-.176-.495.573.573 0 0 0-.452-.19.599.599 0 0 0-.46.19.722.722 0 0 0-.168.496v2.279c0 .025-.01.046-.031.06a.071.071 0 0 1-.061.031h-.896a.094.094 0 0 1-.069-.03.083.083 0 0 1-.023-.061V41.91c0-.026.008-.049.023-.069a.111.111 0 0 1 .069-.023h.896c.026 0 .046.008.061.023.021.02.031.043.031.069v.266c0 .016.005.026.015.03.01.006.018.004.023-.007.21-.294.521-.442.935-.442Zm-33.779-8.149c0 .026-.01.046-.031.061a.072.072 0 0 1-.061.03h-2.505c-.025 0-.038.013-.038.039v1.181c0 .026.013.038.038.038h1.647c.026 0 .046.008.061.023.021.02.031.044.031.069v.74c0 .025-.01.048-.031.068a.081.081 0 0 1-.061.023h-1.647c-.025 0-.038.013-.038.038v2.104a.084.084 0 0 1-.023.06.094.094 0 0 1-.069.031h-.896a.072.072 0 0 1-.061-.03.071.071 0 0 1-.031-.061V32.87c0-.026.01-.046.031-.061a.072.072 0 0 1 .061-.03h3.531c.026 0 .046.01.061.03a.071.071 0 0 1 .031.06v.74Zm1.7.526c.332 0 .629.056.889.168.26.117.465.274.613.473.143.198.214.419.214.663v2.584a.08.08 0 0 1-.023.06.094.094 0 0 1-.069.031h-.896a.098.098 0 0 1-.069-.03.084.084 0 0 1-.023-.061v-.252c0-.015-.005-.025-.015-.03-.01-.005-.021 0-.031.015-.214.28-.559.42-1.034.42-.398 0-.72-.097-.965-.29-.245-.193-.368-.478-.368-.854 0-.391.138-.696.414-.915.276-.213.669-.32 1.18-.32h.781c.025 0 .038-.013.038-.038v-.168a.52.52 0 0 0-.153-.396c-.102-.092-.255-.137-.46-.137a.806.806 0 0 0-.39.083.393.393 0 0 0-.207.237c-.015.056-.049.081-.1.076l-.926-.122c-.062-.01-.09-.033-.085-.069.021-.213.108-.406.261-.579a1.46 1.46 0 0 1 .597-.404c.245-.096.521-.145.827-.145Zm-.153 3.24c.22 0 .406-.059.559-.175a.54.54 0 0 0 .23-.45v-.275c0-.025-.013-.038-.038-.038h-.552c-.229 0-.408.044-.536.13a.412.412 0 0 0-.199.366c0 .137.049.244.146.32a.588.588 0 0 0 .39.122Zm4.198.793c-.342 0-.641-.048-.896-.145a1.335 1.335 0 0 1-.59-.404.896.896 0 0 1-.215-.587v-.076c0-.026.01-.046.031-.061a.073.073 0 0 1 .061-.03h.85c.026 0 .046.01.062.03.02.015.03.035.03.06v.008c0 .112.064.206.192.282a.827.827 0 0 0 .467.122.792.792 0 0 0 .421-.099c.108-.07.161-.157.161-.259 0-.091-.046-.16-.138-.206a2.34 2.34 0 0 0-.452-.145 4.503 4.503 0 0 1-.566-.175c-.327-.112-.588-.249-.782-.412-.194-.162-.291-.396-.291-.7 0-.377.148-.677.444-.9.292-.219.68-.328 1.165-.328.327 0 .612.053.858.16.245.102.436.246.574.434.133.188.199.402.199.64a.107.107 0 0 1-.023.07.11.11 0 0 1-.069.022h-.819a.085.085 0 0 1-.062-.023.096.096 0 0 1-.03-.068c0-.112-.056-.206-.169-.282a.828.828 0 0 0-.459-.115.83.83 0 0 0-.414.092c-.107.06-.161.145-.161.251 0 .102.054.178.161.23.102.05.276.103.521.16l.191.053c.072.015.149.035.23.06.363.107.649.244.858.412.209.168.314.412.314.732 0 .376-.148.668-.444.877-.301.213-.705.32-1.21.32Zm4.526-3.202a.112.112 0 0 1-.022.069.115.115 0 0 1-.069.023h-.736c-.025 0-.038.012-.038.038v1.616c0 .167.036.292.107.373.067.082.176.122.33.122h.252a.11.11 0 0 1 .069.023c.016.02.023.043.023.069v.724c0 .056-.03.089-.092.099-.214.01-.367.015-.459.015-.424 0-.741-.068-.95-.206-.209-.142-.317-.406-.322-.792v-2.043c0-.026-.013-.038-.038-.038h-.437a.083.083 0 0 1-.061-.023.097.097 0 0 1-.031-.069v-.678c0-.026.011-.049.031-.069a.083.083 0 0 1 .061-.023h.437c.025 0 .038-.012.038-.038v-.907c0-.026.008-.046.023-.061a.097.097 0 0 1 .069-.03h.858c.026 0 .049.01.069.03a.083.083 0 0 1 .023.06v.908c0 .026.013.038.038.038h.736c.025 0 .048.008.069.023.015.02.022.043.022.069v.678Zm4.083.785c.031.193.041.41.031.648-.005.061-.039.092-.1.092h-2.367c-.03 0-.041.012-.03.038.015.101.043.203.084.305.133.284.403.427.812.427a.923.923 0 0 0 .773-.397c.021-.03.044-.045.069-.045.016 0 .034.01.054.03l.551.541c.026.026.039.048.039.069 0 .01-.01.03-.031.06a1.695 1.695 0 0 1-.651.489 2.227 2.227 0 0 1-.873.167c-.439 0-.809-.099-1.111-.297a1.643 1.643 0 0 1-.658-.83c-.108-.255-.161-.588-.161-1 0-.279.038-.525.115-.739a1.68 1.68 0 0 1 .612-.861 1.75 1.75 0 0 1 1.05-.32c.51 0 .919.147 1.225.442.312.294.501.688.567 1.181Zm-1.785-.693c-.321 0-.533.15-.635.45a1.662 1.662 0 0 0-.054.243c0 .026.013.038.038.038h1.325c.031 0 .041-.012.031-.038a5.309 5.309 0 0 0-.038-.213.672.672 0 0 0-.245-.358.702.702 0 0 0-.422-.122Zm3.999 3.11c-.342 0-.641-.048-.897-.145a1.395 1.395 0 0 1-.597-.404.916.916 0 0 1-.207-.587v-.076c0-.026.01-.046.031-.061a.073.073 0 0 1 .061-.03h.85c.026 0 .046.01.062.03.02.015.03.035.03.06v.008c0 .112.062.206.184.282a.868.868 0 0 0 .475.122.792.792 0 0 0 .421-.099c.108-.07.161-.157.161-.259 0-.091-.046-.16-.138-.206a2.34 2.34 0 0 0-.452-.145 4.503 4.503 0 0 1-.566-.175c-.327-.112-.588-.249-.782-.412-.194-.162-.291-.396-.291-.7 0-.377.146-.677.437-.9.296-.219.687-.328 1.172-.328.327 0 .612.053.858.16.245.102.434.246.566.434.138.188.207.402.207.64a.107.107 0 0 1-.023.07.11.11 0 0 1-.069.022h-.819a.11.11 0 0 1-.069-.023.107.107 0 0 1-.023-.068c0-.112-.056-.206-.169-.282a.828.828 0 0 0-.459-.115.83.83 0 0 0-.414.092c-.107.06-.161.145-.161.251 0 .102.051.178.153.23.108.05.284.103.529.16l.191.053c.072.015.149.035.23.06.363.107.649.244.858.412.209.168.314.412.314.732 0 .376-.151.668-.452.877-.296.213-.697.32-1.202.32Zm4.526-3.202c0 .026-.01.048-.03.069a.083.083 0 0 1-.061.023h-.736c-.025 0-.038.012-.038.038v1.616c0 .167.033.292.1.373.071.082.183.122.337.122h.252c.026 0 .046.008.062.023.02.02.03.043.03.069v.724c0 .056-.03.089-.092.099-.214.01-.367.015-.459.015-.424 0-.741-.068-.95-.206-.209-.142-.317-.406-.322-.792v-2.043c0-.026-.013-.038-.038-.038h-.437a.115.115 0 0 1-.069-.023.113.113 0 0 1-.023-.069v-.678c0-.026.008-.049.023-.069a.115.115 0 0 1 .069-.023h.437c.025 0 .038-.012.038-.038v-.907c0-.026.008-.046.023-.061a.097.097 0 0 1 .069-.03h.858c.026 0 .046.01.061.03a.071.071 0 0 1 .031.06v.908c0 .026.013.038.038.038h.736c.025 0 .046.008.061.023.02.02.03.043.03.069v.678Z"/><path fill="#fff" d="M105.898 57.477c-.057 0-.092-.026-.108-.076l-1.394-5.161-.007-.03c0-.047.028-.07.084-.07h.751c.056 0 .091.026.107.077l.873 3.476c.005.015.013.023.023.023s.018-.008.023-.023l.835-3.476c.015-.051.048-.076.099-.076h.736c.056 0 .092.025.107.076l.888 3.483c.006.016.013.023.023.023.011 0 .018-.007.023-.023l.858-3.483c.016-.051.051-.076.108-.076h.712c.071 0 .099.033.084.099l-1.325 5.16c-.015.051-.051.077-.107.077h-.713c-.056 0-.091-.026-.107-.076l-.896-3.637c-.005-.015-.013-.025-.023-.03-.01 0-.018.01-.023.03l-.858 3.636c-.015.051-.048.077-.099.077h-.674Zm5.675 0a.098.098 0 0 1-.069-.03.083.083 0 0 1-.023-.062v-5.153c0-.025.008-.046.023-.06a.098.098 0 0 1 .069-.031h.705c.026 0 .046.01.061.03a.071.071 0 0 1 .031.061v5.153c0 .026-.01.046-.031.061a.072.072 0 0 1-.061.03h-.705Zm5.033-5.245a.08.08 0 0 1 .023-.06c.02-.021.043-.031.069-.031h.704c.026 0 .046.01.062.03.02.015.03.036.03.061v5.153c0 .026-.01.046-.03.061a.075.075 0 0 1-.062.03h-.681c-.051 0-.087-.02-.108-.06l-2.206-3.598c-.01-.016-.02-.023-.03-.023-.01.005-.016.018-.016.038l.016 3.552c0 .026-.01.046-.031.061a.073.073 0 0 1-.061.03h-.705a.098.098 0 0 1-.069-.03.083.083 0 0 1-.023-.06v-5.154c0-.025.008-.046.023-.06a.098.098 0 0 1 .069-.031h.682c.051 0 .087.02.107.06l2.198 3.599c.011.015.021.02.031.015.01 0 .015-.01.015-.03l-.007-3.553Zm5.53-.091c.025 0 .046.01.061.03a.071.071 0 0 1 .031.061v.587c0 .025-.01.046-.031.061a.073.073 0 0 1-.061.03h-1.409c-.026 0-.039.013-.039.039v4.436a.08.08 0 0 1-.023.061.094.094 0 0 1-.069.03h-.704a.075.075 0 0 1-.062-.03.073.073 0 0 1-.03-.06v-4.437c0-.026-.013-.038-.039-.038h-1.355a.094.094 0 0 1-.069-.03.08.08 0 0 1-.023-.062v-.587a.08.08 0 0 1 .023-.06c.02-.021.043-.031.069-.031h3.73Zm4.542.67c0 .026-.01.046-.031.061a.071.071 0 0 1-.061.03h-2.612c-.025 0-.038.014-.038.039v1.425c0 .026.013.039.038.039h1.754c.026 0 .049.007.069.023.015.02.023.043.023.068v.58a.113.113 0 0 1-.023.068.11.11 0 0 1-.069.023h-1.754c-.025 0-.038.013-.038.038v1.471c0 .026.013.038.038.038h2.612c.026 0 .046.01.061.03a.071.071 0 0 1 .031.062v.58c0 .025-.01.045-.031.06a.072.072 0 0 1-.061.03h-3.447a.098.098 0 0 1-.069-.03.083.083 0 0 1-.023-.06v-5.154c0-.025.008-.046.023-.06a.098.098 0 0 1 .069-.031h3.447c.026 0 .046.01.061.03a.071.071 0 0 1 .031.061v.58Zm3.914 4.666a.108.108 0 0 1-.107-.069l-1.011-2.195c-.01-.02-.026-.03-.046-.03h-.919c-.026 0-.039.012-.039.037v2.165c0 .026-.01.046-.03.061a.075.075 0 0 1-.062.03h-.704a.094.094 0 0 1-.069-.03.083.083 0 0 1-.023-.06v-5.154c0-.025.008-.046.023-.06.02-.021.043-.031.069-.031h2.106c.312 0 .587.063.827.19.24.132.427.315.56.55.132.238.199.51.199.815 0 .35-.092.648-.276.892a1.381 1.381 0 0 1-.751.518c-.01 0-.018.005-.023.015a.033.033 0 0 0 0 .03l1.08 2.219c.011.02.016.036.016.046 0 .04-.028.06-.085.06h-.735Zm-2.083-4.574c-.026 0-.039.013-.039.038v1.517c0 .025.013.038.039.038h1.149a.825.825 0 0 0 .597-.221c.148-.142.222-.333.222-.572a.782.782 0 0 0-.222-.579.825.825 0 0 0-.597-.221h-1.149Z"/><path fill="#252530" d="M107.652 71.245c-.016.015-.021.03-.016.045a.053.053 0 0 0 .046.023h3.011c.035 0 .066.013.091.038a.114.114 0 0 1 .046.092v1.075a.114.114 0 0 1-.046.091.124.124 0 0 1-.091.038h-4.995a.134.134 0 0 1-.099-.038.122.122 0 0 1-.038-.091v-1.022c0-.066.023-.122.069-.168.362-.35.732-.734 1.11-1.15.378-.417.615-.677.713-.778.204-.244.413-.478.628-.702.674-.741 1.011-1.293 1.011-1.654a.828.828 0 0 0-.276-.64c-.184-.163-.424-.244-.72-.244s-.536.081-.72.244a.843.843 0 0 0-.283.663v.275a.123.123 0 0 1-.039.091.125.125 0 0 1-.092.038h-1.309a.125.125 0 0 1-.092-.038.114.114 0 0 1-.046-.091v-.519c.025-.396.153-.75.383-1.06a2.2 2.2 0 0 1 .911-.7 3.263 3.263 0 0 1 1.287-.245c.526 0 .983.1 1.371.298.388.193.687.454.896.785.215.335.322.704.322 1.105 0 .31-.079.628-.238.953a5.07 5.07 0 0 1-.697 1.052 15.3 15.3 0 0 1-.743.854c-.265.28-.661.683-1.187 1.212l-.168.168Zm6.786 1.524c-.817 0-1.46-.226-1.93-.678-.475-.453-.712-1.07-.712-1.853v-2.92c0-.767.237-1.374.712-1.821.47-.453 1.113-.679 1.93-.679.812 0 1.458.227 1.938.679.475.447.712 1.054.712 1.822v2.92c0 .782-.237 1.4-.712 1.852-.48.452-1.126.678-1.938.678Zm0-1.334c.332 0 .595-.102.789-.305.199-.203.299-.475.299-.816v-3.041c0-.335-.1-.605-.299-.808-.194-.203-.457-.305-.789-.305-.327 0-.587.102-.781.305-.199.203-.299.472-.299.808v3.041c0 .341.1.613.299.816.194.203.454.305.781.305Zm5.76-.19c-.015.015-.018.03-.008.045.005.015.021.023.046.023h3.011c.035 0 .066.013.091.038a.123.123 0 0 1 .039.092v1.075a.123.123 0 0 1-.039.091.124.124 0 0 1-.091.038h-5.002a.125.125 0 0 1-.092-.038.122.122 0 0 1-.038-.091v-1.022c0-.066.02-.122.061-.168.368-.35.738-.734 1.111-1.15.377-.417.615-.677.712-.778.209-.244.421-.478.636-.702.674-.741 1.011-1.293 1.011-1.654a.828.828 0 0 0-.276-.64c-.189-.163-.432-.244-.728-.244s-.536.081-.72.244a.854.854 0 0 0-.275.663v.275a.133.133 0 0 1-.138.13h-1.31a.126.126 0 0 1-.092-.039.122.122 0 0 1-.038-.091v-.519a1.9 1.9 0 0 1 .375-1.06 2.2 2.2 0 0 1 .919-.7c.383-.163.81-.245 1.279-.245.526 0 .983.1 1.371.298.394.193.695.454.904.785.21.335.314.704.314 1.105 0 .31-.076.628-.23.953a5.388 5.388 0 0 1-.704 1.052c-.23.285-.478.57-.743.854-.266.28-.661.683-1.187 1.212l-.169.168Zm9.697-1.967c.036 0 .069.012.1.038a.126.126 0 0 1 .038.091v1.12a.126.126 0 0 1-.038.092.154.154 0 0 1-.1.038h-.475c-.036 0-.053.018-.053.054v1.806a.123.123 0 0 1-.039.092.152.152 0 0 1-.099.038h-1.295a.133.133 0 0 1-.138-.13v-1.806c0-.036-.018-.053-.053-.053h-3.409a.15.15 0 0 1-.099-.039.123.123 0 0 1-.039-.091v-.884c0-.046.013-.102.039-.168l1.999-4.467c.03-.066.082-.1.153-.1h1.386c.051 0 .087.013.108.039.02.025.017.064-.008.114l-1.854 4.147a.071.071 0 0 0 0 .046c.011.015.023.023.039.023h1.685c.035 0 .053-.02.053-.061v-1.365a.132.132 0 0 1 .138-.137h1.295c.035 0 .069.013.099.038a.132.132 0 0 1 .039.1v1.364c0 .04.017.06.053.06h.475Z"/><path fill="#fff" d="m170.118 68.53 29.835 15.322 28.702-15.322V8.614h-58.537V68.53Z"/><path fill="#F2F3F2" d="m229.259 8.842-59.745 60.755 30.968 15.475 28.777-14.865V8.842Z"/><path fill="#DCDEDC" d="M168.154 28.586v41.24l1.058.534 29.835 15.322.906.458.907-.458 28.777-15.322 1.058-.533V6.632h-62.541v21.954Zm1.964 40.097V8.614h58.613v60.07l-28.778 15.321-29.835-15.322Z"/><path fill="#FF492C" d="M199.424 9.605c.302 0 .604 0 .906.076l-.906 1.754c-1.36-.076-2.568.99-2.644 2.363-.075 1.372.982 2.592 2.342 2.668h.302c.604 0 1.208-.229 1.662-.61l.982 1.677a4.552 4.552 0 0 1-2.644.839c-2.417.076-4.456-1.754-4.532-4.193-.076-2.44 1.737-4.497 4.154-4.574h.378Zm3.097 3.736 1.133 1.905-1.133 1.83-1.058-1.83h-2.19l1.133-1.905h2.115Zm-1.813-.686c0-.305.075-.61.227-.84.151-.228.453-.456.679-.609l.151-.076c.303-.153.378-.229.378-.381 0-.153-.227-.305-.378-.305-.302 0-.528.152-.679.457l-.378-.381c.075-.152.227-.305.378-.457.226-.153.453-.153.679-.153.227 0 .529.076.68.229.151.152.302.381.302.61 0 .38-.226.686-.679.838l-.227.153c-.227.152-.378.228-.453.457h1.359v.534l-2.039-.076Zm-1.284 9.528 7.175-4.116V6.632h-14.426v11.359l7.251 4.192Z"/><path fill="#2690CE" d="M232.13 49.168h-65.41l-2.417 5.336 2.417 5.336h65.41l2.342-5.336-2.342-5.336Z"/><path fill="#252530" d="M172.135 45.738a.093.093 0 0 1-.068-.03.095.095 0 0 1-.03-.07v-5.67c0-.026.01-.049.03-.07.02-.02.043-.03.068-.03h.975c.03 0 .053.01.068.03.02.021.03.044.03.07v5.67c0 .026-.01.049-.03.07-.015.02-.038.03-.068.03h-.975Zm6.745-4.376c.433 0 .773.132 1.02.397.242.259.363.627.363 1.105v2.775a.097.097 0 0 1-.031.068.092.092 0 0 1-.068.03h-.974a.093.093 0 0 1-.068-.03.095.095 0 0 1-.03-.068v-2.516c0-.228-.058-.411-.174-.549a.591.591 0 0 0-.468-.198.607.607 0 0 0-.469.198.773.773 0 0 0-.188.541v2.524a.113.113 0 0 1-.023.068.101.101 0 0 1-.076.03h-.959a.1.1 0 0 1-.075-.03.097.097 0 0 1-.031-.068v-2.516c0-.223-.06-.404-.181-.541a.603.603 0 0 0-.476-.206.622.622 0 0 0-.438.16.656.656 0 0 0-.211.442v2.66c0 .026-.01.049-.03.07a.104.104 0 0 1-.076.03h-.967a.1.1 0 0 1-.075-.03.097.097 0 0 1-.031-.07V41.53c0-.03.011-.056.031-.076a.12.12 0 0 1 .075-.023h.967c.03 0 .055.008.076.023.02.02.03.045.03.076v.328c0 .015.005.025.015.03.01.005.02 0 .03-.015.227-.34.579-.51 1.058-.51.276 0 .518.058.725.175.206.117.365.284.475.503.021.03.041.03.061 0 .121-.229.287-.4.498-.511.207-.112.438-.168.695-.168Zm6.02 1.22c.101.29.151.625.151 1.006 0 .386-.053.737-.158 1.052-.131.356-.333.64-.605.854-.272.208-.611.312-1.019.312-.398 0-.708-.14-.929-.419-.01-.015-.02-.02-.031-.015-.015.005-.022.015-.022.03v1.792c0 .03-.008.056-.023.076a.1.1 0 0 1-.075.03h-.967a.103.103 0 0 1-.106-.106V41.53c0-.03.01-.056.03-.076a.123.123 0 0 1 .076-.023h.967a.12.12 0 0 1 .075.023c.015.02.023.045.023.076v.274c0 .016.007.026.022.03.011.006.021 0 .031-.014.231-.305.554-.458.966-.458.383 0 .713.107.99.32.282.219.483.519.604.9Zm-1.269 1.883c.136-.219.204-.516.204-.892 0-.35-.058-.63-.174-.839-.125-.239-.329-.358-.611-.358-.257 0-.448.12-.574.358-.116.204-.174.486-.174.846 0 .377.06.669.181.877a.612.612 0 0 0 .567.336c.246 0 .44-.11.581-.328Zm2.274 1.273a.093.093 0 0 1-.068-.03.095.095 0 0 1-.03-.07v-5.67c0-.026.01-.049.03-.07.02-.02.043-.03.068-.03h.974c.025 0 .048.01.068.03.02.021.03.044.03.07v5.67c0 .026-.01.049-.03.07a.093.093 0 0 1-.068.03h-.974Zm5.71-2.6c.03.214.04.453.03.717-.005.066-.04.1-.106.1h-2.568c-.035 0-.045.012-.03.037.015.112.045.224.091.336.141.315.433.472.876.472a.988.988 0 0 0 .838-.434c.026-.036.051-.054.076-.054.02 0 .04.01.06.03l.597.603c.03.026.045.048.045.069 0 .015-.012.038-.037.068a1.825 1.825 0 0 1-.703.534c-.287.127-.604.19-.952.19-.473 0-.876-.109-1.208-.327a1.842 1.842 0 0 1-.71-.915c-.116-.28-.174-.645-.174-1.098 0-.31.043-.582.129-.816.125-.396.347-.71.664-.945.318-.233.695-.35 1.133-.35.554 0 1 .162 1.337.488.333.32.536.752.612 1.295Zm-1.941-.762c-.348 0-.577.165-.688.496-.02.07-.04.16-.06.266 0 .03.015.046.045.046h1.435c.036 0 .048-.015.038-.046a7.28 7.28 0 0 0-.045-.236.721.721 0 0 0-.264-.389.744.744 0 0 0-.461-.137Zm7.432-1.014c.433 0 .771.132 1.012.397.242.259.363.627.363 1.105v2.775a.113.113 0 0 1-.023.068.1.1 0 0 1-.075.03h-.967a.103.103 0 0 1-.076-.03.095.095 0 0 1-.03-.068v-2.516c0-.228-.058-.411-.174-.549a.58.58 0 0 0-.46-.198.614.614 0 0 0-.476.198c-.121.138-.182.318-.182.541v2.524c0 .025-.01.048-.03.068a.093.093 0 0 1-.068.03h-.967c-.03 0-.052-.01-.067-.03a.093.093 0 0 1-.031-.068v-2.516c0-.223-.06-.404-.181-.541a.618.618 0 0 0-.476-.206.647.647 0 0 0-.445.16.657.657 0 0 0-.212.442v2.66c0 .026-.01.049-.03.07a.093.093 0 0 1-.068.03h-.975a.091.091 0 0 1-.067-.03.093.093 0 0 1-.031-.07V41.53c0-.03.01-.056.031-.076a.107.107 0 0 1 .067-.023h.975a.11.11 0 0 1 .068.023c.02.02.03.045.03.076v.328c0 .015.005.025.015.03.01.005.023 0 .038-.015.227-.34.576-.51 1.05-.51.277 0 .518.058.725.175.211.117.373.284.483.503.015.03.033.03.053 0 .126-.229.292-.4.499-.511.206-.112.44-.168.702-.168Zm5.952 1.776c.035.214.048.453.038.717-.005.066-.04.1-.106.1h-2.568c-.035 0-.048.012-.038.037.02.112.051.224.091.336.146.315.44.472.884.472.352-.005.632-.15.838-.434.02-.036.045-.054.076-.054.015 0 .035.01.06.03l.597.603c.025.026.037.048.037.069 0 .015-.01.038-.03.068a1.805 1.805 0 0 1-.71.534c-.287.127-.602.19-.944.19-.473 0-.876-.109-1.208-.327a1.836 1.836 0 0 1-.71-.915c-.116-.28-.174-.645-.174-1.098 0-.31.04-.582.121-.816a1.87 1.87 0 0 1 .672-.945c.317-.233.695-.35 1.133-.35.554 0 .999.162 1.337.488.332.32.534.752.604 1.295Zm-1.934-.762c-.347 0-.576.165-.687.496-.02.07-.04.16-.06.266 0 .03.015.046.045.046h1.435c.035 0 .045-.015.03-.046l-.037-.236a.723.723 0 0 0-.265-.389.742.742 0 0 0-.461-.137Zm4.918-1.014c.443 0 .8.137 1.072.412.272.274.408.645.408 1.113v2.752c0 .025-.01.048-.03.068-.015.02-.038.03-.068.03h-.975a.095.095 0 0 1-.068-.03.095.095 0 0 1-.03-.068V43.13a.797.797 0 0 0-.189-.55.62.62 0 0 0-.491-.205.644.644 0 0 0-.498.206.818.818 0 0 0-.181.549v2.508c0 .025-.01.048-.031.068a.1.1 0 0 1-.075.03h-.967a.1.1 0 0 1-.075-.03.107.107 0 0 1-.023-.068V41.53a.12.12 0 0 1 .023-.076.12.12 0 0 1 .075-.023h.967a.12.12 0 0 1 .075.023c.021.02.031.045.031.076v.29c0 .02.005.033.015.038.01.005.017.002.022-.008.227-.325.564-.488 1.013-.488Zm4.773.915c0 .025-.01.048-.03.069a.094.094 0 0 1-.068.03h-.801c-.025 0-.037.013-.037.038v1.784c0 .183.035.32.105.412.076.086.197.13.363.13h.279c.026 0 .048.01.068.03.02.02.031.043.031.068v.8c0 .062-.033.097-.099.108-.236.01-.405.015-.506.015-.458 0-.8-.077-1.027-.229-.227-.152-.342-.442-.347-.869v-2.249c0-.025-.015-.038-.046-.038h-.468a.105.105 0 0 1-.076-.03.112.112 0 0 1-.022-.069v-.747c0-.03.007-.056.022-.076a.125.125 0 0 1 .076-.023h.468c.031 0 .046-.015.046-.046v-.998c0-.026.01-.049.03-.07.02-.02.043-.03.068-.03h.929c.03 0 .055.01.075.03.021.021.031.044.031.07v.998c0 .03.012.046.037.046h.801a.11.11 0 0 1 .068.023c.02.02.03.045.03.076v.747Zm2.41-.915c.357 0 .677.064.959.19.287.123.508.293.665.512.156.218.234.462.234.731v2.844c0 .025-.01.048-.03.068a.08.08 0 0 1-.068.03h-.975a.093.093 0 0 1-.068-.03.095.095 0 0 1-.03-.068v-.275c0-.02-.005-.033-.015-.038-.01-.005-.02 0-.03.015-.237.31-.612.465-1.126.465-.433 0-.783-.106-1.05-.32-.261-.213-.392-.526-.392-.937 0-.432.148-.768.445-1.007.297-.233.723-.35 1.277-.35h.853c.025 0 .038-.016.038-.046v-.183a.574.574 0 0 0-.166-.434c-.111-.102-.277-.153-.499-.153a.915.915 0 0 0-.43.092.44.44 0 0 0-.219.259c-.015.06-.051.089-.106.084l-1.005-.13c-.065-.015-.095-.04-.09-.076.02-.24.113-.452.279-.64.161-.189.375-.336.642-.443.272-.106.574-.16.907-.16Zm-.167 3.56a.967.967 0 0 0 .605-.19.596.596 0 0 0 .249-.496v-.297c0-.03-.013-.046-.038-.046h-.604c-.247 0-.441.048-.582.145a.45.45 0 0 0-.211.404c0 .147.053.264.159.35.105.087.246.13.422.13Zm6.632-2.393c.106.29.159.635.159 1.036 0 .387-.048.724-.144 1.014-.126.381-.33.681-.612.9a1.565 1.565 0 0 1-.989.327c-.408 0-.728-.155-.959-.465-.01-.01-.02-.012-.03-.007-.016 0-.023.01-.023.03v.275a.113.113 0 0 1-.023.068.1.1 0 0 1-.075.03h-.967a.104.104 0 0 1-.076-.03.095.095 0 0 1-.03-.068v-5.672c0-.025.01-.048.03-.068a.105.105 0 0 1 .076-.03h.967a.1.1 0 0 1 .075.03c.015.02.023.043.023.068v1.8c0 .014.007.025.023.03.01.005.02 0 .03-.015.216-.28.523-.42.921-.42.403 0 .743.104 1.02.313.272.208.473.493.604.854Zm-1.231 1.898c.116-.209.174-.488.174-.839 0-.381-.068-.676-.204-.884a.643.643 0 0 0-.589-.328.602.602 0 0 0-.552.328c-.121.213-.181.505-.181.877 0 .376.053.658.159.846.136.244.332.366.589.366.267 0 .468-.122.604-.366Zm2.251 1.31c-.03 0-.053-.01-.068-.03a.095.095 0 0 1-.03-.068v-5.672c0-.025.01-.048.03-.068.015-.02.038-.03.068-.03h.974c.025 0 .048.01.068.03.02.02.03.043.03.068v5.672c0 .025-.01.048-.03.068a.093.093 0 0 1-.068.03h-.974Zm5.71-2.599c.03.214.04.453.03.717-.005.066-.04.1-.105.1h-2.569c-.035 0-.047.012-.037.037a1.7 1.7 0 0 0 .098.336c.141.315.433.472.876.472a1 1 0 0 0 .838-.434c.026-.036.051-.054.076-.054.015 0 .035.01.06.03l.597.603c.03.026.045.048.045.069 0 .015-.012.038-.037.068a1.825 1.825 0 0 1-.703.534c-.292.127-.609.19-.951.19-.474 0-.877-.109-1.209-.327a1.842 1.842 0 0 1-.71-.915c-.116-.28-.174-.645-.174-1.098 0-.31.041-.582.121-.816a1.87 1.87 0 0 1 .672-.945c.318-.233.695-.35 1.133-.35.554 0 1 .162 1.337.488.333.32.537.752.612 1.295Zm-1.941-.762c-.348 0-.577.165-.687.496-.021.07-.041.16-.061.266 0 .03.015.046.045.046h1.436c.035 0 .045-.015.03-.046a7.053 7.053 0 0 0-.038-.236.716.716 0 0 0-.264-.389.744.744 0 0 0-.461-.137Zm-30.047-10.824c.031-.046.068-.07.114-.07h.974c.03 0 .055.011.076.031.015.02.022.044.022.069v5.672a.112.112 0 0 1-.022.068.105.105 0 0 1-.076.03h-.974a.092.092 0 0 1-.068-.03.093.093 0 0 1-.031-.069v-3.697c0-.025-.005-.038-.015-.038-.01 0-.02.01-.03.03l-.884 1.388a.122.122 0 0 1-.113.069h-.491a.14.14 0 0 1-.121-.069l-.876-1.387c-.01-.02-.023-.028-.038-.023-.01 0-.015.013-.015.038v3.69c0 .025-.01.048-.03.068-.015.02-.038.03-.068.03h-.974a.094.094 0 0 1-.068-.03.097.097 0 0 1-.031-.069v-5.671c0-.025.011-.048.031-.069.02-.02.043-.03.068-.03h.974c.05 0 .088.023.113.069l1.247 1.951c.02.036.037.036.052 0l1.254-1.951Zm4.011 5.87c-.463 0-.861-.125-1.193-.374a1.82 1.82 0 0 1-.68-1.007 2.85 2.85 0 0 1-.121-.853c0-.33.04-.625.121-.885.126-.416.355-.742.687-.975.333-.234.73-.351 1.194-.351.458 0 .846.114 1.163.343.322.234.551.56.687.976.086.28.129.572.129.876 0 .3-.038.582-.114.847-.121.437-.347.78-.68 1.029-.327.249-.725.373-1.193.373Zm0-1.015a.68.68 0 0 0 .468-.167.94.94 0 0 0 .272-.465c.046-.178.068-.374.068-.587 0-.234-.022-.432-.068-.595a.935.935 0 0 0-.279-.442.7.7 0 0 0-.468-.16.7.7 0 0 0-.469.16.896.896 0 0 0-.272.442c-.04.137-.06.335-.06.595 0 .254.017.45.053.587a.913.913 0 0 0 .279.465.71.71 0 0 0 .476.167Zm4.449 1.007c-.373 0-.698-.054-.974-.16a1.485 1.485 0 0 1-.642-.443 1.02 1.02 0 0 1-.227-.648v-.083c0-.03.01-.056.03-.077.015-.015.038-.023.068-.023h.922c.025 0 .047.008.068.023.02.02.03.046.03.077v.007c0 .122.068.226.204.313a.94.94 0 0 0 .513.13.813.813 0 0 0 .454-.115c.115-.076.173-.168.173-.274 0-.102-.048-.178-.143-.23a2.55 2.55 0 0 0-.491-.16 4.982 4.982 0 0 1-.62-.19c-.352-.127-.634-.28-.846-.457-.211-.178-.317-.435-.317-.77 0-.412.161-.74.484-.984.317-.243.737-.365 1.261-.365.358 0 .667.056.929.167.267.117.473.28.619.488.151.203.227.437.227.702 0 .03-.01.053-.03.068a.103.103 0 0 1-.076.03h-.883a.101.101 0 0 1-.076-.03c-.02-.015-.03-.038-.03-.068 0-.123-.061-.227-.181-.313-.126-.081-.293-.122-.499-.122a.894.894 0 0 0-.446.1c-.115.065-.173.157-.173.274 0 .111.055.195.166.251.116.056.307.117.574.183a18.808 18.808 0 0 1 .453.122c.393.117.703.267.929.45.232.188.348.457.348.808 0 .411-.164.734-.491.968-.323.234-.758.35-1.307.35Zm4.909-3.522c0 .025-.01.048-.03.068a.094.094 0 0 1-.068.03h-.8c-.026 0-.038.014-.038.039v1.784c0 .183.038.32.113.411.071.087.189.13.355.13h.28c.025 0 .047.01.068.03.02.02.03.044.03.07v.8c0 .06-.033.096-.098.106-.232.01-.398.016-.499.016-.463 0-.808-.077-1.035-.23-.226-.152-.342-.441-.347-.868v-2.249c0-.025-.013-.038-.038-.038h-.476c-.03 0-.053-.01-.068-.03a.096.096 0 0 1-.03-.07v-.746c0-.03.01-.056.03-.077.015-.015.038-.022.068-.022h.476c.025 0 .038-.016.038-.046V32c0-.025.01-.048.03-.068.02-.02.043-.03.068-.03h.937c.025 0 .048.01.068.03.02.02.03.043.03.068V33c0 .03.012.046.038.046h.8a.11.11 0 0 1 .068.023c.02.02.03.045.03.076v.747Z"/><path fill="#fff" d="M176.764 57.538a2.56 2.56 0 0 1-1.027-.19 1.582 1.582 0 0 1-.68-.534 1.399 1.399 0 0 1-.234-.808v-.19c0-.026.01-.049.03-.07a.085.085 0 0 1 .061-.022h.672a.11.11 0 0 1 .068.023c.015.02.023.043.023.068v.145c0 .234.103.427.309.58.207.157.489.236.846.236.308 0 .539-.066.695-.198a.639.639 0 0 0 .234-.511.547.547 0 0 0-.128-.366 1.246 1.246 0 0 0-.363-.267 8.373 8.373 0 0 0-.717-.305 7.431 7.431 0 0 1-.869-.373 1.578 1.578 0 0 1-.551-.48c-.151-.199-.227-.448-.227-.748 0-.447.161-.8.484-1.06.322-.258.753-.388 1.291-.388.378 0 .713.066 1.005.198.287.133.511.318.672.557.161.234.242.505.242.816v.13c0 .025-.01.047-.03.068a.083.083 0 0 1-.061.023h-.68a.08.08 0 0 1-.06-.023.095.095 0 0 1-.03-.069v-.084a.761.761 0 0 0-.287-.602c-.197-.168-.466-.252-.808-.252-.277 0-.491.059-.642.176a.581.581 0 0 0-.235.495c0 .153.041.277.121.374.081.096.202.183.363.259.161.081.41.183.748.305.357.137.644.262.861.373.211.112.395.267.551.465.151.204.227.455.227.755 0 .458-.169.82-.506 1.09-.333.27-.789.404-1.368.404Zm6.806-4.017c.388 0 .692.117.914.35.216.24.325.57.325.991v2.524a.083.083 0 0 1-.023.06.093.093 0 0 1-.068.031h-.687a.071.071 0 0 1-.061-.03.073.073 0 0 1-.03-.061v-2.34c0-.234-.06-.42-.181-.557a.645.645 0 0 0-.499-.206.669.669 0 0 0-.506.206c-.131.137-.196.32-.196.549v2.348a.083.083 0 0 1-.023.06.093.093 0 0 1-.068.031h-.687a.093.093 0 0 1-.068-.03.083.083 0 0 1-.023-.061v-2.34c0-.234-.063-.42-.189-.557a.644.644 0 0 0-.498-.206.69.69 0 0 0-.476.168.7.7 0 0 0-.212.457v2.478a.083.083 0 0 1-.022.06.093.093 0 0 1-.068.031h-.695a.074.074 0 0 1-.061-.03.073.073 0 0 1-.03-.061v-3.713c0-.025.01-.048.03-.068a.084.084 0 0 1 .061-.023h.695a.11.11 0 0 1 .068.023c.015.02.022.043.022.068v.252c0 .015.005.025.016.03.01.006.02 0 .03-.015a.98.98 0 0 1 .408-.312c.166-.072.35-.107.551-.107.247 0 .463.05.65.152.186.102.329.25.43.442.015.02.033.02.053 0 .111-.203.264-.353.461-.45.196-.096.415-.144.657-.144Zm3.603 0c.317 0 .596.056.838.168.242.111.428.264.559.457.131.198.196.422.196.67v2.57a.083.083 0 0 1-.022.06.093.093 0 0 1-.068.031h-.695a.074.074 0 0 1-.061-.03.073.073 0 0 1-.03-.061v-.244c0-.015-.005-.026-.015-.03-.01 0-.02.004-.03.015-.247.274-.604.411-1.073.411-.377 0-.687-.096-.929-.29-.246-.193-.37-.48-.37-.86 0-.397.139-.707.416-.93.272-.22.657-.329 1.155-.329h.808c.026 0 .038-.012.038-.038v-.183c0-.198-.058-.353-.173-.465-.116-.106-.29-.16-.522-.16a.87.87 0 0 0-.46.107.432.432 0 0 0-.227.282c-.015.061-.05.086-.106.076l-.732-.091a.166.166 0 0 1-.061-.023c-.02-.015-.027-.033-.022-.053.04-.31.206-.565.498-.763.287-.198.65-.297 1.088-.297Zm-.182 3.316c.247 0 .459-.066.635-.198a.605.605 0 0 0 .264-.503v-.359c0-.025-.012-.038-.038-.038h-.634c-.267 0-.476.051-.627.153a.489.489 0 0 0-.234.434c0 .163.06.287.181.374a.71.71 0 0 0 .453.137Zm2.742.64a.07.07 0 0 1-.06-.03.073.073 0 0 1-.03-.061v-5.153c0-.026.01-.046.03-.061a.07.07 0 0 1 .06-.03h.695c.025 0 .048.01.068.03a.084.084 0 0 1 .023.06v5.154a.083.083 0 0 1-.023.06.093.093 0 0 1-.068.031h-.695Zm1.805 0a.07.07 0 0 1-.06-.03.073.073 0 0 1-.03-.061v-5.153c0-.026.01-.046.03-.061a.07.07 0 0 1 .06-.03h.695c.026 0 .048.01.068.03a.084.084 0 0 1 .023.06v5.154a.083.083 0 0 1-.023.06.092.092 0 0 1-.068.031h-.695Zm6.262-2.782c-.03.015-.03.03 0 .046.514.243.77.663.77 1.257 0 .483-.158.852-.475 1.106-.323.249-.741.373-1.254.373h-1.904a.07.07 0 0 1-.06-.03.073.073 0 0 1-.03-.061v-5.153c0-.026.01-.046.03-.061a.07.07 0 0 1 .06-.03h1.843c.549 0 .972.119 1.269.357.297.24.446.6.446 1.083 0 .533-.232.904-.695 1.113Zm-2.039-1.792c-.025 0-.038.013-.038.039v1.41c0 .025.013.038.038.038h1.019c.267 0 .479-.064.635-.19.151-.133.226-.313.226-.542 0-.234-.075-.42-.226-.556-.156-.133-.368-.199-.635-.199h-1.019Zm1.08 3.804c.262 0 .471-.07.627-.213.151-.142.226-.336.226-.58 0-.248-.078-.442-.234-.579-.156-.142-.367-.213-.634-.213h-1.065c-.025 0-.038.012-.038.038v1.51c0 .025.013.037.038.037h1.08Zm4.834-3.034c0-.025.007-.048.022-.068a.112.112 0 0 1 .068-.023h.688a.11.11 0 0 1 .068.023c.015.02.022.043.022.068v3.713a.083.083 0 0 1-.022.06.093.093 0 0 1-.068.031h-.688a.095.095 0 0 1-.068-.03.083.083 0 0 1-.022-.061v-.244c0-.015-.005-.026-.015-.03-.01-.006-.02 0-.03.015-.207.269-.517.404-.93.404-.382 0-.702-.112-.959-.336-.262-.223-.393-.541-.393-.953v-2.569c0-.025.008-.048.023-.068a.11.11 0 0 1 .068-.023h.695a.11.11 0 0 1 .068.023c.015.02.023.043.023.068v2.318c0 .239.063.43.188.572.121.142.293.213.514.213a.717.717 0 0 0 .544-.214c.136-.142.204-.332.204-.571v-2.318Zm3.24 3.85c-.317 0-.597-.048-.838-.145a1.252 1.252 0 0 1-.552-.389.852.852 0 0 1-.196-.548v-.07c0-.025.008-.047.023-.068a.108.108 0 0 1 .068-.023h.664c.025 0 .046.008.061.023.02.02.03.044.03.069v.015c0 .127.068.239.204.335a.952.952 0 0 0 .529.138c.201 0 .365-.04.491-.122.125-.087.188-.193.188-.32a.29.29 0 0 0-.158-.267 2.568 2.568 0 0 0-.499-.183l-.287-.092a4.193 4.193 0 0 1-.649-.243 1.277 1.277 0 0 1-.446-.359c-.121-.147-.181-.338-.181-.572 0-.355.138-.637.415-.846.277-.213.642-.32 1.095-.32.308 0 .577.048.809.145.231.102.41.239.536.412.126.177.189.378.189.602 0 .025-.01.048-.031.068a.08.08 0 0 1-.06.023h-.642a.11.11 0 0 1-.068-.023.113.113 0 0 1-.023-.068c0-.132-.065-.242-.196-.328-.126-.091-.3-.137-.521-.137a.975.975 0 0 0-.484.107.354.354 0 0 0-.181.312c0 .122.058.213.174.274.121.067.32.138.597.214l.166.046c.267.081.491.162.672.244.181.086.335.203.461.35a.89.89 0 0 1 .189.587c0 .361-.141.643-.423.846-.282.209-.658.313-1.126.313Zm2.787-4.475a.52.52 0 0 1-.536-.541.52.52 0 0 1 .536-.541.518.518 0 0 1 .537.541.518.518 0 0 1-.537.541Zm-.362 4.43a.093.093 0 0 1-.068-.031.083.083 0 0 1-.023-.061v-3.72c0-.026.008-.046.023-.061.02-.02.043-.03.068-.03h.695a.07.07 0 0 1 .06.03c.02.015.03.035.03.06v3.72c0 .026-.01.047-.03.062a.07.07 0 0 1-.06.03h-.695Zm3.64-3.957c.408 0 .733.122.975.366.246.244.37.577.37.998v2.5c0 .026-.01.047-.03.062a.073.073 0 0 1-.061.03h-.695a.093.093 0 0 1-.068-.03.083.083 0 0 1-.022-.061v-2.318a.829.829 0 0 0-.197-.571.673.673 0 0 0-.521-.214.7.7 0 0 0-.529.214c-.131.142-.196.33-.196.564v2.325c0 .025-.01.045-.03.06a.071.071 0 0 1-.061.031h-.695a.095.095 0 0 1-.068-.03.083.083 0 0 1-.022-.061v-3.713c0-.025.007-.048.022-.068a.112.112 0 0 1 .068-.023h.695c.026 0 .046.008.061.023.02.02.03.043.03.068v.244c0 .015.005.026.015.03.01.006.018 0 .023-.015.206-.274.518-.411.936-.411Zm5.484 1.57c.02.127.03.27.03.427l-.007.236c0 .061-.031.092-.091.092h-2.364c-.025 0-.038.013-.038.038.015.168.038.282.068.343.121.366.415.551.884.556a.951.951 0 0 0 .816-.426c.02-.03.045-.046.075-.046.02 0 .038.008.053.023l.468.388c.046.036.053.077.023.122a1.54 1.54 0 0 1-.627.519 1.984 1.984 0 0 1-.861.183c-.393 0-.728-.09-1.005-.267a1.538 1.538 0 0 1-.596-.747c-.116-.274-.174-.656-.174-1.143 0-.295.03-.534.091-.717.1-.356.289-.638.566-.846.282-.203.619-.305 1.012-.305.992 0 1.551.523 1.677 1.57Zm-1.677-.808a.747.747 0 0 0-.468.145.733.733 0 0 0-.257.389c-.03.086-.05.198-.06.335-.01.026 0 .038.03.038h1.533c.025 0 .038-.012.038-.038a1.46 1.46 0 0 0-.045-.29.736.736 0 0 0-.272-.426.789.789 0 0 0-.499-.153Zm3.883 3.24a2.25 2.25 0 0 1-.839-.145 1.248 1.248 0 0 1-.551-.389.853.853 0 0 1-.197-.548v-.07c0-.025.008-.047.023-.068a.11.11 0 0 1 .068-.023h.665a.08.08 0 0 1 .06.023c.02.02.03.044.03.069v.015c0 .127.068.239.204.335a.952.952 0 0 0 .529.138c.201 0 .365-.04.491-.122.126-.087.189-.193.189-.32a.291.291 0 0 0-.159-.267 2.578 2.578 0 0 0-.498-.183l-.287-.092a4.209 4.209 0 0 1-.65-.243 1.286 1.286 0 0 1-.446-.359.877.877 0 0 1-.181-.572c0-.355.139-.637.416-.846.276-.213.642-.32 1.095-.32.307 0 .576.048.808.145.232.102.41.239.536.412.126.177.189.378.189.602 0 .025-.01.048-.03.068a.081.081 0 0 1-.061.023h-.642a.112.112 0 0 1-.068-.023.112.112 0 0 1-.022-.068c0-.132-.066-.242-.197-.328-.126-.091-.299-.137-.521-.137a.974.974 0 0 0-.483.107.352.352 0 0 0-.181.312c0 .122.057.213.173.274.121.067.32.138.597.214l.166.046c.267.081.491.162.672.244.182.086.335.203.461.35a.89.89 0 0 1 .189.587c0 .361-.141.643-.423.846-.282.209-.657.313-1.125.313Zm3.648 0a2.25 2.25 0 0 1-.839-.145 1.254 1.254 0 0 1-.551-.389.852.852 0 0 1-.196-.548v-.07c0-.025.007-.047.022-.068a.11.11 0 0 1 .068-.023h.665a.08.08 0 0 1 .06.023c.02.02.031.044.031.069v.015c0 .127.067.239.203.335a.954.954 0 0 0 .529.138.89.89 0 0 0 .491-.122c.126-.087.189-.193.189-.32a.291.291 0 0 0-.159-.267 2.552 2.552 0 0 0-.498-.183l-.287-.092a4.209 4.209 0 0 1-.65-.243 1.274 1.274 0 0 1-.445-.359.872.872 0 0 1-.182-.572c0-.355.139-.637.416-.846.277-.213.642-.32 1.095-.32.307 0 .577.048.808.145.232.102.411.239.536.412.126.177.189.378.189.602 0 .025-.01.048-.03.068a.08.08 0 0 1-.06.023h-.642a.108.108 0 0 1-.068-.023.107.107 0 0 1-.023-.068c0-.132-.066-.242-.196-.328-.126-.091-.3-.137-.522-.137a.974.974 0 0 0-.483.107.352.352 0 0 0-.181.312c0 .122.058.213.173.274.121.067.32.138.597.214l.166.046c.267.081.491.162.673.244.181.086.334.203.46.35a.89.89 0 0 1 .189.587c0 .361-.141.643-.423.846-.282.209-.657.313-1.125.313Z"/><path fill="#252530" d="M187.535 68.225c-.055 0-.09-.025-.106-.076l-1.336-5.16-.008-.031c0-.046.028-.069.083-.069h.937c.05 0 .083.026.098.076l.717 3.103c.005.02.013.03.023.03s.018-.01.023-.03l.695-3.095c.015-.056.047-.084.098-.084h.914c.055 0 .09.026.105.076l.756 3.103c.005.015.012.025.022.03.011 0 .018-.01.023-.03l.695-3.095c.015-.056.048-.084.098-.084h.891c.071 0 .099.033.084.1l-1.239 5.16c-.015.05-.051.076-.106.076h-.899c-.05 0-.083-.025-.098-.076l-.77-3.3c-.005-.021-.013-.031-.023-.031s-.018.01-.023.03l-.717 3.293c-.01.056-.043.084-.098.084h-.839Zm5.544 0a.093.093 0 0 1-.068-.03.083.083 0 0 1-.022-.061V62.98c0-.026.007-.046.022-.061.02-.02.043-.03.068-.03h.884a.07.07 0 0 1 .06.03.071.071 0 0 1 .031.06v5.154c0 .025-.01.046-.031.06a.07.07 0 0 1-.06.031h-.884Zm4.932-5.244c0-.026.008-.046.023-.061.02-.02.043-.03.068-.03h.884a.07.07 0 0 1 .06.03c.02.015.03.035.03.06v5.154c0 .025-.01.046-.03.06a.07.07 0 0 1-.06.031h-.854c-.05 0-.085-.02-.105-.06l-1.957-3.263c-.01-.016-.02-.02-.03-.016-.01 0-.015.01-.015.03l.015 3.218c0 .025-.01.046-.03.06a.071.071 0 0 1-.061.031h-.883a.093.093 0 0 1-.068-.03.083.083 0 0 1-.023-.061V62.98c0-.026.008-.046.023-.061.02-.02.043-.03.068-.03h.853c.051 0 .086.02.106.06l1.949 3.248c.01.015.02.02.03.015.01 0 .015-.01.015-.03l-.008-3.202Zm5.635-.092c.025 0 .045.01.061.03.02.016.03.036.03.062v.747c0 .025-.01.045-.03.06a.074.074 0 0 1-.061.031h-1.352c-.025 0-.038.013-.038.038v4.277c0 .025-.01.046-.03.06a.07.07 0 0 1-.06.031h-.884a.093.093 0 0 1-.068-.03.083.083 0 0 1-.023-.061v-4.277c0-.025-.012-.038-.037-.038h-1.315a.094.094 0 0 1-.068-.03.083.083 0 0 1-.022-.061v-.747c0-.026.007-.046.022-.061.02-.02.043-.03.068-.03h3.807Zm4.441.831a.083.083 0 0 1-.022.061.093.093 0 0 1-.068.03h-2.478c-.025 0-.037.013-.037.039v1.181c0 .026.012.038.037.038h1.624c.025 0 .046.008.061.023.02.02.03.043.03.069v.74c0 .025-.01.047-.03.068a.083.083 0 0 1-.061.023h-1.624c-.025 0-.037.012-.037.038v1.235c0 .025.012.038.037.038h2.478a.11.11 0 0 1 .068.023c.015.02.022.043.022.068v.74a.083.083 0 0 1-.022.06.093.093 0 0 1-.068.031h-3.49a.093.093 0 0 1-.068-.03.083.083 0 0 1-.022-.061V62.98c0-.026.007-.046.022-.061.02-.02.043-.03.068-.03h3.49c.025 0 .048.01.068.03a.083.083 0 0 1 .022.06v.74Zm3.641 4.505a.107.107 0 0 1-.106-.068l-.944-2.112c-.01-.02-.025-.03-.045-.03h-.703c-.025 0-.037.012-.037.038v2.08c0 .026-.01.047-.031.062a.07.07 0 0 1-.06.03h-.884a.093.093 0 0 1-.068-.03.083.083 0 0 1-.022-.061V62.98c0-.026.007-.046.022-.061.02-.02.043-.03.068-.03h2.16c.323 0 .605.065.846.197.247.132.436.32.567.564.136.244.204.526.204.847 0 .345-.086.64-.257.884-.171.249-.41.424-.718.526-.025.01-.032.028-.022.053l1.027 2.157c.01.02.015.036.015.046 0 .04-.028.061-.083.061h-.929Zm-1.798-4.413c-.025 0-.037.012-.037.038v1.303c0 .026.012.038.037.038h.99a.704.704 0 0 0 .513-.19.647.647 0 0 0 .204-.496.671.671 0 0 0-.204-.503.704.704 0 0 0-.513-.19h-.99Zm-17.47 10.61c-.01.01-.013.021-.008.031.005.01.015.015.031.015h2.046c.026 0 .048.008.068.023.016.02.023.043.023.069v.74a.08.08 0 0 1-.023.06.092.092 0 0 1-.068.03h-3.399a.092.092 0 0 1-.067-.03.08.08 0 0 1-.023-.06v-.702c0-.046.015-.084.045-.114.247-.244.499-.508.755-.793.257-.29.418-.47.484-.541.141-.168.284-.328.43-.48.459-.514.688-.895.688-1.144a.577.577 0 0 0-.189-.442.713.713 0 0 0-.491-.168.713.713 0 0 0-.491.168.595.595 0 0 0-.189.457v.19c0 .026-.01.05-.03.07a.08.08 0 0 1-.06.022h-.892a.08.08 0 0 1-.06-.023.095.095 0 0 1-.03-.068v-.358c.015-.275.1-.519.256-.732.157-.209.363-.369.62-.48a2.21 2.21 0 0 1 .876-.168c.358 0 .67.066.937.198.261.137.465.32.611.549.141.228.212.483.212.762 0 .213-.053.432-.159.656a3.573 3.573 0 0 1-.476.724 8.699 8.699 0 0 1-.506.587c-.181.193-.45.472-.808.838l-.113.115Zm4.615 1.053c-.554 0-.992-.158-1.314-.473-.323-.31-.484-.734-.484-1.273v-2.013c0-.528.161-.947.484-1.257.322-.31.76-.465 1.314-.465s.994.155 1.322.465c.322.31.483.729.483 1.257v2.013c0 .539-.161.963-.483 1.273-.328.315-.768.473-1.322.473Zm0-.923a.718.718 0 0 0 .544-.213c.131-.137.196-.323.196-.557v-2.096c0-.234-.065-.42-.196-.556a.718.718 0 0 0-.544-.214.684.684 0 0 0-.529.214c-.136.137-.204.322-.204.556v2.096c0 .234.068.42.204.557a.684.684 0 0 0 .529.213Zm3.92-.13c-.01.01-.013.021-.008.031.005.01.016.015.031.015h2.047c.025 0 .047.008.068.023.015.02.022.043.022.069v.74a.083.083 0 0 1-.022.06.095.095 0 0 1-.068.03h-3.399a.072.072 0 0 1-.061-.03.073.073 0 0 1-.03-.06v-.702c0-.046.015-.084.045-.114.247-.244.499-.508.756-.793.256-.29.418-.47.483-.541a9.96 9.96 0 0 1 .431-.48c.458-.514.687-.895.687-1.144a.577.577 0 0 0-.189-.442.711.711 0 0 0-.491-.168.713.713 0 0 0-.491.168.595.595 0 0 0-.189.457v.19a.112.112 0 0 1-.022.07.11.11 0 0 1-.068.022h-.892a.08.08 0 0 1-.06-.023.095.095 0 0 1-.03-.068v-.358c.015-.275.1-.519.257-.732.156-.209.365-.369.626-.48.257-.112.547-.168.869-.168.358 0 .67.066.937.198.262.137.465.32.611.549.141.228.212.483.212.762 0 .213-.053.432-.159.656a3.607 3.607 0 0 1-.475.724 9.014 9.014 0 0 1-.507.587c-.181.193-.45.472-.808.838l-.113.115Zm6.594-1.356a.11.11 0 0 1 .068.023c.015.02.023.043.023.068v.77a.113.113 0 0 1-.023.069.11.11 0 0 1-.068.023h-.325c-.025 0-.038.012-.038.038v1.242a.083.083 0 0 1-.022.061.094.094 0 0 1-.068.03h-.884a.071.071 0 0 1-.06-.03.071.071 0 0 1-.031-.06v-1.243c0-.026-.012-.038-.037-.038h-2.319a.083.083 0 0 1-.061-.023.095.095 0 0 1-.03-.069v-.61c0-.03.008-.068.023-.114l1.359-3.08a.107.107 0 0 1 .106-.068h.944c.035 0 .061.01.076.03.01.016.007.04-.008.077l-1.261 2.858a.033.033 0 0 0 0 .03c.005.01.012.016.022.016h1.149c.025 0 .037-.013.037-.038v-.946c0-.025.01-.045.031-.06a.07.07 0 0 1 .06-.031h.884c.025 0 .048.01.068.03a.083.083 0 0 1 .022.061v.946c0 .025.013.038.038.038h.325Z"/></svg>